%TF.GenerationSoftware,KiCad,Pcbnew,(6.0.9)*%
%TF.CreationDate,2023-05-08T16:49:11+02:00*%
%TF.ProjectId,onstepPiConnector,6f6e7374-6570-4506-9943-6f6e6e656374,rev?*%
%TF.SameCoordinates,Original*%
%TF.FileFunction,Copper,L1,Top*%
%TF.FilePolarity,Positive*%
%FSLAX46Y46*%
G04 Gerber Fmt 4.6, Leading zero omitted, Abs format (unit mm)*
G04 Created by KiCad (PCBNEW (6.0.9)) date 2023-05-08 16:49:11*
%MOMM*%
%LPD*%
G01*
G04 APERTURE LIST*
G04 Aperture macros list*
%AMRoundRect*
0 Rectangle with rounded corners*
0 $1 Rounding radius*
0 $2 $3 $4 $5 $6 $7 $8 $9 X,Y pos of 4 corners*
0 Add a 4 corners polygon primitive as box body*
4,1,4,$2,$3,$4,$5,$6,$7,$8,$9,$2,$3,0*
0 Add four circle primitives for the rounded corners*
1,1,$1+$1,$2,$3*
1,1,$1+$1,$4,$5*
1,1,$1+$1,$6,$7*
1,1,$1+$1,$8,$9*
0 Add four rect primitives between the rounded corners*
20,1,$1+$1,$2,$3,$4,$5,0*
20,1,$1+$1,$4,$5,$6,$7,0*
20,1,$1+$1,$6,$7,$8,$9,0*
20,1,$1+$1,$8,$9,$2,$3,0*%
G04 Aperture macros list end*
%TA.AperFunction,ComponentPad*%
%ADD10R,1.700000X1.700000*%
%TD*%
%TA.AperFunction,ComponentPad*%
%ADD11O,1.700000X1.700000*%
%TD*%
%TA.AperFunction,ComponentPad*%
%ADD12R,2.000000X1.905000*%
%TD*%
%TA.AperFunction,ComponentPad*%
%ADD13O,2.000000X1.905000*%
%TD*%
%TA.AperFunction,ComponentPad*%
%ADD14C,4.000000*%
%TD*%
%TA.AperFunction,ComponentPad*%
%ADD15R,1.600000X1.600000*%
%TD*%
%TA.AperFunction,ComponentPad*%
%ADD16C,1.600000*%
%TD*%
%TA.AperFunction,SMDPad,CuDef*%
%ADD17RoundRect,0.250000X-0.337500X-0.475000X0.337500X-0.475000X0.337500X0.475000X-0.337500X0.475000X0*%
%TD*%
%TA.AperFunction,ComponentPad*%
%ADD18O,1.600000X1.600000*%
%TD*%
%TA.AperFunction,ViaPad*%
%ADD19C,0.800000*%
%TD*%
%TA.AperFunction,Conductor*%
%ADD20C,0.250000*%
%TD*%
%TA.AperFunction,Conductor*%
%ADD21C,0.500000*%
%TD*%
G04 APERTURE END LIST*
D10*
%TO.P,J2,1,Pin_1*%
%TO.N,Net-(A1-Pad6)*%
X60198000Y-71882000D03*
D11*
%TO.P,J2,2,Pin_2*%
%TO.N,Net-(A1-Pad7)*%
X57658000Y-71882000D03*
%TO.P,J2,3,Pin_3*%
%TO.N,Net-(A1-Pad8)*%
X60198000Y-74422000D03*
%TO.P,J2,4,Pin_4*%
%TO.N,Net-(A1-Pad9)*%
X57658000Y-74422000D03*
%TO.P,J2,5,Pin_5*%
%TO.N,Net-(A1-Pad10)*%
X60198000Y-76962000D03*
%TO.P,J2,6,Pin_6*%
%TO.N,Net-(A1-Pad11)*%
X57658000Y-76962000D03*
%TO.P,J2,7,Pin_7*%
%TO.N,Net-(A1-Pad12)*%
X60198000Y-79502000D03*
%TO.P,J2,8,Pin_8*%
%TO.N,Net-(A1-Pad13)*%
X57658000Y-79502000D03*
%TO.P,J2,9,Pin_9*%
%TO.N,Net-(A1-Pad14)*%
X60198000Y-82042000D03*
%TO.P,J2,10,Pin_10*%
%TO.N,Net-(A1-Pad15)*%
X57658000Y-82042000D03*
%TO.P,J2,11,Pin_11*%
%TO.N,Net-(A1-Pad16)*%
X60198000Y-84582000D03*
%TO.P,J2,12,Pin_12*%
%TO.N,Net-(A1-Pad26)*%
X57658000Y-84582000D03*
%TO.P,J2,13,Pin_13*%
%TO.N,Net-(A1-Pad25)*%
X60198000Y-87122000D03*
%TO.P,J2,14,Pin_14*%
%TO.N,Net-(A1-Pad22)*%
X57658000Y-87122000D03*
%TO.P,J2,15,Pin_15*%
%TO.N,Net-(A1-Pad21)*%
X60198000Y-89662000D03*
%TO.P,J2,16,Pin_16*%
%TO.N,Net-(A1-Pad20)*%
X57658000Y-89662000D03*
%TD*%
D12*
%TO.P,U1,1,IN*%
%TO.N,+12V*%
X55000000Y-62580000D03*
D13*
%TO.P,U1,2,GND*%
%TO.N,GND*%
X55000000Y-60040000D03*
%TO.P,U1,3,OUT*%
%TO.N,+5V*%
X55000000Y-57500000D03*
%TD*%
D12*
%TO.P,Q1,1,G*%
%TO.N,Net-(A1-Pad5)*%
X55000000Y-51500000D03*
D13*
%TO.P,Q1,2,D*%
%TO.N,Net-(J3-Pad2)*%
X55000000Y-48960000D03*
%TO.P,Q1,3,S*%
%TO.N,GND*%
X55000000Y-46420000D03*
%TD*%
D10*
%TO.P,VCC PEC,1,A*%
%TO.N,+3.3V*%
X45720000Y-83820000D03*
D11*
%TO.P,VCC PEC,2,C*%
%TO.N,Net-(J6-Pad1)*%
X45720000Y-86360000D03*
%TO.P,VCC PEC,3,B*%
%TO.N,+5V*%
X45720000Y-88900000D03*
%TD*%
D10*
%TO.P,VCC I2C,1,A*%
%TO.N,+3.3V*%
X40640000Y-83820000D03*
D11*
%TO.P,VCC I2C,2,C*%
%TO.N,Net-(J4-Pad1)*%
X40640000Y-86360000D03*
%TO.P,VCC I2C,3,B*%
%TO.N,+5V*%
X40640000Y-88900000D03*
%TD*%
D10*
%TO.P,PEC,1,Pin_1*%
%TO.N,Net-(J6-Pad1)*%
X69357000Y-95225000D03*
D11*
%TO.P,PEC,2,Pin_2*%
%TO.N,PEC*%
X71897000Y-95225000D03*
%TO.P,PEC,3,Pin_3*%
%TO.N,GND*%
X74437000Y-95225000D03*
%TD*%
%TO.P,Motor,4,Pin_4*%
%TO.N,M2B*%
X53594000Y-95250000D03*
%TO.P,Motor,3,Pin_3*%
%TO.N,M2A*%
X51054000Y-95250000D03*
%TO.P,Motor,2,Pin_2*%
%TO.N,M1A*%
X48514000Y-95250000D03*
D10*
%TO.P,Motor,1,Pin_1*%
%TO.N,M1B*%
X45974000Y-95250000D03*
%TD*%
D11*
%TO.P,I2C,4,Pin_4*%
%TO.N,GND*%
X65278000Y-95250000D03*
%TO.P,I2C,3,Pin_3*%
%TO.N,SDA*%
X62738000Y-95250000D03*
%TO.P,I2C,2,Pin_2*%
%TO.N,SCL*%
X60198000Y-95250000D03*
D10*
%TO.P,I2C,1,Pin_1*%
%TO.N,Net-(J4-Pad1)*%
X57658000Y-95250000D03*
%TD*%
%TO.P,Power,1,Pin_1*%
%TO.N,+12V*%
X37592000Y-79502000D03*
D11*
%TO.P,Power,2,Pin_2*%
%TO.N,Net-(J3-Pad2)*%
X37592000Y-76962000D03*
%TD*%
D14*
%TO.P,J1,0,PAD*%
%TO.N,GND*%
X47510000Y-39410331D03*
X72510000Y-39410331D03*
D15*
%TO.P,J1,1,1*%
%TO.N,SCL*%
X65550000Y-40830331D03*
D16*
%TO.P,J1,2,2*%
%TO.N,M2B*%
X62780000Y-40830331D03*
%TO.P,J1,3,3*%
%TO.N,M1A*%
X60010000Y-40830331D03*
%TO.P,J1,4,4*%
%TO.N,PEC*%
X57240000Y-40830331D03*
%TO.P,J1,5,5*%
%TO.N,GND*%
X54470000Y-40830331D03*
%TO.P,J1,6,6*%
%TO.N,SDA*%
X64165000Y-37990331D03*
%TO.P,J1,7,7*%
%TO.N,M2A*%
X61395000Y-37990331D03*
%TO.P,J1,8,8*%
%TO.N,M1B*%
X58625000Y-37990331D03*
%TO.P,J1,9,9*%
%TO.N,+12V*%
X55855000Y-37990331D03*
%TD*%
D17*
%TO.P,C3,1*%
%TO.N,+5V*%
X42883000Y-75692000D03*
%TO.P,C3,2*%
%TO.N,GND*%
X44958000Y-75692000D03*
%TD*%
D15*
%TO.P,C2,1*%
%TO.N,+5V*%
X38347349Y-70500000D03*
D16*
%TO.P,C2,2*%
%TO.N,GND*%
X40847349Y-70500000D03*
%TD*%
D15*
%TO.P,C1,1*%
%TO.N,+12V*%
X49784000Y-70500000D03*
D16*
%TO.P,C1,2*%
%TO.N,GND*%
X47284000Y-70500000D03*
%TD*%
D15*
%TO.P,A1,1,D1/TX*%
%TO.N,unconnected-(A1-Pad1)*%
X66890000Y-48450000D03*
D18*
%TO.P,A1,2,D0/RX*%
%TO.N,unconnected-(A1-Pad2)*%
X66890000Y-50990000D03*
%TO.P,A1,3,~{RESET}*%
%TO.N,unconnected-(A1-Pad3)*%
X66890000Y-53530000D03*
%TO.P,A1,4,GND*%
%TO.N,GND*%
X66890000Y-56070000D03*
%TO.P,A1,5,D2*%
%TO.N,Net-(A1-Pad5)*%
X66890000Y-58610000D03*
%TO.P,A1,6,D3*%
%TO.N,Net-(A1-Pad6)*%
X66890000Y-61150000D03*
%TO.P,A1,7,D4*%
%TO.N,Net-(A1-Pad7)*%
X66890000Y-63690000D03*
%TO.P,A1,8,D5*%
%TO.N,Net-(A1-Pad8)*%
X66890000Y-66230000D03*
%TO.P,A1,9,D6*%
%TO.N,Net-(A1-Pad9)*%
X66890000Y-68770000D03*
%TO.P,A1,10,D7*%
%TO.N,Net-(A1-Pad10)*%
X66890000Y-71310000D03*
%TO.P,A1,11,D8*%
%TO.N,Net-(A1-Pad11)*%
X66890000Y-73850000D03*
%TO.P,A1,12,D9*%
%TO.N,Net-(A1-Pad12)*%
X66890000Y-76390000D03*
%TO.P,A1,13,D10*%
%TO.N,Net-(A1-Pad13)*%
X66890000Y-78930000D03*
%TO.P,A1,14,D11*%
%TO.N,Net-(A1-Pad14)*%
X66890000Y-81470000D03*
%TO.P,A1,15,D12*%
%TO.N,Net-(A1-Pad15)*%
X66890000Y-84010000D03*
%TO.P,A1,16,D13*%
%TO.N,Net-(A1-Pad16)*%
X82130000Y-84010000D03*
%TO.P,A1,17,3V3*%
%TO.N,+3.3V*%
X82130000Y-81470000D03*
%TO.P,A1,18,AREF*%
%TO.N,unconnected-(A1-Pad18)*%
X82130000Y-78930000D03*
%TO.P,A1,19,A0*%
%TO.N,unconnected-(A1-Pad19)*%
X82130000Y-76390000D03*
%TO.P,A1,20,A1*%
%TO.N,Net-(A1-Pad20)*%
X82130000Y-73850000D03*
%TO.P,A1,21,A2*%
%TO.N,Net-(A1-Pad21)*%
X82130000Y-71310000D03*
%TO.P,A1,22,A3*%
%TO.N,Net-(A1-Pad22)*%
X82130000Y-68770000D03*
%TO.P,A1,23,A4*%
%TO.N,SDA*%
X82130000Y-66230000D03*
%TO.P,A1,24,A5*%
%TO.N,SCL*%
X82130000Y-63690000D03*
%TO.P,A1,25,A6*%
%TO.N,Net-(A1-Pad25)*%
X82130000Y-61150000D03*
%TO.P,A1,26,A7*%
%TO.N,Net-(A1-Pad26)*%
X82130000Y-58610000D03*
%TO.P,A1,27,+5V*%
%TO.N,+5V*%
X82130000Y-56070000D03*
%TO.P,A1,28,~{RESET}*%
%TO.N,unconnected-(A1-Pad28)*%
X82130000Y-53530000D03*
%TO.P,A1,29,GND*%
%TO.N,GND*%
X82130000Y-50990000D03*
%TO.P,A1,30,VIN*%
%TO.N,unconnected-(A1-Pad30)*%
X82130000Y-48450000D03*
%TD*%
D19*
%TO.N,GND*%
X77216000Y-74422000D03*
X80010000Y-79502000D03*
X57658000Y-48260000D03*
X43180000Y-87122000D03*
X43180000Y-85598000D03*
X64770000Y-79756000D03*
X64262000Y-77724000D03*
X63500000Y-88138000D03*
X63500000Y-69850000D03*
X63754000Y-75184000D03*
X63246000Y-66802000D03*
X61468000Y-68580000D03*
X71374000Y-75946000D03*
X71628000Y-69342000D03*
X71628000Y-64770000D03*
%TO.N,SDA*%
X80264000Y-58674000D03*
X76200000Y-72160000D03*
%TO.N,Net-(A1-Pad16)*%
X77347299Y-77093299D03*
%TO.N,Net-(A1-Pad22)*%
X80226500Y-70104000D03*
%TD*%
D20*
%TO.N,PEC*%
X57240000Y-37784340D02*
X57240000Y-40830331D01*
X58159009Y-36865331D02*
X57240000Y-37784340D01*
X77251331Y-36865331D02*
X58159009Y-36865331D01*
X83255000Y-42869000D02*
X77251331Y-36865331D01*
X83255000Y-84893000D02*
X83255000Y-42869000D01*
X76962000Y-91186000D02*
X83255000Y-84893000D01*
X71897000Y-95225000D02*
X75936000Y-91186000D01*
X75936000Y-91186000D02*
X76962000Y-91186000D01*
%TO.N,SCL*%
X75475500Y-70344500D02*
X82130000Y-63690000D01*
X75475500Y-80098810D02*
X75475500Y-70344500D01*
%TO.N,SDA*%
X62738000Y-95250000D02*
X62738000Y-93472000D01*
X62738000Y-93472000D02*
X76200000Y-80010000D01*
%TO.N,SCL*%
X72711811Y-82862499D02*
X75475500Y-80098810D01*
X72585501Y-82862499D02*
X72711811Y-82862499D01*
%TO.N,SDA*%
X76200000Y-80010000D02*
X76200000Y-72160000D01*
%TO.N,SCL*%
X60198000Y-95250000D02*
X72585501Y-82862499D01*
D21*
%TO.N,M2B*%
X50292000Y-91948000D02*
X53594000Y-95250000D01*
X50292000Y-75692000D02*
X50292000Y-91948000D01*
%TO.N,M2A*%
X49592499Y-93788499D02*
X51054000Y-95250000D01*
X49592499Y-75402257D02*
X49592499Y-93788499D01*
%TO.N,M1A*%
X48514000Y-75491512D02*
X48514000Y-95250000D01*
X60010000Y-63995512D02*
X48514000Y-75491512D01*
X60010000Y-40830331D02*
X60010000Y-63995512D01*
%TO.N,M1B*%
X58625000Y-64391268D02*
X58625000Y-37990331D01*
X47020000Y-94204000D02*
X47020000Y-75996268D01*
X45974000Y-95250000D02*
X47020000Y-94204000D01*
X47020000Y-75996268D02*
X58625000Y-64391268D01*
D20*
%TO.N,+5V*%
X38347349Y-72637349D02*
X38347349Y-70500000D01*
X41402000Y-75692000D02*
X38347349Y-72637349D01*
X42883000Y-75692000D02*
X41402000Y-75692000D01*
X35814000Y-75184000D02*
X35814000Y-84074000D01*
X38347349Y-72650651D02*
X35814000Y-75184000D01*
X35814000Y-84074000D02*
X40640000Y-88900000D01*
X38347349Y-70500000D02*
X38347349Y-72650651D01*
%TO.N,Net-(A1-Pad15)*%
X57658000Y-82042000D02*
X59023000Y-83407000D01*
X59023000Y-83407000D02*
X66287000Y-83407000D01*
X66287000Y-83407000D02*
X66890000Y-84010000D01*
%TO.N,Net-(A1-Pad7)*%
X64834000Y-63690000D02*
X66890000Y-63690000D01*
X57658000Y-70866000D02*
X64834000Y-63690000D01*
X57658000Y-71882000D02*
X57658000Y-70866000D01*
%TO.N,SDA*%
X76200000Y-70358000D02*
X80328000Y-66230000D01*
X76200000Y-72160000D02*
X76200000Y-70358000D01*
X80328000Y-66230000D02*
X82130000Y-66230000D01*
X64165000Y-41695331D02*
X64165000Y-37990331D01*
X64425000Y-41955331D02*
X64165000Y-41695331D01*
X66038604Y-41955331D02*
X64425000Y-41955331D01*
X80264000Y-56180727D02*
X66038604Y-41955331D01*
X80264000Y-58674000D02*
X80264000Y-56180727D01*
%TO.N,SCL*%
X81005000Y-62565000D02*
X81005000Y-56285331D01*
X82130000Y-63690000D02*
X81005000Y-62565000D01*
X81005000Y-56285331D02*
X65550000Y-40830331D01*
%TO.N,Net-(A1-Pad22)*%
X80796000Y-70104000D02*
X80226500Y-70104000D01*
X82130000Y-68770000D02*
X80796000Y-70104000D01*
%TO.N,Net-(A1-Pad16)*%
X77347299Y-79227299D02*
X77347299Y-77093299D01*
X82130000Y-84010000D02*
X77347299Y-79227299D01*
%TO.N,+5V*%
X51347349Y-57500000D02*
X55000000Y-57500000D01*
X38347349Y-70500000D02*
X51347349Y-57500000D01*
D21*
%TO.N,+12V*%
X55000000Y-65284000D02*
X49784000Y-70500000D01*
X55000000Y-62580000D02*
X55000000Y-65284000D01*
X56449500Y-61130500D02*
X55000000Y-62580000D01*
X56449500Y-45838565D02*
X56449500Y-61130500D01*
X55855000Y-45244065D02*
X56449500Y-45838565D01*
X55855000Y-37990331D02*
X55855000Y-45244065D01*
%TO.N,M2B*%
X62780000Y-63204000D02*
X50292000Y-75692000D01*
X62780000Y-40830331D02*
X62780000Y-63204000D01*
%TO.N,M2A*%
X61395000Y-63599756D02*
X49592499Y-75402257D01*
X61395000Y-37990331D02*
X61395000Y-63599756D01*
%TD*%
%TA.AperFunction,Conductor*%
%TO.N,GND*%
G36*
X84433621Y-30528502D02*
G01*
X84480114Y-30582158D01*
X84491500Y-30634500D01*
X84491500Y-99365500D01*
X84471498Y-99433621D01*
X84417842Y-99480114D01*
X84365500Y-99491500D01*
X35634500Y-99491500D01*
X35566379Y-99471498D01*
X35519886Y-99417842D01*
X35508500Y-99365500D01*
X35508500Y-95132703D01*
X37890743Y-95132703D01*
X37928268Y-95417734D01*
X38004129Y-95695036D01*
X38005813Y-95698984D01*
X38114173Y-95953028D01*
X38116923Y-95959476D01*
X38161345Y-96033699D01*
X38262001Y-96201883D01*
X38264561Y-96206161D01*
X38444313Y-96430528D01*
X38553960Y-96534579D01*
X38631857Y-96608500D01*
X38652851Y-96628423D01*
X38886317Y-96796186D01*
X38890112Y-96798195D01*
X38890113Y-96798196D01*
X38911869Y-96809715D01*
X39140392Y-96930712D01*
X39410373Y-97029511D01*
X39691264Y-97090755D01*
X39719841Y-97093004D01*
X39914282Y-97108307D01*
X39914291Y-97108307D01*
X39916739Y-97108500D01*
X40072271Y-97108500D01*
X40074407Y-97108354D01*
X40074418Y-97108354D01*
X40282548Y-97094165D01*
X40282554Y-97094164D01*
X40286825Y-97093873D01*
X40291020Y-97093004D01*
X40291022Y-97093004D01*
X40427583Y-97064724D01*
X40568342Y-97035574D01*
X40839343Y-96939607D01*
X41094812Y-96807750D01*
X41098313Y-96805289D01*
X41098317Y-96805287D01*
X41212418Y-96725095D01*
X41330023Y-96642441D01*
X41423468Y-96555606D01*
X41537479Y-96449661D01*
X41537481Y-96449658D01*
X41540622Y-96446740D01*
X41722713Y-96224268D01*
X41872927Y-95979142D01*
X41895408Y-95927930D01*
X41986757Y-95719830D01*
X41988483Y-95715898D01*
X42067244Y-95439406D01*
X42107751Y-95154784D01*
X42107845Y-95136951D01*
X42109235Y-94871583D01*
X42109235Y-94871576D01*
X42109257Y-94867297D01*
X42101204Y-94806124D01*
X42075461Y-94610590D01*
X42071732Y-94582266D01*
X41995871Y-94304964D01*
X41916038Y-94117800D01*
X41884763Y-94044476D01*
X41884761Y-94044472D01*
X41883077Y-94040524D01*
X41795367Y-93893972D01*
X41737643Y-93797521D01*
X41737640Y-93797517D01*
X41735439Y-93793839D01*
X41555687Y-93569472D01*
X41347149Y-93371577D01*
X41113683Y-93203814D01*
X41091843Y-93192250D01*
X41068654Y-93179972D01*
X40859608Y-93069288D01*
X40589627Y-92970489D01*
X40308736Y-92909245D01*
X40277685Y-92906801D01*
X40085718Y-92891693D01*
X40085709Y-92891693D01*
X40083261Y-92891500D01*
X39927729Y-92891500D01*
X39925593Y-92891646D01*
X39925582Y-92891646D01*
X39717452Y-92905835D01*
X39717446Y-92905836D01*
X39713175Y-92906127D01*
X39708980Y-92906996D01*
X39708978Y-92906996D01*
X39572417Y-92935276D01*
X39431658Y-92964426D01*
X39160657Y-93060393D01*
X38905188Y-93192250D01*
X38901687Y-93194711D01*
X38901683Y-93194713D01*
X38787582Y-93274905D01*
X38669977Y-93357559D01*
X38654892Y-93371577D01*
X38544330Y-93474318D01*
X38459378Y-93553260D01*
X38277287Y-93775732D01*
X38127073Y-94020858D01*
X38125347Y-94024791D01*
X38125346Y-94024792D01*
X38085924Y-94114598D01*
X38011517Y-94284102D01*
X38010342Y-94288229D01*
X38010341Y-94288230D01*
X37981717Y-94388717D01*
X37932756Y-94560594D01*
X37926686Y-94603247D01*
X37897813Y-94806124D01*
X37892249Y-94845216D01*
X37892227Y-94849505D01*
X37892226Y-94849512D01*
X37890765Y-95128417D01*
X37890743Y-95132703D01*
X35508500Y-95132703D01*
X35508500Y-84968594D01*
X35528502Y-84900473D01*
X35582158Y-84853980D01*
X35652432Y-84843876D01*
X35717012Y-84873370D01*
X35723595Y-84879499D01*
X39289778Y-88445682D01*
X39323804Y-88507994D01*
X39322100Y-88568448D01*
X39300989Y-88644570D01*
X39300441Y-88649700D01*
X39300440Y-88649704D01*
X39296933Y-88682522D01*
X39277251Y-88866695D01*
X39277548Y-88871848D01*
X39277548Y-88871851D01*
X39283011Y-88966590D01*
X39290110Y-89089715D01*
X39291247Y-89094761D01*
X39291248Y-89094767D01*
X39312275Y-89188069D01*
X39339222Y-89307639D01*
X39423266Y-89514616D01*
X39539987Y-89705088D01*
X39686250Y-89873938D01*
X39858126Y-90016632D01*
X40051000Y-90129338D01*
X40259692Y-90209030D01*
X40264760Y-90210061D01*
X40264763Y-90210062D01*
X40372012Y-90231882D01*
X40478597Y-90253567D01*
X40483772Y-90253757D01*
X40483774Y-90253757D01*
X40696673Y-90261564D01*
X40696677Y-90261564D01*
X40701837Y-90261753D01*
X40706957Y-90261097D01*
X40706959Y-90261097D01*
X40918288Y-90234025D01*
X40918289Y-90234025D01*
X40923416Y-90233368D01*
X40928369Y-90231882D01*
X41132429Y-90170661D01*
X41132434Y-90170659D01*
X41137384Y-90169174D01*
X41337994Y-90070896D01*
X41519860Y-89941173D01*
X41678096Y-89783489D01*
X41715161Y-89731908D01*
X41805435Y-89606277D01*
X41808453Y-89602077D01*
X41907430Y-89401811D01*
X41972370Y-89188069D01*
X42001529Y-88966590D01*
X42001611Y-88963240D01*
X42003074Y-88903365D01*
X42003074Y-88903361D01*
X42003156Y-88900000D01*
X41984852Y-88677361D01*
X41930431Y-88460702D01*
X41841354Y-88255840D01*
X41801906Y-88194862D01*
X41722822Y-88072617D01*
X41722820Y-88072614D01*
X41720014Y-88068277D01*
X41569670Y-87903051D01*
X41565619Y-87899852D01*
X41565615Y-87899848D01*
X41398414Y-87767800D01*
X41398410Y-87767798D01*
X41394359Y-87764598D01*
X41353053Y-87741796D01*
X41303084Y-87691364D01*
X41288312Y-87621921D01*
X41313428Y-87555516D01*
X41340780Y-87528909D01*
X41384603Y-87497650D01*
X41519860Y-87401173D01*
X41678096Y-87243489D01*
X41715161Y-87191908D01*
X41805435Y-87066277D01*
X41808453Y-87062077D01*
X41907430Y-86861811D01*
X41960323Y-86687720D01*
X41970865Y-86653023D01*
X41970865Y-86653021D01*
X41972370Y-86648069D01*
X42001529Y-86426590D01*
X42001611Y-86423240D01*
X42003074Y-86363365D01*
X42003074Y-86363361D01*
X42003156Y-86360000D01*
X41984852Y-86137361D01*
X41930431Y-85920702D01*
X41841354Y-85715840D01*
X41801906Y-85654862D01*
X41722822Y-85532617D01*
X41722820Y-85532614D01*
X41720014Y-85528277D01*
X41716532Y-85524450D01*
X41572798Y-85366488D01*
X41541746Y-85302642D01*
X41550141Y-85232143D01*
X41595317Y-85177375D01*
X41621761Y-85163706D01*
X41728297Y-85123767D01*
X41736705Y-85120615D01*
X41853261Y-85033261D01*
X41940615Y-84916705D01*
X41991745Y-84780316D01*
X41998500Y-84718134D01*
X41998500Y-82921866D01*
X41991745Y-82859684D01*
X41940615Y-82723295D01*
X41853261Y-82606739D01*
X41736705Y-82519385D01*
X41600316Y-82468255D01*
X41538134Y-82461500D01*
X39741866Y-82461500D01*
X39679684Y-82468255D01*
X39543295Y-82519385D01*
X39426739Y-82606739D01*
X39339385Y-82723295D01*
X39288255Y-82859684D01*
X39281500Y-82921866D01*
X39281500Y-84718134D01*
X39288255Y-84780316D01*
X39339385Y-84916705D01*
X39426739Y-85033261D01*
X39543295Y-85120615D01*
X39551704Y-85123767D01*
X39551705Y-85123768D01*
X39660451Y-85164535D01*
X39717216Y-85207176D01*
X39741916Y-85273738D01*
X39726709Y-85343087D01*
X39707316Y-85369568D01*
X39612166Y-85469137D01*
X39580629Y-85502138D01*
X39454743Y-85686680D01*
X39439003Y-85720590D01*
X39378402Y-85851144D01*
X39360688Y-85889305D01*
X39300989Y-86104570D01*
X39277251Y-86326695D01*
X39277548Y-86331851D01*
X39277422Y-86337024D01*
X39275914Y-86336987D01*
X39261410Y-86399485D01*
X39210518Y-86448988D01*
X39140942Y-86463118D01*
X39074771Y-86437389D01*
X39062574Y-86426670D01*
X37881615Y-85245710D01*
X36484405Y-83848500D01*
X36450379Y-83786188D01*
X36447500Y-83759405D01*
X36447500Y-80966496D01*
X36467502Y-80898375D01*
X36521158Y-80851882D01*
X36591432Y-80841778D01*
X36617729Y-80848514D01*
X36624282Y-80850971D01*
X36624288Y-80850973D01*
X36631684Y-80853745D01*
X36693866Y-80860500D01*
X38490134Y-80860500D01*
X38552316Y-80853745D01*
X38688705Y-80802615D01*
X38805261Y-80715261D01*
X38892615Y-80598705D01*
X38943745Y-80462316D01*
X38950500Y-80400134D01*
X38950500Y-78603866D01*
X38943745Y-78541684D01*
X38892615Y-78405295D01*
X38805261Y-78288739D01*
X38688705Y-78201385D01*
X38661905Y-78191338D01*
X38570203Y-78156960D01*
X38513439Y-78114318D01*
X38488739Y-78047756D01*
X38503947Y-77978408D01*
X38525493Y-77949727D01*
X38626435Y-77849137D01*
X38630096Y-77845489D01*
X38665785Y-77795823D01*
X38757435Y-77668277D01*
X38760453Y-77664077D01*
X38781320Y-77621857D01*
X38857136Y-77468453D01*
X38857137Y-77468451D01*
X38859430Y-77463811D01*
X38924370Y-77250069D01*
X38953529Y-77028590D01*
X38955156Y-76962000D01*
X38936852Y-76739361D01*
X38882431Y-76522702D01*
X38793354Y-76317840D01*
X38728990Y-76218348D01*
X38674822Y-76134617D01*
X38674820Y-76134614D01*
X38672014Y-76130277D01*
X38521670Y-75965051D01*
X38517619Y-75961852D01*
X38517615Y-75961848D01*
X38350414Y-75829800D01*
X38350410Y-75829798D01*
X38346359Y-75826598D01*
X38150789Y-75718638D01*
X38145920Y-75716914D01*
X38145916Y-75716912D01*
X37945087Y-75645795D01*
X37945083Y-75645794D01*
X37940212Y-75644069D01*
X37935119Y-75643162D01*
X37935116Y-75643161D01*
X37725373Y-75605800D01*
X37725367Y-75605799D01*
X37720284Y-75604894D01*
X37646452Y-75603992D01*
X37502081Y-75602228D01*
X37502079Y-75602228D01*
X37496911Y-75602165D01*
X37276091Y-75635955D01*
X37063756Y-75705357D01*
X36865607Y-75808507D01*
X36861474Y-75811610D01*
X36861471Y-75811612D01*
X36691100Y-75939530D01*
X36686965Y-75942635D01*
X36682153Y-75947671D01*
X36664594Y-75966045D01*
X36603070Y-76001475D01*
X36532157Y-75998018D01*
X36474371Y-75956772D01*
X36448057Y-75890832D01*
X36447500Y-75878994D01*
X36447500Y-75498594D01*
X36467502Y-75430473D01*
X36484405Y-75409499D01*
X38264905Y-73628999D01*
X38327217Y-73594973D01*
X38398032Y-73600038D01*
X38443095Y-73628999D01*
X39673452Y-74859357D01*
X40898348Y-76084253D01*
X40905888Y-76092539D01*
X40910000Y-76099018D01*
X40915777Y-76104443D01*
X40959651Y-76145643D01*
X40962493Y-76148398D01*
X40982230Y-76168135D01*
X40985427Y-76170615D01*
X40994447Y-76178318D01*
X41026679Y-76208586D01*
X41033625Y-76212405D01*
X41033628Y-76212407D01*
X41044434Y-76218348D01*
X41060953Y-76229199D01*
X41076959Y-76241614D01*
X41084228Y-76244759D01*
X41084232Y-76244762D01*
X41117537Y-76259174D01*
X41128187Y-76264391D01*
X41166940Y-76285695D01*
X41174615Y-76287666D01*
X41174616Y-76287666D01*
X41186562Y-76290733D01*
X41205266Y-76297137D01*
X41210718Y-76299496D01*
X41223855Y-76305181D01*
X41231678Y-76306420D01*
X41231688Y-76306423D01*
X41267524Y-76312099D01*
X41279144Y-76314505D01*
X41314289Y-76323528D01*
X41321970Y-76325500D01*
X41342224Y-76325500D01*
X41361934Y-76327051D01*
X41381943Y-76330220D01*
X41389835Y-76329474D01*
X41425961Y-76326059D01*
X41437819Y-76325500D01*
X41707962Y-76325500D01*
X41776083Y-76345502D01*
X41822576Y-76399158D01*
X41827486Y-76411624D01*
X41853950Y-76490946D01*
X41947022Y-76641348D01*
X42072197Y-76766305D01*
X42078427Y-76770145D01*
X42078428Y-76770146D01*
X42215788Y-76854816D01*
X42222762Y-76859115D01*
X42302505Y-76885564D01*
X42384111Y-76912632D01*
X42384113Y-76912632D01*
X42390639Y-76914797D01*
X42397475Y-76915497D01*
X42397478Y-76915498D01*
X42440531Y-76919909D01*
X42495100Y-76925500D01*
X43270900Y-76925500D01*
X43274146Y-76925163D01*
X43274150Y-76925163D01*
X43369808Y-76915238D01*
X43369812Y-76915237D01*
X43376666Y-76914526D01*
X43383202Y-76912345D01*
X43383204Y-76912345D01*
X43515306Y-76868272D01*
X43544446Y-76858550D01*
X43694848Y-76765478D01*
X43819805Y-76640303D01*
X43822602Y-76635765D01*
X43879853Y-76595176D01*
X43950776Y-76591946D01*
X44012187Y-76627572D01*
X44019562Y-76636068D01*
X44027598Y-76646207D01*
X44142329Y-76760739D01*
X44153740Y-76769751D01*
X44291743Y-76854816D01*
X44304924Y-76860963D01*
X44459210Y-76912138D01*
X44472586Y-76915005D01*
X44566938Y-76924672D01*
X44573354Y-76925000D01*
X44685885Y-76925000D01*
X44701124Y-76920525D01*
X44702329Y-76919135D01*
X44704000Y-76911452D01*
X44704000Y-75419885D01*
X45212000Y-75419885D01*
X45216475Y-75435124D01*
X45217865Y-75436329D01*
X45225548Y-75438000D01*
X46035384Y-75438000D01*
X46050623Y-75433525D01*
X46051828Y-75432135D01*
X46053499Y-75424452D01*
X46053499Y-75169905D01*
X46053162Y-75163386D01*
X46043243Y-75067794D01*
X46040351Y-75054400D01*
X45988912Y-74900216D01*
X45982739Y-74887038D01*
X45897437Y-74749193D01*
X45888401Y-74737792D01*
X45773671Y-74623261D01*
X45762260Y-74614249D01*
X45624257Y-74529184D01*
X45611076Y-74523037D01*
X45456790Y-74471862D01*
X45443414Y-74468995D01*
X45349062Y-74459328D01*
X45342645Y-74459000D01*
X45230115Y-74459000D01*
X45214876Y-74463475D01*
X45213671Y-74464865D01*
X45212000Y-74472548D01*
X45212000Y-75419885D01*
X44704000Y-75419885D01*
X44704000Y-74477116D01*
X44699525Y-74461877D01*
X44698135Y-74460672D01*
X44690452Y-74459001D01*
X44573405Y-74459001D01*
X44566886Y-74459338D01*
X44471294Y-74469257D01*
X44457900Y-74472149D01*
X44303716Y-74523588D01*
X44290538Y-74529761D01*
X44152693Y-74615063D01*
X44141292Y-74624099D01*
X44026762Y-74738828D01*
X44019706Y-74747762D01*
X43961788Y-74788823D01*
X43890865Y-74792053D01*
X43829454Y-74756426D01*
X43822654Y-74748593D01*
X43818978Y-74742652D01*
X43693803Y-74617695D01*
X43654706Y-74593595D01*
X43549468Y-74528725D01*
X43549466Y-74528724D01*
X43543238Y-74524885D01*
X43443815Y-74491908D01*
X43381889Y-74471368D01*
X43381887Y-74471368D01*
X43375361Y-74469203D01*
X43368525Y-74468503D01*
X43368522Y-74468502D01*
X43325469Y-74464091D01*
X43270900Y-74458500D01*
X42495100Y-74458500D01*
X42491854Y-74458837D01*
X42491850Y-74458837D01*
X42396192Y-74468762D01*
X42396188Y-74468763D01*
X42389334Y-74469474D01*
X42382798Y-74471655D01*
X42382796Y-74471655D01*
X42264095Y-74511257D01*
X42221554Y-74525450D01*
X42071152Y-74618522D01*
X41946195Y-74743697D01*
X41853385Y-74894262D01*
X41829698Y-74965677D01*
X41789268Y-75024038D01*
X41723704Y-75051275D01*
X41653823Y-75038742D01*
X41621010Y-75015106D01*
X39017754Y-72411849D01*
X38983728Y-72349537D01*
X38980849Y-72322754D01*
X38980849Y-71934500D01*
X39000851Y-71866379D01*
X39054507Y-71819886D01*
X39106849Y-71808500D01*
X39195483Y-71808500D01*
X39257665Y-71801745D01*
X39394054Y-71750615D01*
X39510610Y-71663261D01*
X39568468Y-71586062D01*
X40125842Y-71586062D01*
X40135138Y-71598077D01*
X40186343Y-71633931D01*
X40195838Y-71639414D01*
X40393296Y-71731490D01*
X40403588Y-71735236D01*
X40614037Y-71791625D01*
X40624830Y-71793528D01*
X40841874Y-71812517D01*
X40852824Y-71812517D01*
X41069868Y-71793528D01*
X41080661Y-71791625D01*
X41291110Y-71735236D01*
X41301402Y-71731490D01*
X41498860Y-71639414D01*
X41508355Y-71633931D01*
X41560397Y-71597491D01*
X41568773Y-71587012D01*
X41568274Y-71586062D01*
X46562493Y-71586062D01*
X46571789Y-71598077D01*
X46622994Y-71633931D01*
X46632489Y-71639414D01*
X46829947Y-71731490D01*
X46840239Y-71735236D01*
X47050688Y-71791625D01*
X47061481Y-71793528D01*
X47278525Y-71812517D01*
X47289475Y-71812517D01*
X47506519Y-71793528D01*
X47517312Y-71791625D01*
X47727761Y-71735236D01*
X47738053Y-71731490D01*
X47935511Y-71639414D01*
X47945006Y-71633931D01*
X47997048Y-71597491D01*
X48005424Y-71587012D01*
X47998356Y-71573566D01*
X47296812Y-70872022D01*
X47282868Y-70864408D01*
X47281035Y-70864539D01*
X47274420Y-70868790D01*
X46568923Y-71574287D01*
X46562493Y-71586062D01*
X41568274Y-71586062D01*
X41561705Y-71573566D01*
X40860161Y-70872022D01*
X40846217Y-70864408D01*
X40844384Y-70864539D01*
X40837769Y-70868790D01*
X40132272Y-71574287D01*
X40125842Y-71586062D01*
X39568468Y-71586062D01*
X39597964Y-71546705D01*
X39649094Y-71410316D01*
X39655849Y-71348134D01*
X39655849Y-71344815D01*
X39679502Y-71277890D01*
X39725505Y-71242196D01*
X39724490Y-71240266D01*
X39735349Y-71234558D01*
X39735594Y-71234368D01*
X39735752Y-71234347D01*
X39773783Y-71214356D01*
X40487007Y-70501132D01*
X41211757Y-70501132D01*
X41211888Y-70502965D01*
X41216139Y-70509580D01*
X41921636Y-71215077D01*
X41933411Y-71221507D01*
X41945426Y-71212211D01*
X41981280Y-71161006D01*
X41986763Y-71151511D01*
X42078839Y-70954053D01*
X42082585Y-70943761D01*
X42138974Y-70733312D01*
X42140877Y-70722519D01*
X42159866Y-70505475D01*
X45971483Y-70505475D01*
X45990472Y-70722519D01*
X45992375Y-70733312D01*
X46048764Y-70943761D01*
X46052510Y-70954053D01*
X46144586Y-71151511D01*
X46150069Y-71161006D01*
X46186509Y-71213048D01*
X46196988Y-71221424D01*
X46210434Y-71214356D01*
X46911978Y-70512812D01*
X46919592Y-70498868D01*
X46919461Y-70497035D01*
X46915210Y-70490420D01*
X46209713Y-69784923D01*
X46197938Y-69778493D01*
X46185923Y-69787789D01*
X46150069Y-69838994D01*
X46144586Y-69848489D01*
X46052510Y-70045947D01*
X46048764Y-70056239D01*
X45992375Y-70266688D01*
X45990472Y-70277481D01*
X45971483Y-70494525D01*
X45971483Y-70505475D01*
X42159866Y-70505475D01*
X42159866Y-70494525D01*
X42140877Y-70277481D01*
X42138974Y-70266688D01*
X42082585Y-70056239D01*
X42078839Y-70045947D01*
X41986763Y-69848489D01*
X41981280Y-69838994D01*
X41944840Y-69786952D01*
X41934361Y-69778576D01*
X41920915Y-69785644D01*
X41219371Y-70487188D01*
X41211757Y-70501132D01*
X40487007Y-70501132D01*
X41562426Y-69425713D01*
X41568856Y-69413938D01*
X41568121Y-69412988D01*
X46562576Y-69412988D01*
X46569644Y-69426434D01*
X47271188Y-70127978D01*
X47285132Y-70135592D01*
X47286965Y-70135461D01*
X47293580Y-70131210D01*
X47999077Y-69425713D01*
X48005507Y-69413938D01*
X47996211Y-69401923D01*
X47945006Y-69366069D01*
X47935511Y-69360586D01*
X47738053Y-69268510D01*
X47727761Y-69264764D01*
X47517312Y-69208375D01*
X47506519Y-69206472D01*
X47289475Y-69187483D01*
X47278525Y-69187483D01*
X47061481Y-69206472D01*
X47050688Y-69208375D01*
X46840239Y-69264764D01*
X46829947Y-69268510D01*
X46632489Y-69360586D01*
X46622994Y-69366069D01*
X46570952Y-69402509D01*
X46562576Y-69412988D01*
X41568121Y-69412988D01*
X41559560Y-69401923D01*
X41508355Y-69366069D01*
X41498860Y-69360586D01*
X41301402Y-69268510D01*
X41291110Y-69264764D01*
X41080661Y-69208375D01*
X41069869Y-69206472D01*
X40848847Y-69187135D01*
X40782729Y-69161272D01*
X40741090Y-69103768D01*
X40737149Y-69032881D01*
X40770734Y-68972519D01*
X51572848Y-58170405D01*
X51635160Y-58136379D01*
X51661943Y-58133500D01*
X53558629Y-58133500D01*
X53626750Y-58153502D01*
X53670392Y-58201320D01*
X53711975Y-58281200D01*
X53715078Y-58285333D01*
X53715080Y-58285336D01*
X53791707Y-58387393D01*
X53856223Y-58473320D01*
X53859961Y-58476892D01*
X54004980Y-58615475D01*
X54029912Y-58639301D01*
X54067351Y-58664840D01*
X54112352Y-58719751D01*
X54120523Y-58790275D01*
X54089269Y-58854022D01*
X54064790Y-58874716D01*
X54062674Y-58876085D01*
X54054502Y-58882378D01*
X53884520Y-59037050D01*
X53877494Y-59044583D01*
X53735055Y-59224944D01*
X53729350Y-59233531D01*
X53618286Y-59434722D01*
X53614056Y-59444134D01*
X53537341Y-59660768D01*
X53534707Y-59670739D01*
X53517353Y-59768163D01*
X53518813Y-59781460D01*
X53533370Y-59786000D01*
X55128000Y-59786000D01*
X55196121Y-59806002D01*
X55242614Y-59859658D01*
X55254000Y-59912000D01*
X55254000Y-60168000D01*
X55233998Y-60236121D01*
X55180342Y-60282614D01*
X55128000Y-60294000D01*
X53531904Y-60294000D01*
X53518560Y-60297918D01*
X53516573Y-60312194D01*
X53526110Y-60374515D01*
X53528499Y-60384543D01*
X53599898Y-60602988D01*
X53603895Y-60612497D01*
X53710011Y-60816344D01*
X53715500Y-60825061D01*
X53828902Y-60976099D01*
X53853807Y-61042584D01*
X53838814Y-61111980D01*
X53788684Y-61162253D01*
X53772375Y-61169732D01*
X53753295Y-61176885D01*
X53636739Y-61264239D01*
X53549385Y-61380795D01*
X53498255Y-61517184D01*
X53491500Y-61579366D01*
X53491500Y-63580634D01*
X53498255Y-63642816D01*
X53549385Y-63779205D01*
X53636739Y-63895761D01*
X53753295Y-63983115D01*
X53889684Y-64034245D01*
X53951866Y-64041000D01*
X54115500Y-64041000D01*
X54183621Y-64061002D01*
X54230114Y-64114658D01*
X54241500Y-64167000D01*
X54241500Y-64917629D01*
X54221498Y-64985750D01*
X54204595Y-65006724D01*
X50056724Y-69154595D01*
X49994412Y-69188621D01*
X49967629Y-69191500D01*
X48935866Y-69191500D01*
X48873684Y-69198255D01*
X48737295Y-69249385D01*
X48620739Y-69336739D01*
X48533385Y-69453295D01*
X48482255Y-69589684D01*
X48475500Y-69651866D01*
X48475500Y-69655185D01*
X48451847Y-69722110D01*
X48405844Y-69757804D01*
X48406859Y-69759734D01*
X48396000Y-69765442D01*
X48395755Y-69765632D01*
X48395597Y-69765653D01*
X48357566Y-69785644D01*
X47656022Y-70487188D01*
X47648408Y-70501132D01*
X47648539Y-70502965D01*
X47652790Y-70509580D01*
X48358287Y-71215077D01*
X48400029Y-71237871D01*
X48410029Y-71240047D01*
X48460227Y-71290253D01*
X48475451Y-71343814D01*
X48475500Y-71344717D01*
X48475500Y-71348134D01*
X48482255Y-71410316D01*
X48533385Y-71546705D01*
X48620739Y-71663261D01*
X48737295Y-71750615D01*
X48873684Y-71801745D01*
X48935866Y-71808500D01*
X49830897Y-71808500D01*
X49899018Y-71828502D01*
X49945511Y-71882158D01*
X49955615Y-71952432D01*
X49926121Y-72017012D01*
X49919992Y-72023595D01*
X46531089Y-75412498D01*
X46516677Y-75424884D01*
X46505082Y-75433417D01*
X46505077Y-75433422D01*
X46499182Y-75437760D01*
X46494443Y-75443338D01*
X46494440Y-75443341D01*
X46464965Y-75478036D01*
X46458035Y-75485552D01*
X46452340Y-75491247D01*
X46450060Y-75494129D01*
X46434719Y-75513519D01*
X46431928Y-75516923D01*
X46403648Y-75550211D01*
X46384667Y-75572553D01*
X46381339Y-75579069D01*
X46377972Y-75584118D01*
X46374805Y-75589247D01*
X46370266Y-75594984D01*
X46339345Y-75661143D01*
X46337442Y-75665037D01*
X46304231Y-75730076D01*
X46302492Y-75737184D01*
X46300393Y-75742827D01*
X46298476Y-75748590D01*
X46295378Y-75755218D01*
X46293888Y-75762380D01*
X46293888Y-75762381D01*
X46280514Y-75826680D01*
X46279543Y-75830970D01*
X46264436Y-75892707D01*
X46228816Y-75954121D01*
X46165647Y-75986528D01*
X46094986Y-75979639D01*
X46059534Y-75957982D01*
X46047635Y-75947671D01*
X46039952Y-75946000D01*
X45230115Y-75946000D01*
X45214876Y-75950475D01*
X45213671Y-75951865D01*
X45212000Y-75959548D01*
X45212000Y-76906884D01*
X45216475Y-76922123D01*
X45217865Y-76923328D01*
X45225548Y-76924999D01*
X45342595Y-76924999D01*
X45349114Y-76924662D01*
X45444706Y-76914743D01*
X45458100Y-76911851D01*
X45612284Y-76860412D01*
X45625462Y-76854239D01*
X45763307Y-76768937D01*
X45774708Y-76759901D01*
X45889239Y-76645171D01*
X45898251Y-76633760D01*
X45983316Y-76495757D01*
X45989464Y-76482574D01*
X46015907Y-76402851D01*
X46056338Y-76344491D01*
X46121902Y-76317254D01*
X46191784Y-76329788D01*
X46243795Y-76378112D01*
X46261500Y-76442518D01*
X46261500Y-82335500D01*
X46241498Y-82403621D01*
X46187842Y-82450114D01*
X46135500Y-82461500D01*
X44821866Y-82461500D01*
X44759684Y-82468255D01*
X44623295Y-82519385D01*
X44506739Y-82606739D01*
X44419385Y-82723295D01*
X44368255Y-82859684D01*
X44361500Y-82921866D01*
X44361500Y-84718134D01*
X44368255Y-84780316D01*
X44419385Y-84916705D01*
X44506739Y-85033261D01*
X44623295Y-85120615D01*
X44631704Y-85123767D01*
X44631705Y-85123768D01*
X44740451Y-85164535D01*
X44797216Y-85207176D01*
X44821916Y-85273738D01*
X44806709Y-85343087D01*
X44787316Y-85369568D01*
X44692166Y-85469137D01*
X44660629Y-85502138D01*
X44534743Y-85686680D01*
X44519003Y-85720590D01*
X44458402Y-85851144D01*
X44440688Y-85889305D01*
X44380989Y-86104570D01*
X44357251Y-86326695D01*
X44357548Y-86331848D01*
X44357548Y-86331851D01*
X44363011Y-86426590D01*
X44370110Y-86549715D01*
X44371247Y-86554761D01*
X44371248Y-86554767D01*
X44392275Y-86648069D01*
X44419222Y-86767639D01*
X44503266Y-86974616D01*
X44619987Y-87165088D01*
X44766250Y-87333938D01*
X44938126Y-87476632D01*
X45008595Y-87517811D01*
X45011445Y-87519476D01*
X45060169Y-87571114D01*
X45073240Y-87640897D01*
X45046509Y-87706669D01*
X45006055Y-87740027D01*
X44993607Y-87746507D01*
X44989474Y-87749610D01*
X44989471Y-87749612D01*
X44884699Y-87828277D01*
X44814965Y-87880635D01*
X44811393Y-87884373D01*
X44692166Y-88009137D01*
X44660629Y-88042138D01*
X44534743Y-88226680D01*
X44519003Y-88260590D01*
X44458402Y-88391144D01*
X44440688Y-88429305D01*
X44380989Y-88644570D01*
X44357251Y-88866695D01*
X44357548Y-88871848D01*
X44357548Y-88871851D01*
X44363011Y-88966590D01*
X44370110Y-89089715D01*
X44371247Y-89094761D01*
X44371248Y-89094767D01*
X44392275Y-89188069D01*
X44419222Y-89307639D01*
X44503266Y-89514616D01*
X44619987Y-89705088D01*
X44766250Y-89873938D01*
X44938126Y-90016632D01*
X45131000Y-90129338D01*
X45339692Y-90209030D01*
X45344760Y-90210061D01*
X45344763Y-90210062D01*
X45452012Y-90231882D01*
X45558597Y-90253567D01*
X45563772Y-90253757D01*
X45563774Y-90253757D01*
X45776673Y-90261564D01*
X45776677Y-90261564D01*
X45781837Y-90261753D01*
X45786957Y-90261097D01*
X45786959Y-90261097D01*
X45998288Y-90234025D01*
X45998289Y-90234025D01*
X46003416Y-90233368D01*
X46008367Y-90231883D01*
X46008370Y-90231882D01*
X46099293Y-90204604D01*
X46170288Y-90204188D01*
X46230239Y-90242220D01*
X46260110Y-90306627D01*
X46261500Y-90325290D01*
X46261500Y-93765500D01*
X46241498Y-93833621D01*
X46187842Y-93880114D01*
X46135500Y-93891500D01*
X45075866Y-93891500D01*
X45013684Y-93898255D01*
X44877295Y-93949385D01*
X44760739Y-94036739D01*
X44673385Y-94153295D01*
X44622255Y-94289684D01*
X44615500Y-94351866D01*
X44615500Y-96148134D01*
X44622255Y-96210316D01*
X44673385Y-96346705D01*
X44760739Y-96463261D01*
X44877295Y-96550615D01*
X45013684Y-96601745D01*
X45075866Y-96608500D01*
X46872134Y-96608500D01*
X46934316Y-96601745D01*
X47070705Y-96550615D01*
X47187261Y-96463261D01*
X47274615Y-96346705D01*
X47296799Y-96287529D01*
X47318598Y-96229382D01*
X47361240Y-96172618D01*
X47427802Y-96147918D01*
X47497150Y-96163126D01*
X47531817Y-96191114D01*
X47560250Y-96223938D01*
X47732126Y-96366632D01*
X47925000Y-96479338D01*
X47929825Y-96481180D01*
X47929826Y-96481181D01*
X48002612Y-96508975D01*
X48133692Y-96559030D01*
X48138760Y-96560061D01*
X48138763Y-96560062D01*
X48233862Y-96579410D01*
X48352597Y-96603567D01*
X48357772Y-96603757D01*
X48357774Y-96603757D01*
X48570673Y-96611564D01*
X48570677Y-96611564D01*
X48575837Y-96611753D01*
X48580957Y-96611097D01*
X48580959Y-96611097D01*
X48792288Y-96584025D01*
X48792289Y-96584025D01*
X48797416Y-96583368D01*
X48802366Y-96581883D01*
X49006429Y-96520661D01*
X49006434Y-96520659D01*
X49011384Y-96519174D01*
X49211994Y-96420896D01*
X49393860Y-96291173D01*
X49416320Y-96268792D01*
X49494268Y-96191115D01*
X49552096Y-96133489D01*
X49567673Y-96111812D01*
X49682453Y-95952077D01*
X49683776Y-95953028D01*
X49730645Y-95909857D01*
X49800580Y-95897625D01*
X49866026Y-95925144D01*
X49893875Y-95956994D01*
X49953987Y-96055088D01*
X50100250Y-96223938D01*
X50272126Y-96366632D01*
X50465000Y-96479338D01*
X50469825Y-96481180D01*
X50469826Y-96481181D01*
X50542612Y-96508975D01*
X50673692Y-96559030D01*
X50678760Y-96560061D01*
X50678763Y-96560062D01*
X50773862Y-96579410D01*
X50892597Y-96603567D01*
X50897772Y-96603757D01*
X50897774Y-96603757D01*
X51110673Y-96611564D01*
X51110677Y-96611564D01*
X51115837Y-96611753D01*
X51120957Y-96611097D01*
X51120959Y-96611097D01*
X51332288Y-96584025D01*
X51332289Y-96584025D01*
X51337416Y-96583368D01*
X51342366Y-96581883D01*
X51546429Y-96520661D01*
X51546434Y-96520659D01*
X51551384Y-96519174D01*
X51751994Y-96420896D01*
X51933860Y-96291173D01*
X51956320Y-96268792D01*
X52034268Y-96191115D01*
X52092096Y-96133489D01*
X52107673Y-96111812D01*
X52222453Y-95952077D01*
X52223776Y-95953028D01*
X52270645Y-95909857D01*
X52340580Y-95897625D01*
X52406026Y-95925144D01*
X52433875Y-95956994D01*
X52493987Y-96055088D01*
X52640250Y-96223938D01*
X52812126Y-96366632D01*
X53005000Y-96479338D01*
X53009825Y-96481180D01*
X53009826Y-96481181D01*
X53082612Y-96508975D01*
X53213692Y-96559030D01*
X53218760Y-96560061D01*
X53218763Y-96560062D01*
X53313862Y-96579410D01*
X53432597Y-96603567D01*
X53437772Y-96603757D01*
X53437774Y-96603757D01*
X53650673Y-96611564D01*
X53650677Y-96611564D01*
X53655837Y-96611753D01*
X53660957Y-96611097D01*
X53660959Y-96611097D01*
X53872288Y-96584025D01*
X53872289Y-96584025D01*
X53877416Y-96583368D01*
X53882366Y-96581883D01*
X54086429Y-96520661D01*
X54086434Y-96520659D01*
X54091384Y-96519174D01*
X54291994Y-96420896D01*
X54473860Y-96291173D01*
X54496320Y-96268792D01*
X54574268Y-96191115D01*
X54632096Y-96133489D01*
X54647673Y-96111812D01*
X54759435Y-95956277D01*
X54762453Y-95952077D01*
X54772618Y-95931511D01*
X54859136Y-95756453D01*
X54859137Y-95756451D01*
X54861430Y-95751811D01*
X54926370Y-95538069D01*
X54955529Y-95316590D01*
X54957156Y-95250000D01*
X54938852Y-95027361D01*
X54884431Y-94810702D01*
X54795354Y-94605840D01*
X54674014Y-94418277D01*
X54523670Y-94253051D01*
X54519619Y-94249852D01*
X54519615Y-94249848D01*
X54352414Y-94117800D01*
X54352410Y-94117798D01*
X54348359Y-94114598D01*
X54343831Y-94112098D01*
X54265972Y-94069118D01*
X54152789Y-94006638D01*
X54147920Y-94004914D01*
X54147916Y-94004912D01*
X53947087Y-93933795D01*
X53947083Y-93933794D01*
X53942212Y-93932069D01*
X53937119Y-93931162D01*
X53937116Y-93931161D01*
X53727373Y-93893800D01*
X53727367Y-93893799D01*
X53722284Y-93892894D01*
X53651770Y-93892033D01*
X53504082Y-93890228D01*
X53504080Y-93890228D01*
X53498911Y-93890165D01*
X53464490Y-93895432D01*
X53395385Y-93906006D01*
X53325023Y-93896538D01*
X53287232Y-93870551D01*
X51087405Y-91670724D01*
X51053379Y-91608412D01*
X51050500Y-91581629D01*
X51050500Y-89628695D01*
X56295251Y-89628695D01*
X56295548Y-89633848D01*
X56295548Y-89633851D01*
X56307812Y-89846547D01*
X56308110Y-89851715D01*
X56309247Y-89856761D01*
X56309248Y-89856767D01*
X56328946Y-89944171D01*
X56357222Y-90069639D01*
X56411856Y-90204188D01*
X56423102Y-90231882D01*
X56441266Y-90276616D01*
X56492019Y-90359438D01*
X56555291Y-90462688D01*
X56557987Y-90467088D01*
X56704250Y-90635938D01*
X56876126Y-90778632D01*
X57069000Y-90891338D01*
X57277692Y-90971030D01*
X57282760Y-90972061D01*
X57282763Y-90972062D01*
X57390017Y-90993883D01*
X57496597Y-91015567D01*
X57501772Y-91015757D01*
X57501774Y-91015757D01*
X57714673Y-91023564D01*
X57714677Y-91023564D01*
X57719837Y-91023753D01*
X57724957Y-91023097D01*
X57724959Y-91023097D01*
X57936288Y-90996025D01*
X57936289Y-90996025D01*
X57941416Y-90995368D01*
X57946366Y-90993883D01*
X58150429Y-90932661D01*
X58150434Y-90932659D01*
X58155384Y-90931174D01*
X58355994Y-90832896D01*
X58537860Y-90703173D01*
X58554023Y-90687067D01*
X58657651Y-90583800D01*
X58696096Y-90545489D01*
X58755594Y-90462689D01*
X58826453Y-90364077D01*
X58827776Y-90365028D01*
X58874645Y-90321857D01*
X58944580Y-90309625D01*
X59010026Y-90337144D01*
X59037875Y-90368994D01*
X59097987Y-90467088D01*
X59244250Y-90635938D01*
X59416126Y-90778632D01*
X59609000Y-90891338D01*
X59817692Y-90971030D01*
X59822760Y-90972061D01*
X59822763Y-90972062D01*
X59930017Y-90993883D01*
X60036597Y-91015567D01*
X60041772Y-91015757D01*
X60041774Y-91015757D01*
X60254673Y-91023564D01*
X60254677Y-91023564D01*
X60259837Y-91023753D01*
X60264957Y-91023097D01*
X60264959Y-91023097D01*
X60476288Y-90996025D01*
X60476289Y-90996025D01*
X60481416Y-90995368D01*
X60486366Y-90993883D01*
X60690429Y-90932661D01*
X60690434Y-90932659D01*
X60695384Y-90931174D01*
X60895994Y-90832896D01*
X61077860Y-90703173D01*
X61094023Y-90687067D01*
X61197651Y-90583800D01*
X61236096Y-90545489D01*
X61295594Y-90462689D01*
X61363435Y-90368277D01*
X61366453Y-90364077D01*
X61387320Y-90321857D01*
X61463136Y-90168453D01*
X61463137Y-90168451D01*
X61465430Y-90163811D01*
X61530370Y-89950069D01*
X61559529Y-89728590D01*
X61561156Y-89662000D01*
X61542852Y-89439361D01*
X61488431Y-89222702D01*
X61399354Y-89017840D01*
X61320950Y-88896646D01*
X61280822Y-88834617D01*
X61280820Y-88834614D01*
X61278014Y-88830277D01*
X61127670Y-88665051D01*
X61123619Y-88661852D01*
X61123615Y-88661848D01*
X60956414Y-88529800D01*
X60956410Y-88529798D01*
X60952359Y-88526598D01*
X60911053Y-88503796D01*
X60861084Y-88453364D01*
X60846312Y-88383921D01*
X60871428Y-88317516D01*
X60898780Y-88290909D01*
X60954041Y-88251492D01*
X61077860Y-88163173D01*
X61236096Y-88005489D01*
X61295594Y-87922689D01*
X61363435Y-87828277D01*
X61366453Y-87824077D01*
X61387320Y-87781857D01*
X61463136Y-87628453D01*
X61463137Y-87628451D01*
X61465430Y-87623811D01*
X61530370Y-87410069D01*
X61559529Y-87188590D01*
X61561156Y-87122000D01*
X61542852Y-86899361D01*
X61488431Y-86682702D01*
X61399354Y-86477840D01*
X61308232Y-86336987D01*
X61280822Y-86294617D01*
X61280820Y-86294614D01*
X61278014Y-86290277D01*
X61127670Y-86125051D01*
X61123619Y-86121852D01*
X61123615Y-86121848D01*
X60956414Y-85989800D01*
X60956410Y-85989798D01*
X60952359Y-85986598D01*
X60911053Y-85963796D01*
X60861084Y-85913364D01*
X60846312Y-85843921D01*
X60871428Y-85777516D01*
X60898780Y-85750909D01*
X60954041Y-85711492D01*
X61077860Y-85623173D01*
X61236096Y-85465489D01*
X61295594Y-85382689D01*
X61363435Y-85288277D01*
X61366453Y-85284077D01*
X61377675Y-85261372D01*
X61463136Y-85088453D01*
X61463137Y-85088451D01*
X61465430Y-85083811D01*
X61517309Y-84913057D01*
X61528865Y-84875023D01*
X61528865Y-84875021D01*
X61530370Y-84870069D01*
X61559529Y-84648590D01*
X61561156Y-84582000D01*
X61542852Y-84359361D01*
X61534616Y-84326570D01*
X61502119Y-84197195D01*
X61504923Y-84126254D01*
X61545636Y-84068091D01*
X61611331Y-84041172D01*
X61624323Y-84040500D01*
X65463712Y-84040500D01*
X65531833Y-84060502D01*
X65578326Y-84114158D01*
X65589233Y-84155518D01*
X65596457Y-84238087D01*
X65597881Y-84243400D01*
X65597881Y-84243402D01*
X65628953Y-84359361D01*
X65655716Y-84459243D01*
X65658039Y-84464224D01*
X65658039Y-84464225D01*
X65750151Y-84661762D01*
X65750154Y-84661767D01*
X65752477Y-84666749D01*
X65790836Y-84721531D01*
X65837179Y-84787715D01*
X65883802Y-84854300D01*
X66045700Y-85016198D01*
X66050208Y-85019355D01*
X66050211Y-85019357D01*
X66122080Y-85069680D01*
X66233251Y-85147523D01*
X66238233Y-85149846D01*
X66238238Y-85149849D01*
X66435552Y-85241857D01*
X66440757Y-85244284D01*
X66446065Y-85245706D01*
X66446067Y-85245707D01*
X66656598Y-85302119D01*
X66656600Y-85302119D01*
X66661913Y-85303543D01*
X66890000Y-85323498D01*
X67118087Y-85303543D01*
X67123400Y-85302119D01*
X67123402Y-85302119D01*
X67333933Y-85245707D01*
X67333935Y-85245706D01*
X67339243Y-85244284D01*
X67344448Y-85241857D01*
X67541762Y-85149849D01*
X67541767Y-85149846D01*
X67546749Y-85147523D01*
X67657920Y-85069680D01*
X67729789Y-85019357D01*
X67729792Y-85019355D01*
X67734300Y-85016198D01*
X67896198Y-84854300D01*
X67942822Y-84787715D01*
X67989164Y-84721531D01*
X68027523Y-84666749D01*
X68029846Y-84661767D01*
X68029849Y-84661762D01*
X68121961Y-84464225D01*
X68121961Y-84464224D01*
X68124284Y-84459243D01*
X68151048Y-84359361D01*
X68182119Y-84243402D01*
X68182119Y-84243400D01*
X68183543Y-84238087D01*
X68203498Y-84010000D01*
X68183543Y-83781913D01*
X68167061Y-83720401D01*
X68125707Y-83566067D01*
X68125706Y-83566065D01*
X68124284Y-83560757D01*
X68064063Y-83431612D01*
X68029849Y-83358238D01*
X68029846Y-83358233D01*
X68027523Y-83353251D01*
X67896198Y-83165700D01*
X67734300Y-83003802D01*
X67729792Y-83000645D01*
X67729789Y-83000643D01*
X67651611Y-82945902D01*
X67546749Y-82872477D01*
X67541767Y-82870154D01*
X67541762Y-82870151D01*
X67507543Y-82854195D01*
X67454258Y-82807278D01*
X67434797Y-82739001D01*
X67455339Y-82671041D01*
X67507543Y-82625805D01*
X67541762Y-82609849D01*
X67541767Y-82609846D01*
X67546749Y-82607523D01*
X67677124Y-82516233D01*
X67729789Y-82479357D01*
X67729792Y-82479355D01*
X67734300Y-82476198D01*
X67896198Y-82314300D01*
X67904148Y-82302947D01*
X68024366Y-82131257D01*
X68027523Y-82126749D01*
X68029846Y-82121767D01*
X68029849Y-82121762D01*
X68121961Y-81924225D01*
X68121961Y-81924224D01*
X68124284Y-81919243D01*
X68151048Y-81819361D01*
X68182119Y-81703402D01*
X68182119Y-81703400D01*
X68183543Y-81698087D01*
X68203498Y-81470000D01*
X68183543Y-81241913D01*
X68130794Y-81045051D01*
X68125707Y-81026067D01*
X68125706Y-81026065D01*
X68124284Y-81020757D01*
X68098982Y-80966496D01*
X68029849Y-80818238D01*
X68029846Y-80818233D01*
X68027523Y-80813251D01*
X67896198Y-80625700D01*
X67734300Y-80463802D01*
X67729792Y-80460645D01*
X67729789Y-80460643D01*
X67630471Y-80391100D01*
X67546749Y-80332477D01*
X67541767Y-80330154D01*
X67541762Y-80330151D01*
X67507543Y-80314195D01*
X67454258Y-80267278D01*
X67434797Y-80199001D01*
X67455339Y-80131041D01*
X67507543Y-80085805D01*
X67541762Y-80069849D01*
X67541767Y-80069846D01*
X67546749Y-80067523D01*
X67680055Y-79974181D01*
X67729789Y-79939357D01*
X67729792Y-79939355D01*
X67734300Y-79936198D01*
X67896198Y-79774300D01*
X68027523Y-79586749D01*
X68029846Y-79581767D01*
X68029849Y-79581762D01*
X68121961Y-79384225D01*
X68121961Y-79384224D01*
X68124284Y-79379243D01*
X68151048Y-79279361D01*
X68182119Y-79163402D01*
X68182119Y-79163400D01*
X68183543Y-79158087D01*
X68203498Y-78930000D01*
X68183543Y-78701913D01*
X68156361Y-78600469D01*
X68125707Y-78486067D01*
X68125706Y-78486065D01*
X68124284Y-78480757D01*
X68121961Y-78475775D01*
X68029849Y-78278238D01*
X68029846Y-78278233D01*
X68027523Y-78273251D01*
X67896198Y-78085700D01*
X67734300Y-77923802D01*
X67729792Y-77920645D01*
X67729789Y-77920643D01*
X67651611Y-77865902D01*
X67546749Y-77792477D01*
X67541767Y-77790154D01*
X67541762Y-77790151D01*
X67507543Y-77774195D01*
X67454258Y-77727278D01*
X67434797Y-77659001D01*
X67455339Y-77591041D01*
X67507543Y-77545805D01*
X67541762Y-77529849D01*
X67541767Y-77529846D01*
X67546749Y-77527523D01*
X67657920Y-77449680D01*
X67729789Y-77399357D01*
X67729792Y-77399355D01*
X67734300Y-77396198D01*
X67896198Y-77234300D01*
X68027523Y-77046749D01*
X68029846Y-77041767D01*
X68029849Y-77041762D01*
X68121961Y-76844225D01*
X68121961Y-76844224D01*
X68124284Y-76839243D01*
X68142905Y-76769751D01*
X68182119Y-76623402D01*
X68182119Y-76623400D01*
X68183543Y-76618087D01*
X68203498Y-76390000D01*
X68183543Y-76161913D01*
X68179543Y-76146984D01*
X68125707Y-75946067D01*
X68125706Y-75946065D01*
X68124284Y-75940757D01*
X68073090Y-75830970D01*
X68029849Y-75738238D01*
X68029846Y-75738233D01*
X68027523Y-75733251D01*
X67936284Y-75602948D01*
X67899357Y-75550211D01*
X67899355Y-75550208D01*
X67896198Y-75545700D01*
X67734300Y-75383802D01*
X67729792Y-75380645D01*
X67729789Y-75380643D01*
X67651611Y-75325902D01*
X67546749Y-75252477D01*
X67541767Y-75250154D01*
X67541762Y-75250151D01*
X67507543Y-75234195D01*
X67454258Y-75187278D01*
X67434797Y-75119001D01*
X67455339Y-75051041D01*
X67507543Y-75005805D01*
X67541762Y-74989849D01*
X67541767Y-74989846D01*
X67546749Y-74987523D01*
X67679939Y-74894262D01*
X67729789Y-74859357D01*
X67729792Y-74859355D01*
X67734300Y-74856198D01*
X67896198Y-74694300D01*
X67949259Y-74618522D01*
X67966713Y-74593595D01*
X68027523Y-74506749D01*
X68029846Y-74501767D01*
X68029849Y-74501762D01*
X68121961Y-74304225D01*
X68121961Y-74304224D01*
X68124284Y-74299243D01*
X68151048Y-74199361D01*
X68182119Y-74083402D01*
X68182119Y-74083400D01*
X68183543Y-74078087D01*
X68203498Y-73850000D01*
X68183543Y-73621913D01*
X68177682Y-73600038D01*
X68125707Y-73406067D01*
X68125706Y-73406065D01*
X68124284Y-73400757D01*
X68121961Y-73395775D01*
X68029849Y-73198238D01*
X68029846Y-73198233D01*
X68027523Y-73193251D01*
X67896198Y-73005700D01*
X67734300Y-72843802D01*
X67729792Y-72840645D01*
X67729789Y-72840643D01*
X67622458Y-72765489D01*
X67546749Y-72712477D01*
X67541767Y-72710154D01*
X67541762Y-72710151D01*
X67507543Y-72694195D01*
X67454258Y-72647278D01*
X67434797Y-72579001D01*
X67455339Y-72511041D01*
X67507543Y-72465805D01*
X67541762Y-72449849D01*
X67541767Y-72449846D01*
X67546749Y-72447523D01*
X67695502Y-72343365D01*
X67729789Y-72319357D01*
X67729792Y-72319355D01*
X67734300Y-72316198D01*
X67896198Y-72154300D01*
X68027523Y-71966749D01*
X68029846Y-71961767D01*
X68029849Y-71961762D01*
X68121961Y-71764225D01*
X68121961Y-71764224D01*
X68124284Y-71759243D01*
X68131721Y-71731490D01*
X68182119Y-71543402D01*
X68182119Y-71543400D01*
X68183543Y-71538087D01*
X68203498Y-71310000D01*
X68183543Y-71081913D01*
X68154672Y-70974166D01*
X68125707Y-70866067D01*
X68125706Y-70866065D01*
X68124284Y-70860757D01*
X68119775Y-70851087D01*
X68029849Y-70658238D01*
X68029846Y-70658233D01*
X68027523Y-70653251D01*
X67948895Y-70540959D01*
X67899357Y-70470211D01*
X67899355Y-70470208D01*
X67896198Y-70465700D01*
X67734300Y-70303802D01*
X67729792Y-70300645D01*
X67729789Y-70300643D01*
X67625010Y-70227276D01*
X67546749Y-70172477D01*
X67541767Y-70170154D01*
X67541762Y-70170151D01*
X67507543Y-70154195D01*
X67454258Y-70107278D01*
X67434797Y-70039001D01*
X67455339Y-69971041D01*
X67507543Y-69925805D01*
X67541762Y-69909849D01*
X67541767Y-69909846D01*
X67546749Y-69907523D01*
X67651611Y-69834098D01*
X67729789Y-69779357D01*
X67729792Y-69779355D01*
X67734300Y-69776198D01*
X67896198Y-69614300D01*
X67913435Y-69589684D01*
X68024366Y-69431257D01*
X68027523Y-69426749D01*
X68029846Y-69421767D01*
X68029849Y-69421762D01*
X68121961Y-69224225D01*
X68121961Y-69224224D01*
X68124284Y-69219243D01*
X68129165Y-69201029D01*
X68182119Y-69003402D01*
X68182119Y-69003400D01*
X68183543Y-68998087D01*
X68203498Y-68770000D01*
X68183543Y-68541913D01*
X68124284Y-68320757D01*
X68121961Y-68315775D01*
X68029849Y-68118238D01*
X68029846Y-68118233D01*
X68027523Y-68113251D01*
X67896198Y-67925700D01*
X67734300Y-67763802D01*
X67729792Y-67760645D01*
X67729789Y-67760643D01*
X67651611Y-67705902D01*
X67546749Y-67632477D01*
X67541767Y-67630154D01*
X67541762Y-67630151D01*
X67507543Y-67614195D01*
X67454258Y-67567278D01*
X67434797Y-67499001D01*
X67455339Y-67431041D01*
X67507543Y-67385805D01*
X67541762Y-67369849D01*
X67541767Y-67369846D01*
X67546749Y-67367523D01*
X67651611Y-67294098D01*
X67729789Y-67239357D01*
X67729792Y-67239355D01*
X67734300Y-67236198D01*
X67896198Y-67074300D01*
X68027523Y-66886749D01*
X68029846Y-66881767D01*
X68029849Y-66881762D01*
X68121961Y-66684225D01*
X68121961Y-66684224D01*
X68124284Y-66679243D01*
X68183543Y-66458087D01*
X68203498Y-66230000D01*
X68183543Y-66001913D01*
X68145792Y-65861026D01*
X68125707Y-65786067D01*
X68125706Y-65786065D01*
X68124284Y-65780757D01*
X68090224Y-65707715D01*
X68029849Y-65578238D01*
X68029846Y-65578233D01*
X68027523Y-65573251D01*
X67896198Y-65385700D01*
X67734300Y-65223802D01*
X67729792Y-65220645D01*
X67729789Y-65220643D01*
X67651611Y-65165902D01*
X67546749Y-65092477D01*
X67541767Y-65090154D01*
X67541762Y-65090151D01*
X67507543Y-65074195D01*
X67454258Y-65027278D01*
X67434797Y-64959001D01*
X67455339Y-64891041D01*
X67507543Y-64845805D01*
X67541762Y-64829849D01*
X67541767Y-64829846D01*
X67546749Y-64827523D01*
X67651611Y-64754098D01*
X67729789Y-64699357D01*
X67729792Y-64699355D01*
X67734300Y-64696198D01*
X67896198Y-64534300D01*
X68027523Y-64346749D01*
X68029846Y-64341767D01*
X68029849Y-64341762D01*
X68121961Y-64144225D01*
X68121961Y-64144224D01*
X68124284Y-64139243D01*
X68147523Y-64052517D01*
X68182119Y-63923402D01*
X68182119Y-63923400D01*
X68183543Y-63918087D01*
X68203498Y-63690000D01*
X68183543Y-63461913D01*
X68177105Y-63437887D01*
X68125707Y-63246067D01*
X68125706Y-63246065D01*
X68124284Y-63240757D01*
X68111164Y-63212620D01*
X68029849Y-63038238D01*
X68029846Y-63038233D01*
X68027523Y-63033251D01*
X67915046Y-62872617D01*
X67899357Y-62850211D01*
X67899355Y-62850208D01*
X67896198Y-62845700D01*
X67734300Y-62683802D01*
X67729792Y-62680645D01*
X67729789Y-62680643D01*
X67621554Y-62604856D01*
X67546749Y-62552477D01*
X67541767Y-62550154D01*
X67541762Y-62550151D01*
X67507543Y-62534195D01*
X67454258Y-62487278D01*
X67434797Y-62419001D01*
X67455339Y-62351041D01*
X67507543Y-62305805D01*
X67541762Y-62289849D01*
X67541767Y-62289846D01*
X67546749Y-62287523D01*
X67676927Y-62196371D01*
X67729789Y-62159357D01*
X67729792Y-62159355D01*
X67734300Y-62156198D01*
X67896198Y-61994300D01*
X68027523Y-61806749D01*
X68029846Y-61801767D01*
X68029849Y-61801762D01*
X68121961Y-61604225D01*
X68121961Y-61604224D01*
X68124284Y-61599243D01*
X68128695Y-61582783D01*
X68182119Y-61383402D01*
X68182119Y-61383400D01*
X68183543Y-61378087D01*
X68203498Y-61150000D01*
X68183543Y-60921913D01*
X68178271Y-60902239D01*
X68125707Y-60706067D01*
X68125706Y-60706065D01*
X68124284Y-60700757D01*
X68121961Y-60695775D01*
X68029849Y-60498238D01*
X68029846Y-60498233D01*
X68027523Y-60493251D01*
X67919841Y-60339465D01*
X67899357Y-60310211D01*
X67899355Y-60310208D01*
X67896198Y-60305700D01*
X67734300Y-60143802D01*
X67729792Y-60140645D01*
X67729789Y-60140643D01*
X67591938Y-60044119D01*
X67546749Y-60012477D01*
X67541767Y-60010154D01*
X67541762Y-60010151D01*
X67507543Y-59994195D01*
X67454258Y-59947278D01*
X67434797Y-59879001D01*
X67455339Y-59811041D01*
X67507543Y-59765805D01*
X67541762Y-59749849D01*
X67541767Y-59749846D01*
X67546749Y-59747523D01*
X67670648Y-59660768D01*
X67729789Y-59619357D01*
X67729792Y-59619355D01*
X67734300Y-59616198D01*
X67896198Y-59454300D01*
X67903317Y-59444134D01*
X68024366Y-59271257D01*
X68027523Y-59266749D01*
X68029846Y-59261767D01*
X68029849Y-59261762D01*
X68121961Y-59064225D01*
X68121961Y-59064224D01*
X68124284Y-59059243D01*
X68127952Y-59045556D01*
X68182119Y-58843402D01*
X68182119Y-58843400D01*
X68183543Y-58838087D01*
X68203498Y-58610000D01*
X68183543Y-58381913D01*
X68147416Y-58247085D01*
X68125707Y-58166067D01*
X68125706Y-58166065D01*
X68124284Y-58160757D01*
X68120901Y-58153502D01*
X68029849Y-57958238D01*
X68029846Y-57958233D01*
X68027523Y-57953251D01*
X67896198Y-57765700D01*
X67734300Y-57603802D01*
X67729792Y-57600645D01*
X67729789Y-57600643D01*
X67651611Y-57545902D01*
X67546749Y-57472477D01*
X67541767Y-57470154D01*
X67541762Y-57470151D01*
X67506951Y-57453919D01*
X67453666Y-57407002D01*
X67434205Y-57338725D01*
X67454747Y-57270765D01*
X67506951Y-57225529D01*
X67541511Y-57209414D01*
X67551007Y-57203931D01*
X67729467Y-57078972D01*
X67737875Y-57071916D01*
X67891916Y-56917875D01*
X67898972Y-56909467D01*
X68023931Y-56731007D01*
X68029414Y-56721511D01*
X68121490Y-56524053D01*
X68125236Y-56513761D01*
X68171394Y-56341497D01*
X68171058Y-56327401D01*
X68163116Y-56324000D01*
X65622033Y-56324000D01*
X65608502Y-56327973D01*
X65607273Y-56336522D01*
X65654764Y-56513761D01*
X65658510Y-56524053D01*
X65750586Y-56721511D01*
X65756069Y-56731007D01*
X65881028Y-56909467D01*
X65888084Y-56917875D01*
X66042125Y-57071916D01*
X66050533Y-57078972D01*
X66228993Y-57203931D01*
X66238489Y-57209414D01*
X66273049Y-57225529D01*
X66326334Y-57272446D01*
X66345795Y-57340723D01*
X66325253Y-57408683D01*
X66273049Y-57453919D01*
X66238238Y-57470151D01*
X66238233Y-57470154D01*
X66233251Y-57472477D01*
X66128389Y-57545902D01*
X66050211Y-57600643D01*
X66050208Y-57600645D01*
X66045700Y-57603802D01*
X65883802Y-57765700D01*
X65752477Y-57953251D01*
X65750154Y-57958233D01*
X65750151Y-57958238D01*
X65659099Y-58153502D01*
X65655716Y-58160757D01*
X65654294Y-58166065D01*
X65654293Y-58166067D01*
X65632584Y-58247085D01*
X65596457Y-58381913D01*
X65576502Y-58610000D01*
X65596457Y-58838087D01*
X65597881Y-58843400D01*
X65597881Y-58843402D01*
X65652049Y-59045556D01*
X65655716Y-59059243D01*
X65658039Y-59064224D01*
X65658039Y-59064225D01*
X65750151Y-59261762D01*
X65750154Y-59261767D01*
X65752477Y-59266749D01*
X65755634Y-59271257D01*
X65876684Y-59444134D01*
X65883802Y-59454300D01*
X66045700Y-59616198D01*
X66050208Y-59619355D01*
X66050211Y-59619357D01*
X66109352Y-59660768D01*
X66233251Y-59747523D01*
X66238233Y-59749846D01*
X66238238Y-59749849D01*
X66272457Y-59765805D01*
X66325742Y-59812722D01*
X66345203Y-59880999D01*
X66324661Y-59948959D01*
X66272457Y-59994195D01*
X66238238Y-60010151D01*
X66238233Y-60010154D01*
X66233251Y-60012477D01*
X66188062Y-60044119D01*
X66050211Y-60140643D01*
X66050208Y-60140645D01*
X66045700Y-60143802D01*
X65883802Y-60305700D01*
X65880645Y-60310208D01*
X65880643Y-60310211D01*
X65860159Y-60339465D01*
X65752477Y-60493251D01*
X65750154Y-60498233D01*
X65750151Y-60498238D01*
X65658039Y-60695775D01*
X65655716Y-60700757D01*
X65654294Y-60706065D01*
X65654293Y-60706067D01*
X65601729Y-60902239D01*
X65596457Y-60921913D01*
X65576502Y-61150000D01*
X65596457Y-61378087D01*
X65597881Y-61383400D01*
X65597881Y-61383402D01*
X65651306Y-61582783D01*
X65655716Y-61599243D01*
X65658039Y-61604224D01*
X65658039Y-61604225D01*
X65750151Y-61801762D01*
X65750154Y-61801767D01*
X65752477Y-61806749D01*
X65883802Y-61994300D01*
X66045700Y-62156198D01*
X66050208Y-62159355D01*
X66050211Y-62159357D01*
X66103073Y-62196371D01*
X66233251Y-62287523D01*
X66238233Y-62289846D01*
X66238238Y-62289849D01*
X66272457Y-62305805D01*
X66325742Y-62352722D01*
X66345203Y-62420999D01*
X66324661Y-62488959D01*
X66272457Y-62534195D01*
X66238238Y-62550151D01*
X66238233Y-62550154D01*
X66233251Y-62552477D01*
X66158446Y-62604856D01*
X66050211Y-62680643D01*
X66050208Y-62680645D01*
X66045700Y-62683802D01*
X65883802Y-62845700D01*
X65880645Y-62850208D01*
X65880643Y-62850211D01*
X65773819Y-63002771D01*
X65718362Y-63047099D01*
X65670606Y-63056500D01*
X64912768Y-63056500D01*
X64901585Y-63055973D01*
X64894092Y-63054298D01*
X64886166Y-63054547D01*
X64886165Y-63054547D01*
X64826002Y-63056438D01*
X64822044Y-63056500D01*
X64794144Y-63056500D01*
X64790154Y-63057004D01*
X64778320Y-63057936D01*
X64734111Y-63059326D01*
X64726495Y-63061539D01*
X64726493Y-63061539D01*
X64714652Y-63064979D01*
X64695293Y-63068988D01*
X64693983Y-63069154D01*
X64675203Y-63071526D01*
X64667837Y-63074442D01*
X64667831Y-63074444D01*
X64634098Y-63087800D01*
X64622868Y-63091645D01*
X64588017Y-63101770D01*
X64580407Y-63103981D01*
X64573584Y-63108016D01*
X64562966Y-63114295D01*
X64545213Y-63122992D01*
X64537568Y-63126019D01*
X64526383Y-63130448D01*
X64519968Y-63135109D01*
X64490612Y-63156437D01*
X64480695Y-63162951D01*
X64442638Y-63185458D01*
X64428317Y-63199779D01*
X64413284Y-63212619D01*
X64396893Y-63224528D01*
X64368702Y-63258605D01*
X64360712Y-63267384D01*
X57265747Y-70362348D01*
X57257461Y-70369888D01*
X57250982Y-70374000D01*
X57245557Y-70379777D01*
X57204357Y-70423651D01*
X57201602Y-70426493D01*
X57181865Y-70446230D01*
X57179385Y-70449427D01*
X57171682Y-70458447D01*
X57141414Y-70490679D01*
X57137595Y-70497625D01*
X57137593Y-70497628D01*
X57131652Y-70508434D01*
X57120801Y-70524953D01*
X57108386Y-70540959D01*
X57105241Y-70548228D01*
X57105238Y-70548232D01*
X57090826Y-70581537D01*
X57085609Y-70592187D01*
X57064305Y-70630940D01*
X57064305Y-70630941D01*
X57062765Y-70630094D01*
X57025070Y-70678409D01*
X57009769Y-70687818D01*
X56931607Y-70728507D01*
X56927465Y-70731617D01*
X56762102Y-70855775D01*
X56752965Y-70862635D01*
X56719358Y-70897803D01*
X56609751Y-71012500D01*
X56598629Y-71024138D01*
X56595715Y-71028410D01*
X56595714Y-71028411D01*
X56555479Y-71087393D01*
X56472743Y-71208680D01*
X56440617Y-71277890D01*
X56382794Y-71402460D01*
X56378688Y-71411305D01*
X56318989Y-71626570D01*
X56295251Y-71848695D01*
X56295548Y-71853848D01*
X56295548Y-71853851D01*
X56297180Y-71882158D01*
X56308110Y-72071715D01*
X56309247Y-72076761D01*
X56309248Y-72076767D01*
X56327600Y-72158197D01*
X56357222Y-72289639D01*
X56441266Y-72496616D01*
X56443965Y-72501020D01*
X56534622Y-72648959D01*
X56557987Y-72687088D01*
X56704250Y-72855938D01*
X56876126Y-72998632D01*
X56946595Y-73039811D01*
X56949445Y-73041476D01*
X56998169Y-73093114D01*
X57011240Y-73162897D01*
X56984509Y-73228669D01*
X56944055Y-73262027D01*
X56931607Y-73268507D01*
X56927474Y-73271610D01*
X56927471Y-73271612D01*
X56757100Y-73399530D01*
X56752965Y-73402635D01*
X56749393Y-73406373D01*
X56621788Y-73539904D01*
X56598629Y-73564138D01*
X56595720Y-73568403D01*
X56595714Y-73568411D01*
X56555479Y-73627393D01*
X56472743Y-73748680D01*
X56378688Y-73951305D01*
X56318989Y-74166570D01*
X56295251Y-74388695D01*
X56295548Y-74393848D01*
X56295548Y-74393851D01*
X56303136Y-74525450D01*
X56308110Y-74611715D01*
X56309247Y-74616761D01*
X56309248Y-74616767D01*
X56327600Y-74698197D01*
X56357222Y-74829639D01*
X56395461Y-74923811D01*
X56436159Y-75024038D01*
X56441266Y-75036616D01*
X56491751Y-75119001D01*
X56555291Y-75222688D01*
X56557987Y-75227088D01*
X56704250Y-75395938D01*
X56876126Y-75538632D01*
X56924623Y-75566971D01*
X56949445Y-75581476D01*
X56998169Y-75633114D01*
X57011240Y-75702897D01*
X56984509Y-75768669D01*
X56944055Y-75802027D01*
X56931607Y-75808507D01*
X56927474Y-75811610D01*
X56927471Y-75811612D01*
X56757100Y-75939530D01*
X56752965Y-75942635D01*
X56745473Y-75950475D01*
X56617632Y-76084253D01*
X56598629Y-76104138D01*
X56595720Y-76108403D01*
X56595714Y-76108411D01*
X56556886Y-76165331D01*
X56472743Y-76288680D01*
X56453461Y-76330220D01*
X56382080Y-76483998D01*
X56378688Y-76491305D01*
X56318989Y-76706570D01*
X56295251Y-76928695D01*
X56295548Y-76933848D01*
X56295548Y-76933851D01*
X56301011Y-77028590D01*
X56308110Y-77151715D01*
X56309247Y-77156761D01*
X56309248Y-77156767D01*
X56327600Y-77238197D01*
X56357222Y-77369639D01*
X56441266Y-77576616D01*
X56491751Y-77659001D01*
X56555291Y-77762688D01*
X56557987Y-77767088D01*
X56704250Y-77935938D01*
X56876126Y-78078632D01*
X56937196Y-78114318D01*
X56949445Y-78121476D01*
X56998169Y-78173114D01*
X57011240Y-78242897D01*
X56984509Y-78308669D01*
X56944055Y-78342027D01*
X56931607Y-78348507D01*
X56927474Y-78351610D01*
X56927471Y-78351612D01*
X56757100Y-78479530D01*
X56752965Y-78482635D01*
X56598629Y-78644138D01*
X56595720Y-78648403D01*
X56595714Y-78648411D01*
X56555479Y-78707393D01*
X56472743Y-78828680D01*
X56378688Y-79031305D01*
X56318989Y-79246570D01*
X56295251Y-79468695D01*
X56295548Y-79473848D01*
X56295548Y-79473851D01*
X56301011Y-79568590D01*
X56308110Y-79691715D01*
X56309247Y-79696761D01*
X56309248Y-79696767D01*
X56327600Y-79778197D01*
X56357222Y-79909639D01*
X56395461Y-80003811D01*
X56433590Y-80097711D01*
X56441266Y-80116616D01*
X56480299Y-80180312D01*
X56555291Y-80302688D01*
X56557987Y-80307088D01*
X56704250Y-80475938D01*
X56876126Y-80618632D01*
X56946595Y-80659811D01*
X56949445Y-80661476D01*
X56998169Y-80713114D01*
X57011240Y-80782897D01*
X56984509Y-80848669D01*
X56944055Y-80882027D01*
X56931607Y-80888507D01*
X56927474Y-80891610D01*
X56927471Y-80891612D01*
X56757100Y-81019530D01*
X56752965Y-81022635D01*
X56598629Y-81184138D01*
X56595720Y-81188403D01*
X56595714Y-81188411D01*
X56555479Y-81247393D01*
X56472743Y-81368680D01*
X56457003Y-81402590D01*
X56423166Y-81475486D01*
X56378688Y-81571305D01*
X56318989Y-81786570D01*
X56295251Y-82008695D01*
X56295548Y-82013848D01*
X56295548Y-82013851D01*
X56301011Y-82108590D01*
X56308110Y-82231715D01*
X56309247Y-82236761D01*
X56309248Y-82236767D01*
X56331392Y-82335023D01*
X56357222Y-82449639D01*
X56441266Y-82656616D01*
X56443965Y-82661020D01*
X56526326Y-82795421D01*
X56557987Y-82847088D01*
X56704250Y-83015938D01*
X56876126Y-83158632D01*
X56946595Y-83199811D01*
X56949445Y-83201476D01*
X56998169Y-83253114D01*
X57011240Y-83322897D01*
X56984509Y-83388669D01*
X56944055Y-83422027D01*
X56931607Y-83428507D01*
X56927474Y-83431610D01*
X56927471Y-83431612D01*
X56757100Y-83559530D01*
X56752965Y-83562635D01*
X56598629Y-83724138D01*
X56595715Y-83728410D01*
X56595714Y-83728411D01*
X56556301Y-83786188D01*
X56472743Y-83908680D01*
X56470564Y-83913375D01*
X56411243Y-84041172D01*
X56378688Y-84111305D01*
X56318989Y-84326570D01*
X56295251Y-84548695D01*
X56295548Y-84553848D01*
X56295548Y-84553851D01*
X56305021Y-84718134D01*
X56308110Y-84771715D01*
X56309247Y-84776761D01*
X56309248Y-84776767D01*
X56327371Y-84857181D01*
X56357222Y-84989639D01*
X56441266Y-85196616D01*
X56480948Y-85261372D01*
X56555291Y-85382688D01*
X56557987Y-85387088D01*
X56704250Y-85555938D01*
X56876126Y-85698632D01*
X56905574Y-85715840D01*
X56949445Y-85741476D01*
X56998169Y-85793114D01*
X57011240Y-85862897D01*
X56984509Y-85928669D01*
X56944055Y-85962027D01*
X56931607Y-85968507D01*
X56927474Y-85971610D01*
X56927471Y-85971612D01*
X56903247Y-85989800D01*
X56752965Y-86102635D01*
X56598629Y-86264138D01*
X56595720Y-86268403D01*
X56595714Y-86268411D01*
X56535524Y-86356646D01*
X56472743Y-86448680D01*
X56378688Y-86651305D01*
X56318989Y-86866570D01*
X56295251Y-87088695D01*
X56295548Y-87093848D01*
X56295548Y-87093851D01*
X56307812Y-87306547D01*
X56308110Y-87311715D01*
X56309247Y-87316761D01*
X56309248Y-87316767D01*
X56328946Y-87404171D01*
X56357222Y-87529639D01*
X56441266Y-87736616D01*
X56492019Y-87819438D01*
X56555291Y-87922688D01*
X56557987Y-87927088D01*
X56704250Y-88095938D01*
X56876126Y-88238632D01*
X56905574Y-88255840D01*
X56949445Y-88281476D01*
X56998169Y-88333114D01*
X57011240Y-88402897D01*
X56984509Y-88468669D01*
X56944055Y-88502027D01*
X56931607Y-88508507D01*
X56927474Y-88511610D01*
X56927471Y-88511612D01*
X56757100Y-88639530D01*
X56752965Y-88642635D01*
X56598629Y-88804138D01*
X56595720Y-88808403D01*
X56595714Y-88808411D01*
X56552438Y-88871851D01*
X56472743Y-88988680D01*
X56378688Y-89191305D01*
X56318989Y-89406570D01*
X56295251Y-89628695D01*
X51050500Y-89628695D01*
X51050500Y-76058371D01*
X51070502Y-75990250D01*
X51087405Y-75969276D01*
X63268911Y-63787770D01*
X63283323Y-63775384D01*
X63294918Y-63766851D01*
X63294923Y-63766846D01*
X63300818Y-63762508D01*
X63305557Y-63756930D01*
X63305560Y-63756927D01*
X63335035Y-63722232D01*
X63341965Y-63714716D01*
X63347660Y-63709021D01*
X63358377Y-63695475D01*
X63365281Y-63686749D01*
X63368072Y-63683345D01*
X63410591Y-63633297D01*
X63410592Y-63633295D01*
X63415333Y-63627715D01*
X63418661Y-63621199D01*
X63422028Y-63616150D01*
X63425195Y-63611021D01*
X63429734Y-63605284D01*
X63460655Y-63539125D01*
X63462561Y-63535225D01*
X63495769Y-63470192D01*
X63497508Y-63463084D01*
X63499607Y-63457441D01*
X63501524Y-63451678D01*
X63504622Y-63445050D01*
X63519487Y-63373583D01*
X63520457Y-63369299D01*
X63536473Y-63303845D01*
X63537808Y-63298390D01*
X63538500Y-63287236D01*
X63538536Y-63287238D01*
X63538775Y-63283245D01*
X63539149Y-63279053D01*
X63540640Y-63271885D01*
X63538546Y-63194479D01*
X63538500Y-63191072D01*
X63538500Y-53530000D01*
X65576502Y-53530000D01*
X65596457Y-53758087D01*
X65655716Y-53979243D01*
X65658039Y-53984224D01*
X65658039Y-53984225D01*
X65750151Y-54181762D01*
X65750154Y-54181767D01*
X65752477Y-54186749D01*
X65883802Y-54374300D01*
X66045700Y-54536198D01*
X66050208Y-54539355D01*
X66050211Y-54539357D01*
X66128389Y-54594098D01*
X66233251Y-54667523D01*
X66238233Y-54669846D01*
X66238238Y-54669849D01*
X66273049Y-54686081D01*
X66326334Y-54732998D01*
X66345795Y-54801275D01*
X66325253Y-54869235D01*
X66273049Y-54914471D01*
X66238489Y-54930586D01*
X66228993Y-54936069D01*
X66050533Y-55061028D01*
X66042125Y-55068084D01*
X65888084Y-55222125D01*
X65881028Y-55230533D01*
X65756069Y-55408993D01*
X65750586Y-55418489D01*
X65658510Y-55615947D01*
X65654764Y-55626239D01*
X65608606Y-55798503D01*
X65608942Y-55812599D01*
X65616884Y-55816000D01*
X68157967Y-55816000D01*
X68171498Y-55812027D01*
X68172727Y-55803478D01*
X68125236Y-55626239D01*
X68121490Y-55615947D01*
X68029414Y-55418489D01*
X68023931Y-55408993D01*
X67898972Y-55230533D01*
X67891916Y-55222125D01*
X67737875Y-55068084D01*
X67729467Y-55061028D01*
X67551007Y-54936069D01*
X67541511Y-54930586D01*
X67506951Y-54914471D01*
X67453666Y-54867554D01*
X67434205Y-54799277D01*
X67454747Y-54731317D01*
X67506951Y-54686081D01*
X67541762Y-54669849D01*
X67541767Y-54669846D01*
X67546749Y-54667523D01*
X67651611Y-54594098D01*
X67729789Y-54539357D01*
X67729792Y-54539355D01*
X67734300Y-54536198D01*
X67896198Y-54374300D01*
X68027523Y-54186749D01*
X68029846Y-54181767D01*
X68029849Y-54181762D01*
X68121961Y-53984225D01*
X68121961Y-53984224D01*
X68124284Y-53979243D01*
X68183543Y-53758087D01*
X68203498Y-53530000D01*
X68183543Y-53301913D01*
X68124284Y-53080757D01*
X68065291Y-52954245D01*
X68029849Y-52878238D01*
X68029846Y-52878233D01*
X68027523Y-52873251D01*
X67910686Y-52706391D01*
X67899357Y-52690211D01*
X67899355Y-52690208D01*
X67896198Y-52685700D01*
X67734300Y-52523802D01*
X67729792Y-52520645D01*
X67729789Y-52520643D01*
X67651611Y-52465902D01*
X67546749Y-52392477D01*
X67541767Y-52390154D01*
X67541762Y-52390151D01*
X67507543Y-52374195D01*
X67454258Y-52327278D01*
X67434797Y-52259001D01*
X67455339Y-52191041D01*
X67507543Y-52145805D01*
X67541762Y-52129849D01*
X67541767Y-52129846D01*
X67546749Y-52127523D01*
X67651611Y-52054098D01*
X67729789Y-51999357D01*
X67729792Y-51999355D01*
X67734300Y-51996198D01*
X67896198Y-51834300D01*
X68027523Y-51646749D01*
X68029846Y-51641767D01*
X68029849Y-51641762D01*
X68121961Y-51444225D01*
X68121961Y-51444224D01*
X68124284Y-51439243D01*
X68179651Y-51232614D01*
X68182119Y-51223402D01*
X68182119Y-51223400D01*
X68183543Y-51218087D01*
X68203498Y-50990000D01*
X68183543Y-50761913D01*
X68171911Y-50718503D01*
X68125707Y-50546067D01*
X68125706Y-50546065D01*
X68124284Y-50540757D01*
X68079651Y-50445040D01*
X68029849Y-50338238D01*
X68029846Y-50338233D01*
X68027523Y-50333251D01*
X67928211Y-50191419D01*
X67899357Y-50150211D01*
X67899355Y-50150208D01*
X67896198Y-50145700D01*
X67734300Y-49983802D01*
X67729789Y-49980643D01*
X67725576Y-49977108D01*
X67726527Y-49975974D01*
X67686529Y-49925929D01*
X67679224Y-49855310D01*
X67711258Y-49791951D01*
X67772462Y-49755970D01*
X67789517Y-49752918D01*
X67800316Y-49751745D01*
X67936705Y-49700615D01*
X68053261Y-49613261D01*
X68140615Y-49496705D01*
X68191745Y-49360316D01*
X68198500Y-49298134D01*
X68198500Y-47601866D01*
X68191745Y-47539684D01*
X68140615Y-47403295D01*
X68053261Y-47286739D01*
X67936705Y-47199385D01*
X67800316Y-47148255D01*
X67738134Y-47141500D01*
X66041866Y-47141500D01*
X65979684Y-47148255D01*
X65843295Y-47199385D01*
X65726739Y-47286739D01*
X65639385Y-47403295D01*
X65588255Y-47539684D01*
X65581500Y-47601866D01*
X65581500Y-49298134D01*
X65588255Y-49360316D01*
X65639385Y-49496705D01*
X65726739Y-49613261D01*
X65843295Y-49700615D01*
X65979684Y-49751745D01*
X65990474Y-49752917D01*
X65992606Y-49753803D01*
X65995222Y-49754425D01*
X65995121Y-49754848D01*
X66056035Y-49780155D01*
X66096463Y-49838517D01*
X66098922Y-49909471D01*
X66062629Y-49970490D01*
X66053969Y-49977489D01*
X66050207Y-49980646D01*
X66045700Y-49983802D01*
X65883802Y-50145700D01*
X65880645Y-50150208D01*
X65880643Y-50150211D01*
X65851789Y-50191419D01*
X65752477Y-50333251D01*
X65750154Y-50338233D01*
X65750151Y-50338238D01*
X65700349Y-50445040D01*
X65655716Y-50540757D01*
X65654294Y-50546065D01*
X65654293Y-50546067D01*
X65608089Y-50718503D01*
X65596457Y-50761913D01*
X65576502Y-50990000D01*
X65596457Y-51218087D01*
X65597881Y-51223400D01*
X65597881Y-51223402D01*
X65600350Y-51232614D01*
X65655716Y-51439243D01*
X65658039Y-51444224D01*
X65658039Y-51444225D01*
X65750151Y-51641762D01*
X65750154Y-51641767D01*
X65752477Y-51646749D01*
X65883802Y-51834300D01*
X66045700Y-51996198D01*
X66050208Y-51999355D01*
X66050211Y-51999357D01*
X66128389Y-52054098D01*
X66233251Y-52127523D01*
X66238233Y-52129846D01*
X66238238Y-52129849D01*
X66272457Y-52145805D01*
X66325742Y-52192722D01*
X66345203Y-52260999D01*
X66324661Y-52328959D01*
X66272457Y-52374195D01*
X66238238Y-52390151D01*
X66238233Y-52390154D01*
X66233251Y-52392477D01*
X66128389Y-52465902D01*
X66050211Y-52520643D01*
X66050208Y-52520645D01*
X66045700Y-52523802D01*
X65883802Y-52685700D01*
X65880645Y-52690208D01*
X65880643Y-52690211D01*
X65869314Y-52706391D01*
X65752477Y-52873251D01*
X65750154Y-52878233D01*
X65750151Y-52878238D01*
X65714709Y-52954245D01*
X65655716Y-53080757D01*
X65596457Y-53301913D01*
X65576502Y-53530000D01*
X63538500Y-53530000D01*
X63538500Y-42268925D01*
X63558502Y-42200804D01*
X63612158Y-42154311D01*
X63682432Y-42144207D01*
X63747012Y-42173701D01*
X63753595Y-42179830D01*
X63921343Y-42347578D01*
X63928887Y-42355868D01*
X63933000Y-42362349D01*
X63938777Y-42367774D01*
X63982667Y-42408989D01*
X63985509Y-42411744D01*
X64005231Y-42431466D01*
X64008355Y-42433889D01*
X64008359Y-42433893D01*
X64008424Y-42433943D01*
X64017445Y-42441648D01*
X64049679Y-42471917D01*
X64056627Y-42475736D01*
X64056629Y-42475738D01*
X64067432Y-42481677D01*
X64083959Y-42492533D01*
X64093698Y-42500088D01*
X64093700Y-42500089D01*
X64099960Y-42504945D01*
X64140540Y-42522505D01*
X64151188Y-42527722D01*
X64189940Y-42549026D01*
X64197616Y-42550997D01*
X64197619Y-42550998D01*
X64209562Y-42554064D01*
X64228266Y-42560468D01*
X64230381Y-42561383D01*
X64246855Y-42568512D01*
X64254678Y-42569751D01*
X64254688Y-42569754D01*
X64290524Y-42575430D01*
X64302144Y-42577836D01*
X64337289Y-42586859D01*
X64344970Y-42588831D01*
X64365224Y-42588831D01*
X64384934Y-42590382D01*
X64404943Y-42593551D01*
X64412835Y-42592805D01*
X64448961Y-42589390D01*
X64460819Y-42588831D01*
X65724010Y-42588831D01*
X65792131Y-42608833D01*
X65813105Y-42625736D01*
X79593595Y-56406227D01*
X79627621Y-56468539D01*
X79630500Y-56495322D01*
X79630500Y-57971476D01*
X79610498Y-58039597D01*
X79598142Y-58055779D01*
X79524960Y-58137056D01*
X79429473Y-58302444D01*
X79370458Y-58484072D01*
X79350496Y-58674000D01*
X79351186Y-58680565D01*
X79368301Y-58843402D01*
X79370458Y-58863928D01*
X79429473Y-59045556D01*
X79432776Y-59051278D01*
X79432777Y-59051279D01*
X79466686Y-59110010D01*
X79524960Y-59210944D01*
X79529378Y-59215851D01*
X79529379Y-59215852D01*
X79545297Y-59233531D01*
X79652747Y-59352866D01*
X79751843Y-59424864D01*
X79786150Y-59449789D01*
X79807248Y-59465118D01*
X79813276Y-59467802D01*
X79813278Y-59467803D01*
X79975681Y-59540109D01*
X79981712Y-59542794D01*
X80075112Y-59562647D01*
X80162056Y-59581128D01*
X80162061Y-59581128D01*
X80168513Y-59582500D01*
X80245500Y-59582500D01*
X80313621Y-59602502D01*
X80360114Y-59656158D01*
X80371500Y-59708500D01*
X80371500Y-62486233D01*
X80370973Y-62497416D01*
X80369298Y-62504909D01*
X80369547Y-62512835D01*
X80369547Y-62512836D01*
X80371438Y-62572986D01*
X80371500Y-62576945D01*
X80371500Y-62604856D01*
X80371997Y-62608790D01*
X80371997Y-62608791D01*
X80372005Y-62608856D01*
X80372938Y-62620693D01*
X80374327Y-62664889D01*
X80378904Y-62680643D01*
X80379978Y-62684339D01*
X80383987Y-62703700D01*
X80386526Y-62723797D01*
X80389445Y-62731168D01*
X80389445Y-62731170D01*
X80402804Y-62764912D01*
X80406649Y-62776142D01*
X80418982Y-62818593D01*
X80423015Y-62825412D01*
X80423017Y-62825417D01*
X80429293Y-62836028D01*
X80437988Y-62853776D01*
X80445448Y-62872617D01*
X80450110Y-62879033D01*
X80450110Y-62879034D01*
X80471436Y-62908387D01*
X80477952Y-62918307D01*
X80500458Y-62956362D01*
X80514779Y-62970683D01*
X80527619Y-62985716D01*
X80539528Y-63002107D01*
X80545634Y-63007158D01*
X80573605Y-63030298D01*
X80582384Y-63038288D01*
X80820848Y-63276752D01*
X80854874Y-63339064D01*
X80853459Y-63398459D01*
X80837882Y-63456591D01*
X80837881Y-63456598D01*
X80836457Y-63461913D01*
X80816502Y-63690000D01*
X80836457Y-63918087D01*
X80837880Y-63923398D01*
X80837882Y-63923409D01*
X80853459Y-63981541D01*
X80851770Y-64052517D01*
X80820848Y-64103248D01*
X75083247Y-69840848D01*
X75074961Y-69848388D01*
X75068482Y-69852500D01*
X75063057Y-69858277D01*
X75021857Y-69902151D01*
X75019102Y-69904993D01*
X74999365Y-69924730D01*
X74996885Y-69927927D01*
X74989182Y-69936947D01*
X74958914Y-69969179D01*
X74955095Y-69976125D01*
X74955093Y-69976128D01*
X74949152Y-69986934D01*
X74938301Y-70003453D01*
X74925886Y-70019459D01*
X74922741Y-70026728D01*
X74922738Y-70026732D01*
X74908326Y-70060037D01*
X74903109Y-70070687D01*
X74881805Y-70109440D01*
X74879834Y-70117115D01*
X74879834Y-70117116D01*
X74876767Y-70129062D01*
X74870363Y-70147766D01*
X74862319Y-70166355D01*
X74861080Y-70174178D01*
X74861077Y-70174188D01*
X74855401Y-70210024D01*
X74852995Y-70221644D01*
X74842000Y-70264470D01*
X74842000Y-70284724D01*
X74840449Y-70304434D01*
X74837280Y-70324443D01*
X74838026Y-70332335D01*
X74841441Y-70368461D01*
X74842000Y-70380319D01*
X74842000Y-79784215D01*
X74821998Y-79852336D01*
X74805095Y-79873310D01*
X72457863Y-82220542D01*
X72415150Y-82248599D01*
X72385593Y-82260301D01*
X72374366Y-82264145D01*
X72331908Y-82276481D01*
X72325082Y-82280518D01*
X72314473Y-82286792D01*
X72296725Y-82295487D01*
X72277884Y-82302947D01*
X72271468Y-82307609D01*
X72271467Y-82307609D01*
X72242114Y-82328935D01*
X72232194Y-82335451D01*
X72200966Y-82353919D01*
X72200963Y-82353921D01*
X72194139Y-82357957D01*
X72179818Y-82372278D01*
X72164785Y-82385118D01*
X72148394Y-82397027D01*
X72143343Y-82403133D01*
X72120203Y-82431104D01*
X72112213Y-82439883D01*
X60655345Y-93896750D01*
X60593033Y-93930776D01*
X60544154Y-93931702D01*
X60331373Y-93893800D01*
X60331367Y-93893799D01*
X60326284Y-93892894D01*
X60252452Y-93891992D01*
X60108081Y-93890228D01*
X60108079Y-93890228D01*
X60102911Y-93890165D01*
X59882091Y-93923955D01*
X59669756Y-93993357D01*
X59634445Y-94011739D01*
X59488877Y-94087517D01*
X59471607Y-94096507D01*
X59467474Y-94099610D01*
X59467471Y-94099612D01*
X59297100Y-94227530D01*
X59292965Y-94230635D01*
X59221935Y-94304964D01*
X59212283Y-94315064D01*
X59150759Y-94350494D01*
X59079846Y-94347037D01*
X59022060Y-94305791D01*
X59003207Y-94272243D01*
X58961767Y-94161703D01*
X58958615Y-94153295D01*
X58871261Y-94036739D01*
X58754705Y-93949385D01*
X58618316Y-93898255D01*
X58556134Y-93891500D01*
X56759866Y-93891500D01*
X56697684Y-93898255D01*
X56561295Y-93949385D01*
X56444739Y-94036739D01*
X56357385Y-94153295D01*
X56306255Y-94289684D01*
X56299500Y-94351866D01*
X56299500Y-96148134D01*
X56306255Y-96210316D01*
X56357385Y-96346705D01*
X56444739Y-96463261D01*
X56561295Y-96550615D01*
X56697684Y-96601745D01*
X56759866Y-96608500D01*
X58556134Y-96608500D01*
X58618316Y-96601745D01*
X58754705Y-96550615D01*
X58871261Y-96463261D01*
X58958615Y-96346705D01*
X58980799Y-96287529D01*
X59002598Y-96229382D01*
X59045240Y-96172618D01*
X59111802Y-96147918D01*
X59181150Y-96163126D01*
X59215817Y-96191114D01*
X59244250Y-96223938D01*
X59416126Y-96366632D01*
X59609000Y-96479338D01*
X59613825Y-96481180D01*
X59613826Y-96481181D01*
X59686612Y-96508975D01*
X59817692Y-96559030D01*
X59822760Y-96560061D01*
X59822763Y-96560062D01*
X59917862Y-96579410D01*
X60036597Y-96603567D01*
X60041772Y-96603757D01*
X60041774Y-96603757D01*
X60254673Y-96611564D01*
X60254677Y-96611564D01*
X60259837Y-96611753D01*
X60264957Y-96611097D01*
X60264959Y-96611097D01*
X60476288Y-96584025D01*
X60476289Y-96584025D01*
X60481416Y-96583368D01*
X60486366Y-96581883D01*
X60690429Y-96520661D01*
X60690434Y-96520659D01*
X60695384Y-96519174D01*
X60895994Y-96420896D01*
X61077860Y-96291173D01*
X61100320Y-96268792D01*
X61178268Y-96191115D01*
X61236096Y-96133489D01*
X61251673Y-96111812D01*
X61366453Y-95952077D01*
X61367776Y-95953028D01*
X61414645Y-95909857D01*
X61484580Y-95897625D01*
X61550026Y-95925144D01*
X61577875Y-95956994D01*
X61637987Y-96055088D01*
X61784250Y-96223938D01*
X61956126Y-96366632D01*
X62149000Y-96479338D01*
X62153825Y-96481180D01*
X62153826Y-96481181D01*
X62226612Y-96508975D01*
X62357692Y-96559030D01*
X62362760Y-96560061D01*
X62362763Y-96560062D01*
X62457862Y-96579410D01*
X62576597Y-96603567D01*
X62581772Y-96603757D01*
X62581774Y-96603757D01*
X62794673Y-96611564D01*
X62794677Y-96611564D01*
X62799837Y-96611753D01*
X62804957Y-96611097D01*
X62804959Y-96611097D01*
X63016288Y-96584025D01*
X63016289Y-96584025D01*
X63021416Y-96583368D01*
X63026366Y-96581883D01*
X63230429Y-96520661D01*
X63230434Y-96520659D01*
X63235384Y-96519174D01*
X63435994Y-96420896D01*
X63617860Y-96291173D01*
X63640320Y-96268792D01*
X63718268Y-96191115D01*
X63776096Y-96133489D01*
X63791673Y-96111812D01*
X63906453Y-95952077D01*
X63907640Y-95952930D01*
X63954960Y-95909362D01*
X64024897Y-95897145D01*
X64090338Y-95924678D01*
X64118166Y-95956511D01*
X64175694Y-96050388D01*
X64181777Y-96058699D01*
X64321213Y-96219667D01*
X64328580Y-96226883D01*
X64492434Y-96362916D01*
X64500881Y-96368831D01*
X64684756Y-96476279D01*
X64694042Y-96480729D01*
X64893001Y-96556703D01*
X64902899Y-96559579D01*
X65006250Y-96580606D01*
X65020299Y-96579410D01*
X65024000Y-96569065D01*
X65024000Y-96568517D01*
X65532000Y-96568517D01*
X65536064Y-96582359D01*
X65549478Y-96584393D01*
X65556184Y-96583534D01*
X65566262Y-96581392D01*
X65770255Y-96520191D01*
X65779842Y-96516433D01*
X65971095Y-96422739D01*
X65979945Y-96417464D01*
X66153328Y-96293792D01*
X66161200Y-96287139D01*
X66312052Y-96136812D01*
X66318730Y-96128965D01*
X66443003Y-95956020D01*
X66448313Y-95947183D01*
X66542670Y-95756267D01*
X66546469Y-95746672D01*
X66608377Y-95542910D01*
X66610555Y-95532837D01*
X66611986Y-95521962D01*
X66609775Y-95507778D01*
X66596617Y-95504000D01*
X65550115Y-95504000D01*
X65534876Y-95508475D01*
X65533671Y-95509865D01*
X65532000Y-95517548D01*
X65532000Y-96568517D01*
X65024000Y-96568517D01*
X65024000Y-94977885D01*
X65532000Y-94977885D01*
X65536475Y-94993124D01*
X65537865Y-94994329D01*
X65545548Y-94996000D01*
X66596344Y-94996000D01*
X66609875Y-94992027D01*
X66611180Y-94982947D01*
X66569214Y-94815875D01*
X66565894Y-94806124D01*
X66480972Y-94610814D01*
X66476105Y-94601739D01*
X66360426Y-94422926D01*
X66354136Y-94414757D01*
X66210806Y-94257240D01*
X66203273Y-94250215D01*
X66036139Y-94118222D01*
X66027552Y-94112517D01*
X65841117Y-94009599D01*
X65831705Y-94005369D01*
X65630959Y-93934280D01*
X65620988Y-93931646D01*
X65549837Y-93918972D01*
X65536540Y-93920432D01*
X65532000Y-93934989D01*
X65532000Y-94977885D01*
X65024000Y-94977885D01*
X65024000Y-93933102D01*
X65020082Y-93919758D01*
X65005806Y-93917771D01*
X64967324Y-93923660D01*
X64957288Y-93926051D01*
X64754868Y-93992212D01*
X64745359Y-93996209D01*
X64556463Y-94094542D01*
X64547738Y-94100036D01*
X64377433Y-94227905D01*
X64369726Y-94234748D01*
X64222590Y-94388717D01*
X64216109Y-94396722D01*
X64111498Y-94550074D01*
X64056587Y-94595076D01*
X63986062Y-94603247D01*
X63922315Y-94571993D01*
X63901618Y-94547509D01*
X63820822Y-94422617D01*
X63820820Y-94422614D01*
X63818014Y-94418277D01*
X63667670Y-94253051D01*
X63663619Y-94249852D01*
X63663615Y-94249848D01*
X63496414Y-94117800D01*
X63496410Y-94117798D01*
X63492359Y-94114598D01*
X63487835Y-94112101D01*
X63487831Y-94112098D01*
X63436608Y-94083822D01*
X63386636Y-94033390D01*
X63371500Y-93973513D01*
X63371500Y-93786594D01*
X63391502Y-93718473D01*
X63408405Y-93697499D01*
X69987259Y-87118646D01*
X76592253Y-80513652D01*
X76600539Y-80506112D01*
X76607018Y-80502000D01*
X76653644Y-80452348D01*
X76656398Y-80449507D01*
X76676135Y-80429770D01*
X76678615Y-80426573D01*
X76686320Y-80417551D01*
X76702676Y-80400134D01*
X76716586Y-80385321D01*
X76720405Y-80378375D01*
X76720407Y-80378372D01*
X76726348Y-80367566D01*
X76737199Y-80351047D01*
X76744758Y-80341301D01*
X76749614Y-80335041D01*
X76752759Y-80327772D01*
X76752762Y-80327768D01*
X76767174Y-80294463D01*
X76772391Y-80283813D01*
X76793695Y-80245060D01*
X76798733Y-80225437D01*
X76805137Y-80206734D01*
X76810033Y-80195420D01*
X76810033Y-80195419D01*
X76813181Y-80188145D01*
X76814420Y-80180322D01*
X76814423Y-80180312D01*
X76820099Y-80144476D01*
X76822505Y-80132856D01*
X76831528Y-80097711D01*
X76831528Y-80097710D01*
X76833500Y-80090030D01*
X76833500Y-80069776D01*
X76835051Y-80050065D01*
X76836980Y-80037886D01*
X76838220Y-80030057D01*
X76834059Y-79986038D01*
X76833500Y-79974181D01*
X76833500Y-79913594D01*
X76853502Y-79845473D01*
X76907158Y-79798980D01*
X76977432Y-79788876D01*
X77042012Y-79818370D01*
X77048595Y-79824499D01*
X80820848Y-83596752D01*
X80854874Y-83659064D01*
X80853459Y-83718459D01*
X80837882Y-83776591D01*
X80837881Y-83776598D01*
X80836457Y-83781913D01*
X80816502Y-84010000D01*
X80836457Y-84238087D01*
X80837881Y-84243400D01*
X80837881Y-84243402D01*
X80868953Y-84359361D01*
X80895716Y-84459243D01*
X80898039Y-84464224D01*
X80898039Y-84464225D01*
X80990151Y-84661762D01*
X80990154Y-84661767D01*
X80992477Y-84666749D01*
X81030836Y-84721531D01*
X81077179Y-84787715D01*
X81123802Y-84854300D01*
X81285700Y-85016198D01*
X81290208Y-85019355D01*
X81290211Y-85019357D01*
X81362080Y-85069680D01*
X81473251Y-85147523D01*
X81478233Y-85149846D01*
X81478238Y-85149849D01*
X81675552Y-85241857D01*
X81680757Y-85244284D01*
X81686064Y-85245706D01*
X81686075Y-85245710D01*
X81727896Y-85256916D01*
X81788519Y-85293868D01*
X81819540Y-85357728D01*
X81811110Y-85428223D01*
X81784379Y-85467717D01*
X79250803Y-88001292D01*
X76736500Y-90515595D01*
X76674188Y-90549621D01*
X76647405Y-90552500D01*
X76014768Y-90552500D01*
X76003585Y-90551973D01*
X75996092Y-90550298D01*
X75988166Y-90550547D01*
X75988165Y-90550547D01*
X75928002Y-90552438D01*
X75924044Y-90552500D01*
X75896144Y-90552500D01*
X75892154Y-90553004D01*
X75880320Y-90553936D01*
X75836111Y-90555326D01*
X75828495Y-90557539D01*
X75828493Y-90557539D01*
X75816652Y-90560979D01*
X75797293Y-90564988D01*
X75795983Y-90565154D01*
X75777203Y-90567526D01*
X75769837Y-90570442D01*
X75769831Y-90570444D01*
X75736098Y-90583800D01*
X75724868Y-90587645D01*
X75690017Y-90597770D01*
X75682407Y-90599981D01*
X75675584Y-90604016D01*
X75664966Y-90610295D01*
X75647213Y-90618992D01*
X75639568Y-90622019D01*
X75628383Y-90626448D01*
X75621968Y-90631109D01*
X75592612Y-90652437D01*
X75582695Y-90658951D01*
X75544638Y-90681458D01*
X75530317Y-90695779D01*
X75515284Y-90708619D01*
X75498893Y-90720528D01*
X75493842Y-90726634D01*
X75470702Y-90754605D01*
X75462712Y-90763384D01*
X72354345Y-93871750D01*
X72292033Y-93905776D01*
X72243154Y-93906702D01*
X72030373Y-93868800D01*
X72030367Y-93868799D01*
X72025284Y-93867894D01*
X71951452Y-93866992D01*
X71807081Y-93865228D01*
X71807079Y-93865228D01*
X71801911Y-93865165D01*
X71581091Y-93898955D01*
X71368756Y-93968357D01*
X71323819Y-93991750D01*
X71260346Y-94024792D01*
X71170607Y-94071507D01*
X71166474Y-94074610D01*
X71166471Y-94074612D01*
X71071246Y-94146109D01*
X70991965Y-94205635D01*
X70913036Y-94288230D01*
X70911283Y-94290064D01*
X70849759Y-94325494D01*
X70778846Y-94322037D01*
X70721060Y-94280791D01*
X70702207Y-94247243D01*
X70660767Y-94136703D01*
X70657615Y-94128295D01*
X70570261Y-94011739D01*
X70453705Y-93924385D01*
X70317316Y-93873255D01*
X70255134Y-93866500D01*
X68458866Y-93866500D01*
X68396684Y-93873255D01*
X68260295Y-93924385D01*
X68143739Y-94011739D01*
X68056385Y-94128295D01*
X68005255Y-94264684D01*
X67998500Y-94326866D01*
X67998500Y-96123134D01*
X68005255Y-96185316D01*
X68056385Y-96321705D01*
X68143739Y-96438261D01*
X68260295Y-96525615D01*
X68396684Y-96576745D01*
X68458866Y-96583500D01*
X70255134Y-96583500D01*
X70317316Y-96576745D01*
X70453705Y-96525615D01*
X70570261Y-96438261D01*
X70657615Y-96321705D01*
X70679799Y-96262529D01*
X70701598Y-96204382D01*
X70744240Y-96147618D01*
X70810802Y-96122918D01*
X70880150Y-96138126D01*
X70914817Y-96166114D01*
X70943250Y-96198938D01*
X71115126Y-96341632D01*
X71308000Y-96454338D01*
X71516692Y-96534030D01*
X71521760Y-96535061D01*
X71521763Y-96535062D01*
X71598209Y-96550615D01*
X71735597Y-96578567D01*
X71740772Y-96578757D01*
X71740774Y-96578757D01*
X71953673Y-96586564D01*
X71953677Y-96586564D01*
X71958837Y-96586753D01*
X71963957Y-96586097D01*
X71963959Y-96586097D01*
X72175288Y-96559025D01*
X72175289Y-96559025D01*
X72180416Y-96558368D01*
X72185966Y-96556703D01*
X72389429Y-96495661D01*
X72389434Y-96495659D01*
X72394384Y-96494174D01*
X72594994Y-96395896D01*
X72776860Y-96266173D01*
X72822579Y-96220614D01*
X72865884Y-96177460D01*
X72935096Y-96108489D01*
X72970665Y-96058990D01*
X73065453Y-95927077D01*
X73066640Y-95927930D01*
X73113960Y-95884362D01*
X73183897Y-95872145D01*
X73249338Y-95899678D01*
X73277166Y-95931511D01*
X73334694Y-96025388D01*
X73340777Y-96033699D01*
X73480213Y-96194667D01*
X73487580Y-96201883D01*
X73651434Y-96337916D01*
X73659881Y-96343831D01*
X73843756Y-96451279D01*
X73853042Y-96455729D01*
X74052001Y-96531703D01*
X74061899Y-96534579D01*
X74165250Y-96555606D01*
X74179299Y-96554410D01*
X74183000Y-96544065D01*
X74183000Y-96543517D01*
X74691000Y-96543517D01*
X74695064Y-96557359D01*
X74708478Y-96559393D01*
X74715184Y-96558534D01*
X74725262Y-96556392D01*
X74929255Y-96495191D01*
X74938842Y-96491433D01*
X75130095Y-96397739D01*
X75138945Y-96392464D01*
X75312328Y-96268792D01*
X75320200Y-96262139D01*
X75471052Y-96111812D01*
X75477730Y-96103965D01*
X75602003Y-95931020D01*
X75607313Y-95922183D01*
X75701670Y-95731267D01*
X75705469Y-95721672D01*
X75767377Y-95517910D01*
X75769555Y-95507837D01*
X75770986Y-95496962D01*
X75768775Y-95482778D01*
X75755617Y-95479000D01*
X74709115Y-95479000D01*
X74693876Y-95483475D01*
X74692671Y-95484865D01*
X74691000Y-95492548D01*
X74691000Y-96543517D01*
X74183000Y-96543517D01*
X74183000Y-95132703D01*
X77890743Y-95132703D01*
X77928268Y-95417734D01*
X78004129Y-95695036D01*
X78005813Y-95698984D01*
X78114173Y-95953028D01*
X78116923Y-95959476D01*
X78161345Y-96033699D01*
X78262001Y-96201883D01*
X78264561Y-96206161D01*
X78444313Y-96430528D01*
X78553960Y-96534579D01*
X78631857Y-96608500D01*
X78652851Y-96628423D01*
X78886317Y-96796186D01*
X78890112Y-96798195D01*
X78890113Y-96798196D01*
X78911869Y-96809715D01*
X79140392Y-96930712D01*
X79410373Y-97029511D01*
X79691264Y-97090755D01*
X79719841Y-97093004D01*
X79914282Y-97108307D01*
X79914291Y-97108307D01*
X79916739Y-97108500D01*
X80072271Y-97108500D01*
X80074407Y-97108354D01*
X80074418Y-97108354D01*
X80282548Y-97094165D01*
X80282554Y-97094164D01*
X80286825Y-97093873D01*
X80291020Y-97093004D01*
X80291022Y-97093004D01*
X80427583Y-97064724D01*
X80568342Y-97035574D01*
X80839343Y-96939607D01*
X81094812Y-96807750D01*
X81098313Y-96805289D01*
X81098317Y-96805287D01*
X81212418Y-96725095D01*
X81330023Y-96642441D01*
X81423468Y-96555606D01*
X81537479Y-96449661D01*
X81537481Y-96449658D01*
X81540622Y-96446740D01*
X81722713Y-96224268D01*
X81872927Y-95979142D01*
X81895408Y-95927930D01*
X81986757Y-95719830D01*
X81988483Y-95715898D01*
X82067244Y-95439406D01*
X82107751Y-95154784D01*
X82107845Y-95136951D01*
X82109235Y-94871583D01*
X82109235Y-94871576D01*
X82109257Y-94867297D01*
X82101204Y-94806124D01*
X82075461Y-94610590D01*
X82071732Y-94582266D01*
X81995871Y-94304964D01*
X81916038Y-94117800D01*
X81884763Y-94044476D01*
X81884761Y-94044472D01*
X81883077Y-94040524D01*
X81795367Y-93893972D01*
X81737643Y-93797521D01*
X81737640Y-93797517D01*
X81735439Y-93793839D01*
X81555687Y-93569472D01*
X81347149Y-93371577D01*
X81113683Y-93203814D01*
X81091843Y-93192250D01*
X81068654Y-93179972D01*
X80859608Y-93069288D01*
X80589627Y-92970489D01*
X80308736Y-92909245D01*
X80277685Y-92906801D01*
X80085718Y-92891693D01*
X80085709Y-92891693D01*
X80083261Y-92891500D01*
X79927729Y-92891500D01*
X79925593Y-92891646D01*
X79925582Y-92891646D01*
X79717452Y-92905835D01*
X79717446Y-92905836D01*
X79713175Y-92906127D01*
X79708980Y-92906996D01*
X79708978Y-92906996D01*
X79572417Y-92935276D01*
X79431658Y-92964426D01*
X79160657Y-93060393D01*
X78905188Y-93192250D01*
X78901687Y-93194711D01*
X78901683Y-93194713D01*
X78787582Y-93274905D01*
X78669977Y-93357559D01*
X78654892Y-93371577D01*
X78544330Y-93474318D01*
X78459378Y-93553260D01*
X78277287Y-93775732D01*
X78127073Y-94020858D01*
X78125347Y-94024791D01*
X78125346Y-94024792D01*
X78085924Y-94114598D01*
X78011517Y-94284102D01*
X78010342Y-94288229D01*
X78010341Y-94288230D01*
X77981717Y-94388717D01*
X77932756Y-94560594D01*
X77926686Y-94603247D01*
X77897813Y-94806124D01*
X77892249Y-94845216D01*
X77892227Y-94849505D01*
X77892226Y-94849512D01*
X77890765Y-95128417D01*
X77890743Y-95132703D01*
X74183000Y-95132703D01*
X74183000Y-94952885D01*
X74691000Y-94952885D01*
X74695475Y-94968124D01*
X74696865Y-94969329D01*
X74704548Y-94971000D01*
X75755344Y-94971000D01*
X75768875Y-94967027D01*
X75770180Y-94957947D01*
X75728214Y-94790875D01*
X75724894Y-94781124D01*
X75639972Y-94585814D01*
X75635105Y-94576739D01*
X75519426Y-94397926D01*
X75513136Y-94389757D01*
X75369806Y-94232240D01*
X75362273Y-94225215D01*
X75195139Y-94093222D01*
X75186552Y-94087517D01*
X75000117Y-93984599D01*
X74990705Y-93980369D01*
X74789959Y-93909280D01*
X74779988Y-93906646D01*
X74708837Y-93893972D01*
X74695540Y-93895432D01*
X74691000Y-93909989D01*
X74691000Y-94952885D01*
X74183000Y-94952885D01*
X74183000Y-93889987D01*
X74187447Y-93889987D01*
X74187440Y-93852275D01*
X74219248Y-93798656D01*
X76161499Y-91856405D01*
X76223811Y-91822379D01*
X76250594Y-91819500D01*
X76883233Y-91819500D01*
X76894416Y-91820027D01*
X76901909Y-91821702D01*
X76909835Y-91821453D01*
X76909836Y-91821453D01*
X76969986Y-91819562D01*
X76973945Y-91819500D01*
X77001856Y-91819500D01*
X77005791Y-91819003D01*
X77005856Y-91818995D01*
X77017693Y-91818062D01*
X77049951Y-91817048D01*
X77053970Y-91816922D01*
X77061889Y-91816673D01*
X77081343Y-91811021D01*
X77100700Y-91807013D01*
X77112930Y-91805468D01*
X77112931Y-91805468D01*
X77120797Y-91804474D01*
X77128168Y-91801555D01*
X77128170Y-91801555D01*
X77161912Y-91788196D01*
X77173142Y-91784351D01*
X77207983Y-91774229D01*
X77207984Y-91774229D01*
X77215593Y-91772018D01*
X77222412Y-91767985D01*
X77222417Y-91767983D01*
X77233028Y-91761707D01*
X77250776Y-91753012D01*
X77269617Y-91745552D01*
X77305387Y-91719564D01*
X77315307Y-91713048D01*
X77346535Y-91694580D01*
X77346538Y-91694578D01*
X77353362Y-91690542D01*
X77367683Y-91676221D01*
X77382717Y-91663380D01*
X77392694Y-91656131D01*
X77399107Y-91651472D01*
X77427298Y-91617395D01*
X77435288Y-91608616D01*
X83647253Y-85396652D01*
X83655539Y-85389112D01*
X83662018Y-85385000D01*
X83676510Y-85369568D01*
X83708643Y-85335349D01*
X83711398Y-85332507D01*
X83731135Y-85312770D01*
X83733615Y-85309573D01*
X83741320Y-85300551D01*
X83766159Y-85274100D01*
X83771586Y-85268321D01*
X83775405Y-85261375D01*
X83775407Y-85261372D01*
X83781348Y-85250566D01*
X83792199Y-85234047D01*
X83799758Y-85224301D01*
X83804614Y-85218041D01*
X83807759Y-85210772D01*
X83807762Y-85210768D01*
X83822174Y-85177463D01*
X83827391Y-85166813D01*
X83848695Y-85128060D01*
X83853733Y-85108437D01*
X83860137Y-85089734D01*
X83865033Y-85078420D01*
X83865033Y-85078419D01*
X83868181Y-85071145D01*
X83869420Y-85063322D01*
X83869423Y-85063312D01*
X83875099Y-85027476D01*
X83877505Y-85015856D01*
X83886528Y-84980711D01*
X83886528Y-84980710D01*
X83888500Y-84973030D01*
X83888500Y-84952776D01*
X83890051Y-84933065D01*
X83891980Y-84920886D01*
X83893220Y-84913057D01*
X83889059Y-84869038D01*
X83888500Y-84857181D01*
X83888500Y-42947767D01*
X83889027Y-42936584D01*
X83890702Y-42929091D01*
X83888562Y-42861014D01*
X83888500Y-42857055D01*
X83888500Y-42829144D01*
X83887995Y-42825144D01*
X83887062Y-42813301D01*
X83885922Y-42777029D01*
X83885673Y-42769110D01*
X83880022Y-42749658D01*
X83876014Y-42730306D01*
X83874467Y-42718063D01*
X83873474Y-42710203D01*
X83870556Y-42702832D01*
X83857200Y-42669097D01*
X83853355Y-42657870D01*
X83852721Y-42655687D01*
X83841018Y-42615407D01*
X83830707Y-42597972D01*
X83822012Y-42580224D01*
X83814552Y-42561383D01*
X83788564Y-42525613D01*
X83782048Y-42515693D01*
X83763580Y-42484465D01*
X83763578Y-42484462D01*
X83759542Y-42477638D01*
X83745221Y-42463317D01*
X83732380Y-42448283D01*
X83725131Y-42438306D01*
X83720472Y-42431893D01*
X83686395Y-42403702D01*
X83677616Y-42395712D01*
X77754983Y-36473078D01*
X77747443Y-36464792D01*
X77743331Y-36458313D01*
X77734118Y-36449661D01*
X77693680Y-36411688D01*
X77690838Y-36408933D01*
X77671101Y-36389196D01*
X77667904Y-36386716D01*
X77658882Y-36379011D01*
X77645453Y-36366400D01*
X77626652Y-36348745D01*
X77619706Y-36344926D01*
X77619703Y-36344924D01*
X77608897Y-36338983D01*
X77592378Y-36328132D01*
X77591914Y-36327772D01*
X77576372Y-36315717D01*
X77569103Y-36312572D01*
X77569099Y-36312569D01*
X77535794Y-36298157D01*
X77525144Y-36292940D01*
X77486391Y-36271636D01*
X77466768Y-36266598D01*
X77448065Y-36260194D01*
X77436751Y-36255298D01*
X77436750Y-36255298D01*
X77429476Y-36252150D01*
X77421653Y-36250911D01*
X77421643Y-36250908D01*
X77385807Y-36245232D01*
X77374187Y-36242826D01*
X77339042Y-36233803D01*
X77339041Y-36233803D01*
X77331361Y-36231831D01*
X77311107Y-36231831D01*
X77291396Y-36230280D01*
X77279217Y-36228351D01*
X77271388Y-36227111D01*
X77242117Y-36229878D01*
X77227370Y-36231272D01*
X77215512Y-36231831D01*
X58237776Y-36231831D01*
X58226593Y-36231304D01*
X58219100Y-36229629D01*
X58211174Y-36229878D01*
X58211173Y-36229878D01*
X58151023Y-36231769D01*
X58147064Y-36231831D01*
X58119153Y-36231831D01*
X58115219Y-36232328D01*
X58115218Y-36232328D01*
X58115153Y-36232336D01*
X58103316Y-36233269D01*
X58071058Y-36234283D01*
X58067039Y-36234409D01*
X58059120Y-36234658D01*
X58039666Y-36240310D01*
X58020309Y-36244318D01*
X58008079Y-36245863D01*
X58008078Y-36245863D01*
X58000212Y-36246857D01*
X57992841Y-36249776D01*
X57992839Y-36249776D01*
X57959097Y-36263135D01*
X57947867Y-36266980D01*
X57913026Y-36277102D01*
X57913025Y-36277102D01*
X57905416Y-36279313D01*
X57898597Y-36283346D01*
X57898592Y-36283348D01*
X57887981Y-36289624D01*
X57870233Y-36298319D01*
X57851392Y-36305779D01*
X57844976Y-36310441D01*
X57844975Y-36310441D01*
X57815622Y-36331767D01*
X57805702Y-36338283D01*
X57774474Y-36356751D01*
X57774471Y-36356753D01*
X57767647Y-36360789D01*
X57753326Y-36375110D01*
X57738293Y-36387950D01*
X57721902Y-36399859D01*
X57716851Y-36405964D01*
X57716846Y-36405969D01*
X57693710Y-36433935D01*
X57685722Y-36442713D01*
X57010896Y-37117539D01*
X56948584Y-37151565D01*
X56877769Y-37146500D01*
X56832706Y-37117539D01*
X56699300Y-36984133D01*
X56694792Y-36980976D01*
X56694789Y-36980974D01*
X56582475Y-36902331D01*
X56511749Y-36852808D01*
X56506767Y-36850485D01*
X56506762Y-36850482D01*
X56309225Y-36758370D01*
X56309224Y-36758370D01*
X56304243Y-36756047D01*
X56298935Y-36754625D01*
X56298933Y-36754624D01*
X56088402Y-36698212D01*
X56088400Y-36698212D01*
X56083087Y-36696788D01*
X55855000Y-36676833D01*
X55626913Y-36696788D01*
X55621600Y-36698212D01*
X55621598Y-36698212D01*
X55411067Y-36754624D01*
X55411065Y-36754625D01*
X55405757Y-36756047D01*
X55400776Y-36758370D01*
X55400775Y-36758370D01*
X55203238Y-36850482D01*
X55203233Y-36850485D01*
X55198251Y-36852808D01*
X55127525Y-36902331D01*
X55015211Y-36980974D01*
X55015208Y-36980976D01*
X55010700Y-36984133D01*
X54848802Y-37146031D01*
X54717477Y-37333582D01*
X54715154Y-37338564D01*
X54715151Y-37338569D01*
X54626973Y-37527670D01*
X54620716Y-37541088D01*
X54619294Y-37546396D01*
X54619293Y-37546398D01*
X54576756Y-37705146D01*
X54561457Y-37762244D01*
X54541502Y-37990331D01*
X54561457Y-38218418D01*
X54620716Y-38439574D01*
X54623039Y-38444555D01*
X54623039Y-38444556D01*
X54715151Y-38642093D01*
X54715154Y-38642098D01*
X54717477Y-38647080D01*
X54848802Y-38834631D01*
X55010700Y-38996529D01*
X55042771Y-39018986D01*
X55087099Y-39074441D01*
X55096500Y-39122198D01*
X55096500Y-39481660D01*
X55076498Y-39549781D01*
X55022842Y-39596274D01*
X54952568Y-39606378D01*
X54927407Y-39600062D01*
X54913759Y-39595095D01*
X54703312Y-39538706D01*
X54692519Y-39536803D01*
X54475475Y-39517814D01*
X54464525Y-39517814D01*
X54247481Y-39536803D01*
X54236688Y-39538706D01*
X54026239Y-39595095D01*
X54015947Y-39598841D01*
X53818489Y-39690917D01*
X53808994Y-39696400D01*
X53756952Y-39732840D01*
X53748576Y-39743319D01*
X53755644Y-39756765D01*
X54740115Y-40741236D01*
X54774141Y-40803548D01*
X54769076Y-40874363D01*
X54740115Y-40919426D01*
X53754923Y-41904618D01*
X53748493Y-41916393D01*
X53757789Y-41928408D01*
X53808994Y-41964262D01*
X53818489Y-41969745D01*
X54015947Y-42061821D01*
X54026239Y-42065567D01*
X54236688Y-42121956D01*
X54247481Y-42123859D01*
X54464525Y-42142848D01*
X54475475Y-42142848D01*
X54692519Y-42123859D01*
X54703312Y-42121956D01*
X54913759Y-42065567D01*
X54927407Y-42060600D01*
X54998260Y-42056098D01*
X55060300Y-42090617D01*
X55093829Y-42153197D01*
X55096500Y-42179002D01*
X55096500Y-45176995D01*
X55095067Y-45195945D01*
X55091801Y-45217414D01*
X55092394Y-45224706D01*
X55092394Y-45224709D01*
X55096085Y-45270083D01*
X55096500Y-45280298D01*
X55096500Y-45288358D01*
X55096925Y-45292002D01*
X55099789Y-45316572D01*
X55100222Y-45320947D01*
X55103826Y-45365249D01*
X55106140Y-45393702D01*
X55108396Y-45400666D01*
X55109587Y-45406625D01*
X55110971Y-45412480D01*
X55111818Y-45419746D01*
X55136735Y-45488392D01*
X55138152Y-45492520D01*
X55160649Y-45561964D01*
X55164445Y-45568219D01*
X55166951Y-45573693D01*
X55169670Y-45579123D01*
X55172167Y-45586002D01*
X55176180Y-45592122D01*
X55176180Y-45592123D01*
X55212186Y-45647041D01*
X55214523Y-45650745D01*
X55235720Y-45685675D01*
X55254000Y-45751039D01*
X55254000Y-46548000D01*
X55233998Y-46616121D01*
X55180342Y-46662614D01*
X55128000Y-46674000D01*
X53531904Y-46674000D01*
X53518560Y-46677918D01*
X53516573Y-46692194D01*
X53526110Y-46754515D01*
X53528499Y-46764543D01*
X53599898Y-46982988D01*
X53603895Y-46992497D01*
X53710011Y-47196344D01*
X53715505Y-47205069D01*
X53853493Y-47388852D01*
X53860336Y-47396559D01*
X54026491Y-47555339D01*
X54034498Y-47561823D01*
X54067356Y-47584237D01*
X54112359Y-47639148D01*
X54120532Y-47709672D01*
X54089278Y-47773420D01*
X54064796Y-47794116D01*
X54062365Y-47795689D01*
X54058023Y-47798498D01*
X53880330Y-47960186D01*
X53819653Y-48037017D01*
X53734633Y-48144670D01*
X53734630Y-48144675D01*
X53731432Y-48148724D01*
X53728939Y-48153240D01*
X53728937Y-48153243D01*
X53688004Y-48227393D01*
X53615326Y-48359050D01*
X53613602Y-48363919D01*
X53613600Y-48363923D01*
X53581180Y-48455475D01*
X53535130Y-48585515D01*
X53534223Y-48590608D01*
X53534222Y-48590611D01*
X53517694Y-48683402D01*
X53492999Y-48822037D01*
X53490064Y-49062263D01*
X53526404Y-49299744D01*
X53543634Y-49352460D01*
X53599434Y-49523183D01*
X53599437Y-49523189D01*
X53601042Y-49528101D01*
X53603429Y-49532687D01*
X53603431Y-49532691D01*
X53672088Y-49664579D01*
X53711975Y-49741200D01*
X53828415Y-49896283D01*
X53853320Y-49962765D01*
X53838328Y-50032161D01*
X53788198Y-50082435D01*
X53771885Y-50089915D01*
X53761707Y-50093731D01*
X53761704Y-50093733D01*
X53753295Y-50096885D01*
X53636739Y-50184239D01*
X53549385Y-50300795D01*
X53498255Y-50437184D01*
X53491500Y-50499366D01*
X53491500Y-52500634D01*
X53498255Y-52562816D01*
X53549385Y-52699205D01*
X53636739Y-52815761D01*
X53753295Y-52903115D01*
X53889684Y-52954245D01*
X53951866Y-52961000D01*
X55565000Y-52961000D01*
X55633121Y-52981002D01*
X55679614Y-53034658D01*
X55691000Y-53087000D01*
X55691000Y-55996539D01*
X55670998Y-56064660D01*
X55617342Y-56111153D01*
X55547068Y-56121257D01*
X55531328Y-56117956D01*
X55510595Y-56112206D01*
X55322202Y-56059960D01*
X55317065Y-56059411D01*
X55129407Y-56039356D01*
X55129399Y-56039356D01*
X55126072Y-56039000D01*
X54891598Y-56039000D01*
X54889025Y-56039212D01*
X54889014Y-56039212D01*
X54788054Y-56047513D01*
X54713063Y-56053678D01*
X54480056Y-56112206D01*
X54452557Y-56124163D01*
X54264474Y-56205943D01*
X54264471Y-56205945D01*
X54259737Y-56208003D01*
X54058023Y-56338498D01*
X53880330Y-56500186D01*
X53731432Y-56688724D01*
X53728936Y-56693245D01*
X53728935Y-56693247D01*
X53669236Y-56801393D01*
X53618803Y-56851364D01*
X53558927Y-56866500D01*
X51426116Y-56866500D01*
X51414933Y-56865973D01*
X51407440Y-56864298D01*
X51399514Y-56864547D01*
X51399513Y-56864547D01*
X51339363Y-56866438D01*
X51335404Y-56866500D01*
X51307493Y-56866500D01*
X51303559Y-56866997D01*
X51303558Y-56866997D01*
X51303493Y-56867005D01*
X51291656Y-56867938D01*
X51259839Y-56868938D01*
X51255378Y-56869078D01*
X51247459Y-56869327D01*
X51229803Y-56874456D01*
X51228007Y-56874978D01*
X51208655Y-56878986D01*
X51201584Y-56879880D01*
X51188552Y-56881526D01*
X51181183Y-56884443D01*
X51181181Y-56884444D01*
X51147446Y-56897800D01*
X51136218Y-56901645D01*
X51093756Y-56913982D01*
X51086934Y-56918016D01*
X51086928Y-56918019D01*
X51076317Y-56924294D01*
X51058567Y-56932990D01*
X51047105Y-56937528D01*
X51047100Y-56937531D01*
X51039732Y-56940448D01*
X51033317Y-56945109D01*
X51003974Y-56966427D01*
X50994056Y-56972943D01*
X50975368Y-56983995D01*
X50955986Y-56995458D01*
X50941662Y-57009782D01*
X50926630Y-57022621D01*
X50910242Y-57034528D01*
X50882061Y-57068593D01*
X50874071Y-57077373D01*
X38796849Y-69154595D01*
X38734537Y-69188621D01*
X38707754Y-69191500D01*
X37499215Y-69191500D01*
X37437033Y-69198255D01*
X37300644Y-69249385D01*
X37184088Y-69336739D01*
X37096734Y-69453295D01*
X37045604Y-69589684D01*
X37038849Y-69651866D01*
X37038849Y-71348134D01*
X37045604Y-71410316D01*
X37096734Y-71546705D01*
X37184088Y-71663261D01*
X37300644Y-71750615D01*
X37437033Y-71801745D01*
X37499215Y-71808500D01*
X37587849Y-71808500D01*
X37655970Y-71828502D01*
X37702463Y-71882158D01*
X37713849Y-71934500D01*
X37713849Y-72336057D01*
X37693847Y-72404178D01*
X37676944Y-72425152D01*
X35723595Y-74378500D01*
X35661283Y-74412526D01*
X35590467Y-74407461D01*
X35533632Y-74364914D01*
X35508821Y-74298394D01*
X35508500Y-74289405D01*
X35508500Y-60040000D01*
X36076654Y-60040000D01*
X36076924Y-60044119D01*
X36094069Y-60305700D01*
X36096017Y-60335426D01*
X36096819Y-60339459D01*
X36096820Y-60339465D01*
X36149239Y-60602988D01*
X36153776Y-60625797D01*
X36248941Y-60906145D01*
X36283439Y-60976099D01*
X36375240Y-61162253D01*
X36379885Y-61171673D01*
X36382179Y-61175106D01*
X36534592Y-61403208D01*
X36544367Y-61417838D01*
X36547081Y-61420932D01*
X36547085Y-61420938D01*
X36712743Y-61609833D01*
X36739573Y-61640427D01*
X36742662Y-61643136D01*
X36959062Y-61832915D01*
X36959068Y-61832919D01*
X36962162Y-61835633D01*
X36965588Y-61837922D01*
X36965593Y-61837926D01*
X37149405Y-61960744D01*
X37208327Y-62000115D01*
X37212026Y-62001939D01*
X37212031Y-62001942D01*
X37348313Y-62069148D01*
X37473855Y-62131059D01*
X37477760Y-62132384D01*
X37477761Y-62132385D01*
X37750290Y-62224896D01*
X37750294Y-62224897D01*
X37754203Y-62226224D01*
X37758247Y-62227028D01*
X37758253Y-62227030D01*
X38040535Y-62283180D01*
X38040541Y-62283181D01*
X38044574Y-62283983D01*
X38048679Y-62284252D01*
X38048686Y-62284253D01*
X38335881Y-62303076D01*
X38340000Y-62303346D01*
X38344119Y-62303076D01*
X38631314Y-62284253D01*
X38631321Y-62284252D01*
X38635426Y-62283983D01*
X38639459Y-62283181D01*
X38639465Y-62283180D01*
X38921747Y-62227030D01*
X38921753Y-62227028D01*
X38925797Y-62226224D01*
X38929706Y-62224897D01*
X38929710Y-62224896D01*
X39202239Y-62132385D01*
X39202240Y-62132384D01*
X39206145Y-62131059D01*
X39331687Y-62069148D01*
X39467969Y-62001942D01*
X39467974Y-62001939D01*
X39471673Y-62000115D01*
X39530595Y-61960744D01*
X39714407Y-61837926D01*
X39714412Y-61837922D01*
X39717838Y-61835633D01*
X39720932Y-61832919D01*
X39720938Y-61832915D01*
X39937338Y-61643136D01*
X39940427Y-61640427D01*
X39967257Y-61609833D01*
X40132915Y-61420938D01*
X40132919Y-61420932D01*
X40135633Y-61417838D01*
X40145409Y-61403208D01*
X40297821Y-61175106D01*
X40300115Y-61171673D01*
X40304761Y-61162253D01*
X40396561Y-60976099D01*
X40431059Y-60906145D01*
X40526224Y-60625797D01*
X40530761Y-60602988D01*
X40583180Y-60339465D01*
X40583181Y-60339459D01*
X40583983Y-60335426D01*
X40585932Y-60305700D01*
X40603076Y-60044119D01*
X40603346Y-60040000D01*
X40591526Y-59859658D01*
X40584253Y-59748686D01*
X40584252Y-59748679D01*
X40583983Y-59744574D01*
X40576808Y-59708500D01*
X40527030Y-59458253D01*
X40527028Y-59458247D01*
X40526224Y-59454203D01*
X40464123Y-59271257D01*
X40432385Y-59177761D01*
X40432384Y-59177760D01*
X40431059Y-59173855D01*
X40367309Y-59044583D01*
X40301942Y-58912031D01*
X40301939Y-58912026D01*
X40300115Y-58908327D01*
X40174113Y-58719751D01*
X40137926Y-58665593D01*
X40137922Y-58665588D01*
X40135633Y-58662162D01*
X40132919Y-58659068D01*
X40132915Y-58659062D01*
X39943136Y-58442662D01*
X39940427Y-58439573D01*
X39937338Y-58436864D01*
X39720938Y-58247085D01*
X39720932Y-58247081D01*
X39717838Y-58244367D01*
X39714412Y-58242078D01*
X39714407Y-58242074D01*
X39475106Y-58082179D01*
X39471673Y-58079885D01*
X39467974Y-58078061D01*
X39467969Y-58078058D01*
X39224997Y-57958238D01*
X39206145Y-57948941D01*
X39202239Y-57947615D01*
X38929710Y-57855104D01*
X38929706Y-57855103D01*
X38925797Y-57853776D01*
X38921753Y-57852972D01*
X38921747Y-57852970D01*
X38639465Y-57796820D01*
X38639459Y-57796819D01*
X38635426Y-57796017D01*
X38631321Y-57795748D01*
X38631314Y-57795747D01*
X38344119Y-57776924D01*
X38340000Y-57776654D01*
X38335881Y-57776924D01*
X38048686Y-57795747D01*
X38048679Y-57795748D01*
X38044574Y-57796017D01*
X38040541Y-57796819D01*
X38040535Y-57796820D01*
X37758253Y-57852970D01*
X37758247Y-57852972D01*
X37754203Y-57853776D01*
X37750294Y-57855103D01*
X37750290Y-57855104D01*
X37477761Y-57947615D01*
X37473855Y-57948941D01*
X37455003Y-57958238D01*
X37212031Y-58078058D01*
X37212026Y-58078061D01*
X37208327Y-58079885D01*
X37204894Y-58082179D01*
X36965593Y-58242074D01*
X36965588Y-58242078D01*
X36962162Y-58244367D01*
X36959068Y-58247081D01*
X36959062Y-58247085D01*
X36742662Y-58436864D01*
X36739573Y-58439573D01*
X36736864Y-58442662D01*
X36547085Y-58659062D01*
X36547081Y-58659068D01*
X36544367Y-58662162D01*
X36542078Y-58665588D01*
X36542074Y-58665593D01*
X36505887Y-58719751D01*
X36379885Y-58908327D01*
X36378061Y-58912026D01*
X36378058Y-58912031D01*
X36312691Y-59044583D01*
X36248941Y-59173855D01*
X36247616Y-59177760D01*
X36247615Y-59177761D01*
X36215878Y-59271257D01*
X36153776Y-59454203D01*
X36152972Y-59458247D01*
X36152970Y-59458253D01*
X36103193Y-59708500D01*
X36096017Y-59744574D01*
X36095748Y-59748679D01*
X36095747Y-59748686D01*
X36088474Y-59859658D01*
X36076654Y-60040000D01*
X35508500Y-60040000D01*
X35508500Y-48960000D01*
X36076654Y-48960000D01*
X36076924Y-48964119D01*
X36083357Y-49062263D01*
X36096017Y-49255426D01*
X36096819Y-49259459D01*
X36096820Y-49259465D01*
X36150256Y-49528101D01*
X36153776Y-49545797D01*
X36155103Y-49549706D01*
X36155104Y-49549710D01*
X36236412Y-49789235D01*
X36248941Y-49826145D01*
X36260994Y-49850586D01*
X36357241Y-50045755D01*
X36379885Y-50091673D01*
X36382179Y-50095106D01*
X36538457Y-50328993D01*
X36544367Y-50337838D01*
X36547081Y-50340932D01*
X36547085Y-50340938D01*
X36722323Y-50540757D01*
X36739573Y-50560427D01*
X36742662Y-50563136D01*
X36959062Y-50752915D01*
X36959068Y-50752919D01*
X36962162Y-50755633D01*
X36965588Y-50757922D01*
X36965593Y-50757926D01*
X37043016Y-50809658D01*
X37208327Y-50920115D01*
X37212026Y-50921939D01*
X37212031Y-50921942D01*
X37338937Y-50984525D01*
X37473855Y-51051059D01*
X37477760Y-51052384D01*
X37477761Y-51052385D01*
X37750290Y-51144896D01*
X37750294Y-51144897D01*
X37754203Y-51146224D01*
X37758247Y-51147028D01*
X37758253Y-51147030D01*
X38040535Y-51203180D01*
X38040541Y-51203181D01*
X38044574Y-51203983D01*
X38048679Y-51204252D01*
X38048686Y-51204253D01*
X38335881Y-51223076D01*
X38340000Y-51223346D01*
X38344119Y-51223076D01*
X38631314Y-51204253D01*
X38631321Y-51204252D01*
X38635426Y-51203983D01*
X38639459Y-51203181D01*
X38639465Y-51203180D01*
X38921747Y-51147030D01*
X38921753Y-51147028D01*
X38925797Y-51146224D01*
X38929706Y-51144897D01*
X38929710Y-51144896D01*
X39202239Y-51052385D01*
X39202240Y-51052384D01*
X39206145Y-51051059D01*
X39341063Y-50984525D01*
X39467969Y-50921942D01*
X39467974Y-50921939D01*
X39471673Y-50920115D01*
X39636984Y-50809658D01*
X39714407Y-50757926D01*
X39714412Y-50757922D01*
X39717838Y-50755633D01*
X39720932Y-50752919D01*
X39720938Y-50752915D01*
X39937338Y-50563136D01*
X39940427Y-50560427D01*
X39957677Y-50540757D01*
X40132915Y-50340938D01*
X40132919Y-50340932D01*
X40135633Y-50337838D01*
X40141544Y-50328993D01*
X40297821Y-50095106D01*
X40300115Y-50091673D01*
X40322760Y-50045755D01*
X40419006Y-49850586D01*
X40431059Y-49826145D01*
X40443588Y-49789235D01*
X40524896Y-49549710D01*
X40524897Y-49549706D01*
X40526224Y-49545797D01*
X40529744Y-49528101D01*
X40583180Y-49259465D01*
X40583181Y-49259459D01*
X40583983Y-49255426D01*
X40596644Y-49062263D01*
X40603076Y-48964119D01*
X40603346Y-48960000D01*
X40583983Y-48664574D01*
X40567288Y-48580640D01*
X40527030Y-48378253D01*
X40527028Y-48378247D01*
X40526224Y-48374203D01*
X40522735Y-48363923D01*
X40432385Y-48097761D01*
X40432384Y-48097760D01*
X40431059Y-48093855D01*
X40300115Y-47828327D01*
X40260744Y-47769405D01*
X40137926Y-47585593D01*
X40137922Y-47585588D01*
X40135633Y-47582162D01*
X40132919Y-47579068D01*
X40132915Y-47579062D01*
X39943136Y-47362662D01*
X39940427Y-47359573D01*
X39937338Y-47356864D01*
X39720938Y-47167085D01*
X39720932Y-47167081D01*
X39717838Y-47164367D01*
X39714412Y-47162078D01*
X39714407Y-47162074D01*
X39475106Y-47002179D01*
X39471673Y-46999885D01*
X39467974Y-46998061D01*
X39467969Y-46998058D01*
X39331687Y-46930852D01*
X39206145Y-46868941D01*
X39202239Y-46867615D01*
X38929710Y-46775104D01*
X38929706Y-46775103D01*
X38925797Y-46773776D01*
X38921753Y-46772972D01*
X38921747Y-46772970D01*
X38639465Y-46716820D01*
X38639459Y-46716819D01*
X38635426Y-46716017D01*
X38631321Y-46715748D01*
X38631314Y-46715747D01*
X38344119Y-46696924D01*
X38340000Y-46696654D01*
X38335881Y-46696924D01*
X38048686Y-46715747D01*
X38048679Y-46715748D01*
X38044574Y-46716017D01*
X38040541Y-46716819D01*
X38040535Y-46716820D01*
X37758253Y-46772970D01*
X37758247Y-46772972D01*
X37754203Y-46773776D01*
X37750294Y-46775103D01*
X37750290Y-46775104D01*
X37477761Y-46867615D01*
X37473855Y-46868941D01*
X37348313Y-46930852D01*
X37212031Y-46998058D01*
X37212026Y-46998061D01*
X37208327Y-46999885D01*
X37204894Y-47002179D01*
X36965593Y-47162074D01*
X36965588Y-47162078D01*
X36962162Y-47164367D01*
X36959068Y-47167081D01*
X36959062Y-47167085D01*
X36742662Y-47356864D01*
X36739573Y-47359573D01*
X36736864Y-47362662D01*
X36547085Y-47579062D01*
X36547081Y-47579068D01*
X36544367Y-47582162D01*
X36542078Y-47585588D01*
X36542074Y-47585593D01*
X36419256Y-47769405D01*
X36379885Y-47828327D01*
X36248941Y-48093855D01*
X36247616Y-48097760D01*
X36247615Y-48097761D01*
X36157266Y-48363923D01*
X36153776Y-48374203D01*
X36152972Y-48378247D01*
X36152970Y-48378253D01*
X36112713Y-48580640D01*
X36096017Y-48664574D01*
X36076654Y-48960000D01*
X35508500Y-48960000D01*
X35508500Y-46148163D01*
X53517353Y-46148163D01*
X53518813Y-46161460D01*
X53533370Y-46166000D01*
X54727885Y-46166000D01*
X54743124Y-46161525D01*
X54744329Y-46160135D01*
X54746000Y-46152452D01*
X54746000Y-44989588D01*
X54741675Y-44974859D01*
X54729889Y-44972798D01*
X54718296Y-44973751D01*
X54708134Y-44975433D01*
X54485229Y-45031422D01*
X54475481Y-45034741D01*
X54264711Y-45126385D01*
X54255636Y-45131251D01*
X54062673Y-45256085D01*
X54054502Y-45262378D01*
X53884520Y-45417050D01*
X53877494Y-45424583D01*
X53735055Y-45604944D01*
X53729350Y-45613531D01*
X53618286Y-45814722D01*
X53614056Y-45824134D01*
X53537341Y-46040768D01*
X53534707Y-46050739D01*
X53517353Y-46148163D01*
X35508500Y-46148163D01*
X35508500Y-41356318D01*
X45928721Y-41356318D01*
X45937548Y-41367936D01*
X46160281Y-41529761D01*
X46166961Y-41534001D01*
X46436572Y-41682221D01*
X46443707Y-41685578D01*
X46729770Y-41798839D01*
X46737296Y-41801284D01*
X47035279Y-41877793D01*
X47043050Y-41879276D01*
X47348278Y-41917834D01*
X47356169Y-41918331D01*
X47663831Y-41918331D01*
X47671722Y-41917834D01*
X47976950Y-41879276D01*
X47984721Y-41877793D01*
X48282704Y-41801284D01*
X48290230Y-41798839D01*
X48576293Y-41685578D01*
X48583428Y-41682221D01*
X48853039Y-41534001D01*
X48859719Y-41529761D01*
X49082823Y-41367667D01*
X49091246Y-41356744D01*
X49084342Y-41343883D01*
X47522812Y-39782353D01*
X47508868Y-39774739D01*
X47507035Y-39774870D01*
X47500420Y-39779121D01*
X45935334Y-41344207D01*
X45928721Y-41356318D01*
X35508500Y-41356318D01*
X35508500Y-39414289D01*
X44997290Y-39414289D01*
X45016607Y-39721325D01*
X45017600Y-39729186D01*
X45075246Y-40031377D01*
X45077217Y-40039054D01*
X45172284Y-40331640D01*
X45175199Y-40339003D01*
X45306189Y-40617372D01*
X45310001Y-40624305D01*
X45474851Y-40884067D01*
X45479495Y-40890460D01*
X45554497Y-40981121D01*
X45567014Y-40989576D01*
X45577752Y-40983369D01*
X47137978Y-39423143D01*
X47144356Y-39411463D01*
X47874408Y-39411463D01*
X47874539Y-39413296D01*
X47878790Y-39419911D01*
X49441145Y-40982266D01*
X49454407Y-40989508D01*
X49464512Y-40982319D01*
X49540505Y-40890460D01*
X49545149Y-40884067D01*
X49575776Y-40835806D01*
X53157483Y-40835806D01*
X53176472Y-41052850D01*
X53178375Y-41063643D01*
X53234764Y-41274092D01*
X53238510Y-41284384D01*
X53330586Y-41481842D01*
X53336069Y-41491337D01*
X53372509Y-41543379D01*
X53382988Y-41551755D01*
X53396434Y-41544687D01*
X54097978Y-40843143D01*
X54105592Y-40829199D01*
X54105461Y-40827366D01*
X54101210Y-40820751D01*
X53395713Y-40115254D01*
X53383938Y-40108824D01*
X53371923Y-40118120D01*
X53336069Y-40169325D01*
X53330586Y-40178820D01*
X53238510Y-40376278D01*
X53234764Y-40386570D01*
X53178375Y-40597019D01*
X53176472Y-40607812D01*
X53157483Y-40824856D01*
X53157483Y-40835806D01*
X49575776Y-40835806D01*
X49709999Y-40624305D01*
X49713811Y-40617372D01*
X49844801Y-40339003D01*
X49847716Y-40331640D01*
X49942783Y-40039054D01*
X49944754Y-40031377D01*
X50002400Y-39729186D01*
X50003393Y-39721325D01*
X50022710Y-39414289D01*
X50022710Y-39406373D01*
X50003393Y-39099337D01*
X50002400Y-39091476D01*
X49944754Y-38789285D01*
X49942783Y-38781608D01*
X49847716Y-38489022D01*
X49844801Y-38481659D01*
X49713811Y-38203290D01*
X49709999Y-38196357D01*
X49545149Y-37936595D01*
X49540505Y-37930202D01*
X49465503Y-37839541D01*
X49452986Y-37831086D01*
X49442248Y-37837293D01*
X47882022Y-39397519D01*
X47874408Y-39411463D01*
X47144356Y-39411463D01*
X47145592Y-39409199D01*
X47145461Y-39407366D01*
X47141210Y-39400751D01*
X45578855Y-37838396D01*
X45565593Y-37831154D01*
X45555488Y-37838343D01*
X45479495Y-37930202D01*
X45474851Y-37936595D01*
X45310001Y-38196357D01*
X45306189Y-38203290D01*
X45175199Y-38481659D01*
X45172284Y-38489022D01*
X45077217Y-38781608D01*
X45075246Y-38789285D01*
X45017600Y-39091476D01*
X45016607Y-39099337D01*
X44997290Y-39406373D01*
X44997290Y-39414289D01*
X35508500Y-39414289D01*
X35508500Y-37463918D01*
X45928754Y-37463918D01*
X45935658Y-37476779D01*
X47497188Y-39038309D01*
X47511132Y-39045923D01*
X47512965Y-39045792D01*
X47519580Y-39041541D01*
X49084666Y-37476455D01*
X49091279Y-37464344D01*
X49082452Y-37452726D01*
X48859719Y-37290901D01*
X48853039Y-37286661D01*
X48583428Y-37138441D01*
X48576293Y-37135084D01*
X48290230Y-37021823D01*
X48282704Y-37019378D01*
X47984721Y-36942869D01*
X47976950Y-36941386D01*
X47671722Y-36902828D01*
X47663831Y-36902331D01*
X47356169Y-36902331D01*
X47348278Y-36902828D01*
X47043050Y-36941386D01*
X47035279Y-36942869D01*
X46737296Y-37019378D01*
X46729770Y-37021823D01*
X46443707Y-37135084D01*
X46436572Y-37138441D01*
X46166961Y-37286661D01*
X46160281Y-37290901D01*
X45937177Y-37452995D01*
X45928754Y-37463918D01*
X35508500Y-37463918D01*
X35508500Y-35132703D01*
X37890743Y-35132703D01*
X37928268Y-35417734D01*
X38004129Y-35695036D01*
X38116923Y-35959476D01*
X38264561Y-36206161D01*
X38444313Y-36430528D01*
X38652851Y-36628423D01*
X38886317Y-36796186D01*
X38890112Y-36798195D01*
X38890113Y-36798196D01*
X38911869Y-36809715D01*
X39140392Y-36930712D01*
X39164699Y-36939607D01*
X39389365Y-37021823D01*
X39410373Y-37029511D01*
X39691264Y-37090755D01*
X39719841Y-37093004D01*
X39914282Y-37108307D01*
X39914291Y-37108307D01*
X39916739Y-37108500D01*
X40072271Y-37108500D01*
X40074407Y-37108354D01*
X40074418Y-37108354D01*
X40282548Y-37094165D01*
X40282554Y-37094164D01*
X40286825Y-37093873D01*
X40291020Y-37093004D01*
X40291022Y-37093004D01*
X40427583Y-37064724D01*
X40568342Y-37035574D01*
X40839343Y-36939607D01*
X41001397Y-36855965D01*
X41091005Y-36809715D01*
X41091006Y-36809715D01*
X41094812Y-36807750D01*
X41098313Y-36805289D01*
X41098317Y-36805287D01*
X41252695Y-36696788D01*
X41330023Y-36642441D01*
X41512279Y-36473078D01*
X41537479Y-36449661D01*
X41537481Y-36449658D01*
X41540622Y-36446740D01*
X41722713Y-36224268D01*
X41872927Y-35979142D01*
X41988483Y-35715898D01*
X42067244Y-35439406D01*
X42107751Y-35154784D01*
X42107845Y-35136951D01*
X42107867Y-35132703D01*
X77890743Y-35132703D01*
X77928268Y-35417734D01*
X78004129Y-35695036D01*
X78116923Y-35959476D01*
X78264561Y-36206161D01*
X78444313Y-36430528D01*
X78652851Y-36628423D01*
X78886317Y-36796186D01*
X78890112Y-36798195D01*
X78890113Y-36798196D01*
X78911869Y-36809715D01*
X79140392Y-36930712D01*
X79164699Y-36939607D01*
X79389365Y-37021823D01*
X79410373Y-37029511D01*
X79691264Y-37090755D01*
X79719841Y-37093004D01*
X79914282Y-37108307D01*
X79914291Y-37108307D01*
X79916739Y-37108500D01*
X80072271Y-37108500D01*
X80074407Y-37108354D01*
X80074418Y-37108354D01*
X80282548Y-37094165D01*
X80282554Y-37094164D01*
X80286825Y-37093873D01*
X80291020Y-37093004D01*
X80291022Y-37093004D01*
X80427583Y-37064724D01*
X80568342Y-37035574D01*
X80839343Y-36939607D01*
X81001397Y-36855965D01*
X81091005Y-36809715D01*
X81091006Y-36809715D01*
X81094812Y-36807750D01*
X81098313Y-36805289D01*
X81098317Y-36805287D01*
X81252695Y-36696788D01*
X81330023Y-36642441D01*
X81512279Y-36473078D01*
X81537479Y-36449661D01*
X81537481Y-36449658D01*
X81540622Y-36446740D01*
X81722713Y-36224268D01*
X81872927Y-35979142D01*
X81988483Y-35715898D01*
X82067244Y-35439406D01*
X82107751Y-35154784D01*
X82107845Y-35136951D01*
X82109235Y-34871583D01*
X82109235Y-34871576D01*
X82109257Y-34867297D01*
X82071732Y-34582266D01*
X81995871Y-34304964D01*
X81883077Y-34040524D01*
X81735439Y-33793839D01*
X81555687Y-33569472D01*
X81347149Y-33371577D01*
X81113683Y-33203814D01*
X81091843Y-33192250D01*
X81068654Y-33179972D01*
X80859608Y-33069288D01*
X80589627Y-32970489D01*
X80308736Y-32909245D01*
X80277685Y-32906801D01*
X80085718Y-32891693D01*
X80085709Y-32891693D01*
X80083261Y-32891500D01*
X79927729Y-32891500D01*
X79925593Y-32891646D01*
X79925582Y-32891646D01*
X79717452Y-32905835D01*
X79717446Y-32905836D01*
X79713175Y-32906127D01*
X79708980Y-32906996D01*
X79708978Y-32906996D01*
X79572417Y-32935276D01*
X79431658Y-32964426D01*
X79160657Y-33060393D01*
X78905188Y-33192250D01*
X78901687Y-33194711D01*
X78901683Y-33194713D01*
X78891594Y-33201804D01*
X78669977Y-33357559D01*
X78459378Y-33553260D01*
X78277287Y-33775732D01*
X78127073Y-34020858D01*
X78011517Y-34284102D01*
X77932756Y-34560594D01*
X77892249Y-34845216D01*
X77892227Y-34849505D01*
X77892226Y-34849512D01*
X77890765Y-35128417D01*
X77890743Y-35132703D01*
X42107867Y-35132703D01*
X42109235Y-34871583D01*
X42109235Y-34871576D01*
X42109257Y-34867297D01*
X42071732Y-34582266D01*
X41995871Y-34304964D01*
X41883077Y-34040524D01*
X41735439Y-33793839D01*
X41555687Y-33569472D01*
X41347149Y-33371577D01*
X41113683Y-33203814D01*
X41091843Y-33192250D01*
X41068654Y-33179972D01*
X40859608Y-33069288D01*
X40589627Y-32970489D01*
X40308736Y-32909245D01*
X40277685Y-32906801D01*
X40085718Y-32891693D01*
X40085709Y-32891693D01*
X40083261Y-32891500D01*
X39927729Y-32891500D01*
X39925593Y-32891646D01*
X39925582Y-32891646D01*
X39717452Y-32905835D01*
X39717446Y-32905836D01*
X39713175Y-32906127D01*
X39708980Y-32906996D01*
X39708978Y-32906996D01*
X39572417Y-32935276D01*
X39431658Y-32964426D01*
X39160657Y-33060393D01*
X38905188Y-33192250D01*
X38901687Y-33194711D01*
X38901683Y-33194713D01*
X38891594Y-33201804D01*
X38669977Y-33357559D01*
X38459378Y-33553260D01*
X38277287Y-33775732D01*
X38127073Y-34020858D01*
X38011517Y-34284102D01*
X37932756Y-34560594D01*
X37892249Y-34845216D01*
X37892227Y-34849505D01*
X37892226Y-34849512D01*
X37890765Y-35128417D01*
X37890743Y-35132703D01*
X35508500Y-35132703D01*
X35508500Y-30634500D01*
X35528502Y-30566379D01*
X35582158Y-30519886D01*
X35634500Y-30508500D01*
X84365500Y-30508500D01*
X84433621Y-30528502D01*
G37*
%TD.AperFunction*%
%TA.AperFunction,Conductor*%
G36*
X65738727Y-64343502D02*
G01*
X65773819Y-64377229D01*
X65883802Y-64534300D01*
X66045700Y-64696198D01*
X66050208Y-64699355D01*
X66050211Y-64699357D01*
X66128389Y-64754098D01*
X66233251Y-64827523D01*
X66238233Y-64829846D01*
X66238238Y-64829849D01*
X66272457Y-64845805D01*
X66325742Y-64892722D01*
X66345203Y-64960999D01*
X66324661Y-65028959D01*
X66272457Y-65074195D01*
X66238238Y-65090151D01*
X66238233Y-65090154D01*
X66233251Y-65092477D01*
X66128389Y-65165902D01*
X66050211Y-65220643D01*
X66050208Y-65220645D01*
X66045700Y-65223802D01*
X65883802Y-65385700D01*
X65752477Y-65573251D01*
X65750154Y-65578233D01*
X65750151Y-65578238D01*
X65689776Y-65707715D01*
X65655716Y-65780757D01*
X65654294Y-65786065D01*
X65654293Y-65786067D01*
X65634208Y-65861026D01*
X65596457Y-66001913D01*
X65576502Y-66230000D01*
X65596457Y-66458087D01*
X65655716Y-66679243D01*
X65658039Y-66684224D01*
X65658039Y-66684225D01*
X65750151Y-66881762D01*
X65750154Y-66881767D01*
X65752477Y-66886749D01*
X65883802Y-67074300D01*
X66045700Y-67236198D01*
X66050208Y-67239355D01*
X66050211Y-67239357D01*
X66128389Y-67294098D01*
X66233251Y-67367523D01*
X66238233Y-67369846D01*
X66238238Y-67369849D01*
X66272457Y-67385805D01*
X66325742Y-67432722D01*
X66345203Y-67500999D01*
X66324661Y-67568959D01*
X66272457Y-67614195D01*
X66238238Y-67630151D01*
X66238233Y-67630154D01*
X66233251Y-67632477D01*
X66128389Y-67705902D01*
X66050211Y-67760643D01*
X66050208Y-67760645D01*
X66045700Y-67763802D01*
X65883802Y-67925700D01*
X65752477Y-68113251D01*
X65750154Y-68118233D01*
X65750151Y-68118238D01*
X65658039Y-68315775D01*
X65655716Y-68320757D01*
X65596457Y-68541913D01*
X65576502Y-68770000D01*
X65596457Y-68998087D01*
X65597881Y-69003400D01*
X65597881Y-69003402D01*
X65650836Y-69201029D01*
X65655716Y-69219243D01*
X65658039Y-69224224D01*
X65658039Y-69224225D01*
X65750151Y-69421762D01*
X65750154Y-69421767D01*
X65752477Y-69426749D01*
X65755634Y-69431257D01*
X65866566Y-69589684D01*
X65883802Y-69614300D01*
X66045700Y-69776198D01*
X66050208Y-69779355D01*
X66050211Y-69779357D01*
X66128389Y-69834098D01*
X66233251Y-69907523D01*
X66238233Y-69909846D01*
X66238238Y-69909849D01*
X66272457Y-69925805D01*
X66325742Y-69972722D01*
X66345203Y-70040999D01*
X66324661Y-70108959D01*
X66272457Y-70154195D01*
X66238238Y-70170151D01*
X66238233Y-70170154D01*
X66233251Y-70172477D01*
X66154990Y-70227276D01*
X66050211Y-70300643D01*
X66050208Y-70300645D01*
X66045700Y-70303802D01*
X65883802Y-70465700D01*
X65880645Y-70470208D01*
X65880643Y-70470211D01*
X65831105Y-70540959D01*
X65752477Y-70653251D01*
X65750154Y-70658233D01*
X65750151Y-70658238D01*
X65660225Y-70851087D01*
X65655716Y-70860757D01*
X65654294Y-70866065D01*
X65654293Y-70866067D01*
X65625328Y-70974166D01*
X65596457Y-71081913D01*
X65576502Y-71310000D01*
X65596457Y-71538087D01*
X65597881Y-71543400D01*
X65597881Y-71543402D01*
X65648280Y-71731490D01*
X65655716Y-71759243D01*
X65658039Y-71764224D01*
X65658039Y-71764225D01*
X65750151Y-71961762D01*
X65750154Y-71961767D01*
X65752477Y-71966749D01*
X65883802Y-72154300D01*
X66045700Y-72316198D01*
X66050208Y-72319355D01*
X66050211Y-72319357D01*
X66084498Y-72343365D01*
X66233251Y-72447523D01*
X66238233Y-72449846D01*
X66238238Y-72449849D01*
X66272457Y-72465805D01*
X66325742Y-72512722D01*
X66345203Y-72580999D01*
X66324661Y-72648959D01*
X66272457Y-72694195D01*
X66238238Y-72710151D01*
X66238233Y-72710154D01*
X66233251Y-72712477D01*
X66157542Y-72765489D01*
X66050211Y-72840643D01*
X66050208Y-72840645D01*
X66045700Y-72843802D01*
X65883802Y-73005700D01*
X65752477Y-73193251D01*
X65750154Y-73198233D01*
X65750151Y-73198238D01*
X65658039Y-73395775D01*
X65655716Y-73400757D01*
X65654294Y-73406065D01*
X65654293Y-73406067D01*
X65602318Y-73600038D01*
X65596457Y-73621913D01*
X65576502Y-73850000D01*
X65596457Y-74078087D01*
X65597881Y-74083400D01*
X65597881Y-74083402D01*
X65628953Y-74199361D01*
X65655716Y-74299243D01*
X65658039Y-74304224D01*
X65658039Y-74304225D01*
X65750151Y-74501762D01*
X65750154Y-74501767D01*
X65752477Y-74506749D01*
X65813287Y-74593595D01*
X65830742Y-74618522D01*
X65883802Y-74694300D01*
X66045700Y-74856198D01*
X66050208Y-74859355D01*
X66050211Y-74859357D01*
X66100061Y-74894262D01*
X66233251Y-74987523D01*
X66238233Y-74989846D01*
X66238238Y-74989849D01*
X66272457Y-75005805D01*
X66325742Y-75052722D01*
X66345203Y-75120999D01*
X66324661Y-75188959D01*
X66272457Y-75234195D01*
X66238238Y-75250151D01*
X66238233Y-75250154D01*
X66233251Y-75252477D01*
X66128389Y-75325902D01*
X66050211Y-75380643D01*
X66050208Y-75380645D01*
X66045700Y-75383802D01*
X65883802Y-75545700D01*
X65880645Y-75550208D01*
X65880643Y-75550211D01*
X65843716Y-75602948D01*
X65752477Y-75733251D01*
X65750154Y-75738233D01*
X65750151Y-75738238D01*
X65706910Y-75830970D01*
X65655716Y-75940757D01*
X65654294Y-75946065D01*
X65654293Y-75946067D01*
X65600457Y-76146984D01*
X65596457Y-76161913D01*
X65576502Y-76390000D01*
X65596457Y-76618087D01*
X65597881Y-76623400D01*
X65597881Y-76623402D01*
X65637096Y-76769751D01*
X65655716Y-76839243D01*
X65658039Y-76844224D01*
X65658039Y-76844225D01*
X65750151Y-77041762D01*
X65750154Y-77041767D01*
X65752477Y-77046749D01*
X65883802Y-77234300D01*
X66045700Y-77396198D01*
X66050208Y-77399355D01*
X66050211Y-77399357D01*
X66122080Y-77449680D01*
X66233251Y-77527523D01*
X66238233Y-77529846D01*
X66238238Y-77529849D01*
X66272457Y-77545805D01*
X66325742Y-77592722D01*
X66345203Y-77660999D01*
X66324661Y-77728959D01*
X66272457Y-77774195D01*
X66238238Y-77790151D01*
X66238233Y-77790154D01*
X66233251Y-77792477D01*
X66128389Y-77865902D01*
X66050211Y-77920643D01*
X66050208Y-77920645D01*
X66045700Y-77923802D01*
X65883802Y-78085700D01*
X65752477Y-78273251D01*
X65750154Y-78278233D01*
X65750151Y-78278238D01*
X65658039Y-78475775D01*
X65655716Y-78480757D01*
X65654294Y-78486065D01*
X65654293Y-78486067D01*
X65623639Y-78600469D01*
X65596457Y-78701913D01*
X65576502Y-78930000D01*
X65596457Y-79158087D01*
X65597881Y-79163400D01*
X65597881Y-79163402D01*
X65628953Y-79279361D01*
X65655716Y-79379243D01*
X65658039Y-79384224D01*
X65658039Y-79384225D01*
X65750151Y-79581762D01*
X65750154Y-79581767D01*
X65752477Y-79586749D01*
X65883802Y-79774300D01*
X66045700Y-79936198D01*
X66050208Y-79939355D01*
X66050211Y-79939357D01*
X66099945Y-79974181D01*
X66233251Y-80067523D01*
X66238233Y-80069846D01*
X66238238Y-80069849D01*
X66272457Y-80085805D01*
X66325742Y-80132722D01*
X66345203Y-80200999D01*
X66324661Y-80268959D01*
X66272457Y-80314195D01*
X66238238Y-80330151D01*
X66238233Y-80330154D01*
X66233251Y-80332477D01*
X66149529Y-80391100D01*
X66050211Y-80460643D01*
X66050208Y-80460645D01*
X66045700Y-80463802D01*
X65883802Y-80625700D01*
X65752477Y-80813251D01*
X65750154Y-80818233D01*
X65750151Y-80818238D01*
X65681018Y-80966496D01*
X65655716Y-81020757D01*
X65654294Y-81026065D01*
X65654293Y-81026067D01*
X65649206Y-81045051D01*
X65596457Y-81241913D01*
X65576502Y-81470000D01*
X65596457Y-81698087D01*
X65597881Y-81703400D01*
X65597881Y-81703402D01*
X65628953Y-81819361D01*
X65655716Y-81919243D01*
X65658039Y-81924224D01*
X65658039Y-81924225D01*
X65750151Y-82121762D01*
X65750154Y-82121767D01*
X65752477Y-82126749D01*
X65755634Y-82131257D01*
X65875853Y-82302947D01*
X65883802Y-82314300D01*
X66045700Y-82476198D01*
X66050208Y-82479355D01*
X66050211Y-82479357D01*
X66142941Y-82544287D01*
X66187269Y-82599744D01*
X66194578Y-82670363D01*
X66162547Y-82733724D01*
X66101346Y-82769709D01*
X66070670Y-82773500D01*
X61554732Y-82773500D01*
X61486611Y-82753498D01*
X61440118Y-82699842D01*
X61430014Y-82629568D01*
X61441775Y-82591673D01*
X61463136Y-82548452D01*
X61465430Y-82543811D01*
X61511442Y-82392368D01*
X61528865Y-82335023D01*
X61528865Y-82335021D01*
X61530370Y-82330069D01*
X61559529Y-82108590D01*
X61561156Y-82042000D01*
X61542852Y-81819361D01*
X61488431Y-81602702D01*
X61399354Y-81397840D01*
X61359906Y-81336862D01*
X61280822Y-81214617D01*
X61280820Y-81214614D01*
X61278014Y-81210277D01*
X61127670Y-81045051D01*
X61123619Y-81041852D01*
X61123615Y-81041848D01*
X60956414Y-80909800D01*
X60956410Y-80909798D01*
X60952359Y-80906598D01*
X60911053Y-80883796D01*
X60861084Y-80833364D01*
X60846312Y-80763921D01*
X60871428Y-80697516D01*
X60898780Y-80670909D01*
X60942603Y-80639650D01*
X61077860Y-80543173D01*
X61107485Y-80513652D01*
X61194860Y-80426581D01*
X61236096Y-80385489D01*
X61295594Y-80302689D01*
X61363435Y-80208277D01*
X61366453Y-80204077D01*
X61378199Y-80180312D01*
X61463136Y-80008453D01*
X61463137Y-80008451D01*
X61465430Y-80003811D01*
X61519909Y-79824499D01*
X61528865Y-79795023D01*
X61528865Y-79795021D01*
X61530370Y-79790069D01*
X61559529Y-79568590D01*
X61561156Y-79502000D01*
X61542852Y-79279361D01*
X61488431Y-79062702D01*
X61399354Y-78857840D01*
X61359906Y-78796862D01*
X61280822Y-78674617D01*
X61280820Y-78674614D01*
X61278014Y-78670277D01*
X61127670Y-78505051D01*
X61123619Y-78501852D01*
X61123615Y-78501848D01*
X60956414Y-78369800D01*
X60956410Y-78369798D01*
X60952359Y-78366598D01*
X60911053Y-78343796D01*
X60861084Y-78293364D01*
X60846312Y-78223921D01*
X60871428Y-78157516D01*
X60898780Y-78130909D01*
X60942603Y-78099650D01*
X61077860Y-78003173D01*
X61236096Y-77845489D01*
X61271785Y-77795823D01*
X61363435Y-77668277D01*
X61366453Y-77664077D01*
X61387320Y-77621857D01*
X61463136Y-77468453D01*
X61463137Y-77468451D01*
X61465430Y-77463811D01*
X61530370Y-77250069D01*
X61559529Y-77028590D01*
X61561156Y-76962000D01*
X61542852Y-76739361D01*
X61488431Y-76522702D01*
X61399354Y-76317840D01*
X61334990Y-76218348D01*
X61280822Y-76134617D01*
X61280820Y-76134614D01*
X61278014Y-76130277D01*
X61127670Y-75965051D01*
X61123619Y-75961852D01*
X61123615Y-75961848D01*
X60956414Y-75829800D01*
X60956410Y-75829798D01*
X60952359Y-75826598D01*
X60911053Y-75803796D01*
X60861084Y-75753364D01*
X60846312Y-75683921D01*
X60871428Y-75617516D01*
X60898780Y-75590909D01*
X60942603Y-75559650D01*
X61077860Y-75463173D01*
X61097762Y-75443341D01*
X61232435Y-75309137D01*
X61236096Y-75305489D01*
X61295594Y-75222689D01*
X61363435Y-75128277D01*
X61366453Y-75124077D01*
X61387320Y-75081857D01*
X61463136Y-74928453D01*
X61463137Y-74928451D01*
X61465430Y-74923811D01*
X61520153Y-74743697D01*
X61528865Y-74715023D01*
X61528865Y-74715021D01*
X61530370Y-74710069D01*
X61559529Y-74488590D01*
X61559611Y-74485240D01*
X61561074Y-74425365D01*
X61561074Y-74425361D01*
X61561156Y-74422000D01*
X61542852Y-74199361D01*
X61488431Y-73982702D01*
X61399354Y-73777840D01*
X61359906Y-73716862D01*
X61280822Y-73594617D01*
X61280820Y-73594614D01*
X61278014Y-73590277D01*
X61274532Y-73586450D01*
X61130798Y-73428488D01*
X61099746Y-73364642D01*
X61108141Y-73294143D01*
X61153317Y-73239375D01*
X61179761Y-73225706D01*
X61286297Y-73185767D01*
X61294705Y-73182615D01*
X61411261Y-73095261D01*
X61498615Y-72978705D01*
X61549745Y-72842316D01*
X61556500Y-72780134D01*
X61556500Y-70983866D01*
X61549745Y-70921684D01*
X61498615Y-70785295D01*
X61411261Y-70668739D01*
X61294705Y-70581385D01*
X61158316Y-70530255D01*
X61096134Y-70523500D01*
X59299866Y-70523500D01*
X59237684Y-70530255D01*
X59225830Y-70534699D01*
X59225475Y-70534832D01*
X59154668Y-70540017D01*
X59092298Y-70506097D01*
X59058168Y-70443842D01*
X59063113Y-70373018D01*
X59092148Y-70327756D01*
X65059499Y-64360405D01*
X65121811Y-64326379D01*
X65148594Y-64323500D01*
X65670606Y-64323500D01*
X65738727Y-64343502D01*
G37*
%TD.AperFunction*%
%TA.AperFunction,Conductor*%
G36*
X80978727Y-66883502D02*
G01*
X81013819Y-66917229D01*
X81123802Y-67074300D01*
X81285700Y-67236198D01*
X81290208Y-67239355D01*
X81290211Y-67239357D01*
X81368389Y-67294098D01*
X81473251Y-67367523D01*
X81478233Y-67369846D01*
X81478238Y-67369849D01*
X81512457Y-67385805D01*
X81565742Y-67432722D01*
X81585203Y-67500999D01*
X81564661Y-67568959D01*
X81512457Y-67614195D01*
X81478238Y-67630151D01*
X81478233Y-67630154D01*
X81473251Y-67632477D01*
X81368389Y-67705902D01*
X81290211Y-67760643D01*
X81290208Y-67760645D01*
X81285700Y-67763802D01*
X81123802Y-67925700D01*
X80992477Y-68113251D01*
X80990154Y-68118233D01*
X80990151Y-68118238D01*
X80898039Y-68315775D01*
X80895716Y-68320757D01*
X80836457Y-68541913D01*
X80816502Y-68770000D01*
X80836457Y-68998087D01*
X80837879Y-69003392D01*
X80837881Y-69003406D01*
X80853459Y-69061539D01*
X80851771Y-69132516D01*
X80820848Y-69183248D01*
X80749994Y-69254101D01*
X80687681Y-69288126D01*
X80616866Y-69283060D01*
X80609651Y-69280112D01*
X80514823Y-69237892D01*
X80514815Y-69237889D01*
X80508788Y-69235206D01*
X80408707Y-69213933D01*
X80328444Y-69196872D01*
X80328439Y-69196872D01*
X80321987Y-69195500D01*
X80131013Y-69195500D01*
X80124561Y-69196872D01*
X80124556Y-69196872D01*
X80044293Y-69213933D01*
X79944212Y-69235206D01*
X79938182Y-69237891D01*
X79938181Y-69237891D01*
X79775778Y-69310197D01*
X79775776Y-69310198D01*
X79769748Y-69312882D01*
X79615247Y-69425134D01*
X79487460Y-69567056D01*
X79391973Y-69732444D01*
X79332958Y-69914072D01*
X79332268Y-69920633D01*
X79332268Y-69920635D01*
X79318016Y-70056239D01*
X79312996Y-70104000D01*
X79313686Y-70110565D01*
X79331991Y-70284724D01*
X79332958Y-70293928D01*
X79391973Y-70475556D01*
X79395276Y-70481278D01*
X79395277Y-70481279D01*
X79419867Y-70523869D01*
X79487460Y-70640944D01*
X79491878Y-70645851D01*
X79491879Y-70645852D01*
X79529665Y-70687818D01*
X79615247Y-70782866D01*
X79630163Y-70793703D01*
X79720766Y-70859530D01*
X79769748Y-70895118D01*
X79775776Y-70897802D01*
X79775778Y-70897803D01*
X79938179Y-70970108D01*
X79944212Y-70972794D01*
X80037612Y-70992647D01*
X80124556Y-71011128D01*
X80124561Y-71011128D01*
X80131013Y-71012500D01*
X80321987Y-71012500D01*
X80328439Y-71011128D01*
X80328444Y-71011128D01*
X80415388Y-70992647D01*
X80508788Y-70972794D01*
X80514815Y-70970111D01*
X80514823Y-70970108D01*
X80672716Y-70899810D01*
X80743083Y-70890376D01*
X80807380Y-70920483D01*
X80845193Y-70980572D01*
X80845670Y-71047530D01*
X80836457Y-71081913D01*
X80816502Y-71310000D01*
X80836457Y-71538087D01*
X80837881Y-71543400D01*
X80837881Y-71543402D01*
X80888280Y-71731490D01*
X80895716Y-71759243D01*
X80898039Y-71764224D01*
X80898039Y-71764225D01*
X80990151Y-71961762D01*
X80990154Y-71961767D01*
X80992477Y-71966749D01*
X81123802Y-72154300D01*
X81285700Y-72316198D01*
X81290208Y-72319355D01*
X81290211Y-72319357D01*
X81324498Y-72343365D01*
X81473251Y-72447523D01*
X81478233Y-72449846D01*
X81478238Y-72449849D01*
X81512457Y-72465805D01*
X81565742Y-72512722D01*
X81585203Y-72580999D01*
X81564661Y-72648959D01*
X81512457Y-72694195D01*
X81478238Y-72710151D01*
X81478233Y-72710154D01*
X81473251Y-72712477D01*
X81397542Y-72765489D01*
X81290211Y-72840643D01*
X81290208Y-72840645D01*
X81285700Y-72843802D01*
X81123802Y-73005700D01*
X80992477Y-73193251D01*
X80990154Y-73198233D01*
X80990151Y-73198238D01*
X80898039Y-73395775D01*
X80895716Y-73400757D01*
X80894294Y-73406065D01*
X80894293Y-73406067D01*
X80842318Y-73600038D01*
X80836457Y-73621913D01*
X80816502Y-73850000D01*
X80836457Y-74078087D01*
X80837881Y-74083400D01*
X80837881Y-74083402D01*
X80868953Y-74199361D01*
X80895716Y-74299243D01*
X80898039Y-74304224D01*
X80898039Y-74304225D01*
X80990151Y-74501762D01*
X80990154Y-74501767D01*
X80992477Y-74506749D01*
X81053287Y-74593595D01*
X81070742Y-74618522D01*
X81123802Y-74694300D01*
X81285700Y-74856198D01*
X81290208Y-74859355D01*
X81290211Y-74859357D01*
X81340061Y-74894262D01*
X81473251Y-74987523D01*
X81478233Y-74989846D01*
X81478238Y-74989849D01*
X81512457Y-75005805D01*
X81565742Y-75052722D01*
X81585203Y-75120999D01*
X81564661Y-75188959D01*
X81512457Y-75234195D01*
X81478238Y-75250151D01*
X81478233Y-75250154D01*
X81473251Y-75252477D01*
X81368389Y-75325902D01*
X81290211Y-75380643D01*
X81290208Y-75380645D01*
X81285700Y-75383802D01*
X81123802Y-75545700D01*
X81120645Y-75550208D01*
X81120643Y-75550211D01*
X81083716Y-75602948D01*
X80992477Y-75733251D01*
X80990154Y-75738233D01*
X80990151Y-75738238D01*
X80946910Y-75830970D01*
X80895716Y-75940757D01*
X80894294Y-75946065D01*
X80894293Y-75946067D01*
X80840457Y-76146984D01*
X80836457Y-76161913D01*
X80816502Y-76390000D01*
X80836457Y-76618087D01*
X80837881Y-76623400D01*
X80837881Y-76623402D01*
X80877096Y-76769751D01*
X80895716Y-76839243D01*
X80898039Y-76844224D01*
X80898039Y-76844225D01*
X80990151Y-77041762D01*
X80990154Y-77041767D01*
X80992477Y-77046749D01*
X81123802Y-77234300D01*
X81285700Y-77396198D01*
X81290208Y-77399355D01*
X81290211Y-77399357D01*
X81362080Y-77449680D01*
X81473251Y-77527523D01*
X81478233Y-77529846D01*
X81478238Y-77529849D01*
X81512457Y-77545805D01*
X81565742Y-77592722D01*
X81585203Y-77660999D01*
X81564661Y-77728959D01*
X81512457Y-77774195D01*
X81478238Y-77790151D01*
X81478233Y-77790154D01*
X81473251Y-77792477D01*
X81368389Y-77865902D01*
X81290211Y-77920643D01*
X81290208Y-77920645D01*
X81285700Y-77923802D01*
X81123802Y-78085700D01*
X80992477Y-78273251D01*
X80990154Y-78278233D01*
X80990151Y-78278238D01*
X80898039Y-78475775D01*
X80895716Y-78480757D01*
X80894294Y-78486065D01*
X80894293Y-78486067D01*
X80863639Y-78600469D01*
X80836457Y-78701913D01*
X80816502Y-78930000D01*
X80836457Y-79158087D01*
X80837881Y-79163400D01*
X80837881Y-79163402D01*
X80868953Y-79279361D01*
X80895716Y-79379243D01*
X80898039Y-79384224D01*
X80898039Y-79384225D01*
X80990151Y-79581762D01*
X80990154Y-79581767D01*
X80992477Y-79586749D01*
X81123802Y-79774300D01*
X81285700Y-79936198D01*
X81290208Y-79939355D01*
X81290211Y-79939357D01*
X81339945Y-79974181D01*
X81473251Y-80067523D01*
X81478233Y-80069846D01*
X81478238Y-80069849D01*
X81512457Y-80085805D01*
X81565742Y-80132722D01*
X81585203Y-80200999D01*
X81564661Y-80268959D01*
X81512457Y-80314195D01*
X81478238Y-80330151D01*
X81478233Y-80330154D01*
X81473251Y-80332477D01*
X81389529Y-80391100D01*
X81290211Y-80460643D01*
X81290208Y-80460645D01*
X81285700Y-80463802D01*
X81123802Y-80625700D01*
X80992477Y-80813251D01*
X80990154Y-80818233D01*
X80990151Y-80818238D01*
X80921018Y-80966496D01*
X80895716Y-81020757D01*
X80894294Y-81026065D01*
X80894293Y-81026067D01*
X80889206Y-81045051D01*
X80836457Y-81241913D01*
X80816502Y-81470000D01*
X80816981Y-81475475D01*
X80816981Y-81475486D01*
X80818026Y-81487430D01*
X80804038Y-81557035D01*
X80754639Y-81608027D01*
X80685513Y-81624218D01*
X80618607Y-81600466D01*
X80603411Y-81587507D01*
X79419436Y-80403531D01*
X78017704Y-79001799D01*
X77983678Y-78939487D01*
X77980799Y-78912704D01*
X77980799Y-77795823D01*
X78000801Y-77727702D01*
X78013157Y-77711520D01*
X78086339Y-77630243D01*
X78181826Y-77464855D01*
X78240841Y-77283227D01*
X78243806Y-77255023D01*
X78260113Y-77099864D01*
X78260803Y-77093299D01*
X78256384Y-77051257D01*
X78241531Y-76909934D01*
X78241531Y-76909932D01*
X78240841Y-76903371D01*
X78181826Y-76721743D01*
X78170190Y-76701588D01*
X78134806Y-76640303D01*
X78086339Y-76556355D01*
X78031777Y-76495757D01*
X77962974Y-76419344D01*
X77962973Y-76419343D01*
X77958552Y-76414433D01*
X77842049Y-76329788D01*
X77809393Y-76306062D01*
X77809392Y-76306061D01*
X77804051Y-76302181D01*
X77798023Y-76299497D01*
X77798021Y-76299496D01*
X77635618Y-76227190D01*
X77635617Y-76227190D01*
X77629587Y-76224505D01*
X77529163Y-76203159D01*
X77449243Y-76186171D01*
X77449238Y-76186171D01*
X77442786Y-76184799D01*
X77251812Y-76184799D01*
X77245360Y-76186171D01*
X77245355Y-76186171D01*
X77165435Y-76203159D01*
X77065011Y-76224505D01*
X77058981Y-76227190D01*
X77058980Y-76227190D01*
X77010749Y-76248664D01*
X76940382Y-76258098D01*
X76876085Y-76227992D01*
X76838271Y-76167903D01*
X76833500Y-76133557D01*
X76833500Y-72862524D01*
X76853502Y-72794403D01*
X76865858Y-72778221D01*
X76939040Y-72696944D01*
X77007135Y-72579001D01*
X77031223Y-72537279D01*
X77031224Y-72537278D01*
X77034527Y-72531556D01*
X77093542Y-72349928D01*
X77113504Y-72160000D01*
X77103682Y-72066547D01*
X77094232Y-71976635D01*
X77094232Y-71976633D01*
X77093542Y-71970072D01*
X77034527Y-71788444D01*
X76939040Y-71623056D01*
X76865863Y-71541785D01*
X76835147Y-71477779D01*
X76833500Y-71457476D01*
X76833500Y-70672594D01*
X76853502Y-70604473D01*
X76870405Y-70583499D01*
X80553499Y-66900405D01*
X80615811Y-66866379D01*
X80642594Y-66863500D01*
X80910606Y-66863500D01*
X80978727Y-66883502D01*
G37*
%TD.AperFunction*%
%TA.AperFunction,Conductor*%
G36*
X56782597Y-42061135D02*
G01*
X56785773Y-42062291D01*
X56790757Y-42064615D01*
X56873153Y-42086693D01*
X57006598Y-42122450D01*
X57006600Y-42122450D01*
X57011913Y-42123874D01*
X57240000Y-42143829D01*
X57468087Y-42123874D01*
X57473400Y-42122450D01*
X57473402Y-42122450D01*
X57606847Y-42086693D01*
X57689243Y-42064615D01*
X57694227Y-42062291D01*
X57697403Y-42061135D01*
X57768257Y-42056630D01*
X57830298Y-42091147D01*
X57863829Y-42153727D01*
X57866500Y-42179535D01*
X57866500Y-64024897D01*
X57846498Y-64093018D01*
X57829595Y-64113992D01*
X51307595Y-70635992D01*
X51245283Y-70670018D01*
X51174468Y-70664953D01*
X51117632Y-70622406D01*
X51092821Y-70555886D01*
X51092500Y-70546897D01*
X51092500Y-70316371D01*
X51112502Y-70248250D01*
X51129405Y-70227276D01*
X55488911Y-65867770D01*
X55503323Y-65855384D01*
X55514918Y-65846851D01*
X55514923Y-65846846D01*
X55520818Y-65842508D01*
X55525557Y-65836930D01*
X55525560Y-65836927D01*
X55555035Y-65802232D01*
X55561965Y-65794716D01*
X55567660Y-65789021D01*
X55585281Y-65766749D01*
X55588072Y-65763345D01*
X55630591Y-65713297D01*
X55630592Y-65713295D01*
X55635333Y-65707715D01*
X55638661Y-65701199D01*
X55642028Y-65696150D01*
X55645195Y-65691021D01*
X55649734Y-65685284D01*
X55680655Y-65619125D01*
X55682561Y-65615225D01*
X55715769Y-65550192D01*
X55717508Y-65543084D01*
X55719607Y-65537441D01*
X55721524Y-65531678D01*
X55724622Y-65525050D01*
X55739487Y-65453583D01*
X55740457Y-65449299D01*
X55756473Y-65383845D01*
X55757808Y-65378390D01*
X55758500Y-65367236D01*
X55758536Y-65367238D01*
X55758775Y-65363245D01*
X55759149Y-65359053D01*
X55760640Y-65351885D01*
X55758546Y-65274479D01*
X55758500Y-65271072D01*
X55758500Y-64167000D01*
X55778502Y-64098879D01*
X55832158Y-64052386D01*
X55884500Y-64041000D01*
X56048134Y-64041000D01*
X56110316Y-64034245D01*
X56246705Y-63983115D01*
X56363261Y-63895761D01*
X56450615Y-63779205D01*
X56501745Y-63642816D01*
X56508500Y-63580634D01*
X56508500Y-62196371D01*
X56528502Y-62128250D01*
X56545405Y-62107276D01*
X56938411Y-61714270D01*
X56952823Y-61701884D01*
X56964418Y-61693351D01*
X56964423Y-61693346D01*
X56970318Y-61689008D01*
X56975057Y-61683430D01*
X56975060Y-61683427D01*
X57004535Y-61648732D01*
X57011465Y-61641216D01*
X57017161Y-61635520D01*
X57019424Y-61632659D01*
X57019429Y-61632654D01*
X57034793Y-61613234D01*
X57037582Y-61609833D01*
X57080092Y-61559796D01*
X57080094Y-61559794D01*
X57084833Y-61554215D01*
X57088162Y-61547695D01*
X57091528Y-61542648D01*
X57094693Y-61537524D01*
X57099235Y-61531783D01*
X57102387Y-61525040D01*
X57130134Y-61465670D01*
X57132065Y-61461718D01*
X57161942Y-61403208D01*
X57161943Y-61403206D01*
X57165269Y-61396692D01*
X57167008Y-61389586D01*
X57169109Y-61383936D01*
X57171024Y-61378179D01*
X57174122Y-61371550D01*
X57188991Y-61300065D01*
X57189961Y-61295782D01*
X57207308Y-61224890D01*
X57208000Y-61213736D01*
X57208035Y-61213738D01*
X57208275Y-61209766D01*
X57208652Y-61205545D01*
X57210141Y-61198385D01*
X57208046Y-61120958D01*
X57208000Y-61117550D01*
X57208000Y-45905635D01*
X57209433Y-45886685D01*
X57211599Y-45872450D01*
X57211599Y-45872446D01*
X57212699Y-45865216D01*
X57209358Y-45824134D01*
X57208415Y-45812547D01*
X57208000Y-45802332D01*
X57208000Y-45794272D01*
X57204709Y-45766045D01*
X57204278Y-45761686D01*
X57198953Y-45696225D01*
X57198360Y-45688929D01*
X57196105Y-45681968D01*
X57194918Y-45676028D01*
X57193529Y-45670153D01*
X57192682Y-45662884D01*
X57167764Y-45594235D01*
X57166347Y-45590107D01*
X57146107Y-45527629D01*
X57146106Y-45527627D01*
X57143851Y-45520666D01*
X57140055Y-45514411D01*
X57137549Y-45508937D01*
X57134830Y-45503507D01*
X57132333Y-45496628D01*
X57128320Y-45490507D01*
X57092314Y-45435589D01*
X57089967Y-45431870D01*
X57086780Y-45426618D01*
X57052095Y-45369458D01*
X57044697Y-45361081D01*
X57044724Y-45361057D01*
X57042071Y-45358065D01*
X57039368Y-45354832D01*
X57035356Y-45348713D01*
X56979117Y-45295437D01*
X56976675Y-45293059D01*
X56650405Y-44966789D01*
X56616379Y-44904477D01*
X56613500Y-44877694D01*
X56613500Y-42179535D01*
X56633502Y-42111414D01*
X56687158Y-42064921D01*
X56757432Y-42054817D01*
X56782597Y-42061135D01*
G37*
%TD.AperFunction*%
%TA.AperFunction,Conductor*%
G36*
X70636713Y-37518833D02*
G01*
X70683206Y-37572489D01*
X70693310Y-37642763D01*
X70665677Y-37705146D01*
X70479504Y-37930191D01*
X70474847Y-37936602D01*
X70310001Y-38196357D01*
X70306189Y-38203290D01*
X70175199Y-38481659D01*
X70172284Y-38489022D01*
X70077217Y-38781608D01*
X70075246Y-38789285D01*
X70017600Y-39091476D01*
X70016607Y-39099337D01*
X69997290Y-39406373D01*
X69997290Y-39414289D01*
X70016607Y-39721325D01*
X70017600Y-39729186D01*
X70075246Y-40031377D01*
X70077217Y-40039054D01*
X70172284Y-40331640D01*
X70175199Y-40339003D01*
X70306189Y-40617372D01*
X70310001Y-40624305D01*
X70474851Y-40884067D01*
X70479495Y-40890460D01*
X70554497Y-40981121D01*
X70567014Y-40989576D01*
X70577752Y-40983369D01*
X72420905Y-39140216D01*
X72483217Y-39106190D01*
X72554032Y-39111255D01*
X72599095Y-39140216D01*
X74441145Y-40982266D01*
X74454407Y-40989508D01*
X74464512Y-40982319D01*
X74540505Y-40890460D01*
X74545149Y-40884067D01*
X74709999Y-40624305D01*
X74713811Y-40617372D01*
X74844801Y-40339003D01*
X74847716Y-40331640D01*
X74942783Y-40039054D01*
X74944754Y-40031377D01*
X75002400Y-39729186D01*
X75003393Y-39721325D01*
X75022710Y-39414289D01*
X75022710Y-39406373D01*
X75003393Y-39099337D01*
X75002400Y-39091476D01*
X74944754Y-38789285D01*
X74942783Y-38781608D01*
X74847716Y-38489022D01*
X74844801Y-38481659D01*
X74713811Y-38203290D01*
X74709999Y-38196357D01*
X74545153Y-37936602D01*
X74540496Y-37930191D01*
X74354323Y-37705146D01*
X74326313Y-37639909D01*
X74338020Y-37569884D01*
X74385727Y-37517304D01*
X74451408Y-37498831D01*
X76936737Y-37498831D01*
X77004858Y-37518833D01*
X77025832Y-37535736D01*
X82584595Y-43094500D01*
X82618621Y-43156812D01*
X82621500Y-43183595D01*
X82621500Y-47062832D01*
X82601498Y-47130953D01*
X82547842Y-47177446D01*
X82477568Y-47187550D01*
X82462895Y-47184540D01*
X82358087Y-47156457D01*
X82130000Y-47136502D01*
X81901913Y-47156457D01*
X81896600Y-47157881D01*
X81896598Y-47157881D01*
X81686067Y-47214293D01*
X81686065Y-47214294D01*
X81680757Y-47215716D01*
X81675776Y-47218039D01*
X81675775Y-47218039D01*
X81478238Y-47310151D01*
X81478233Y-47310154D01*
X81473251Y-47312477D01*
X81409860Y-47356864D01*
X81290211Y-47440643D01*
X81290208Y-47440645D01*
X81285700Y-47443802D01*
X81123802Y-47605700D01*
X80992477Y-47793251D01*
X80990154Y-47798233D01*
X80990151Y-47798238D01*
X80898039Y-47995775D01*
X80895716Y-48000757D01*
X80894294Y-48006065D01*
X80894293Y-48006067D01*
X80857154Y-48144670D01*
X80836457Y-48221913D01*
X80816502Y-48450000D01*
X80836457Y-48678087D01*
X80837881Y-48683400D01*
X80837881Y-48683402D01*
X80875029Y-48822037D01*
X80895716Y-48899243D01*
X80898039Y-48904224D01*
X80898039Y-48904225D01*
X80990151Y-49101762D01*
X80990154Y-49101767D01*
X80992477Y-49106749D01*
X81123802Y-49294300D01*
X81285700Y-49456198D01*
X81290208Y-49459355D01*
X81290211Y-49459357D01*
X81331542Y-49488297D01*
X81473251Y-49587523D01*
X81478233Y-49589846D01*
X81478238Y-49589849D01*
X81513049Y-49606081D01*
X81566334Y-49652998D01*
X81585795Y-49721275D01*
X81565253Y-49789235D01*
X81513049Y-49834471D01*
X81478489Y-49850586D01*
X81468993Y-49856069D01*
X81290533Y-49981028D01*
X81282125Y-49988084D01*
X81128084Y-50142125D01*
X81121028Y-50150533D01*
X80996069Y-50328993D01*
X80990586Y-50338489D01*
X80898510Y-50535947D01*
X80894764Y-50546239D01*
X80848606Y-50718503D01*
X80848942Y-50732599D01*
X80856884Y-50736000D01*
X82258000Y-50736000D01*
X82326121Y-50756002D01*
X82372614Y-50809658D01*
X82384000Y-50862000D01*
X82384000Y-51118000D01*
X82363998Y-51186121D01*
X82310342Y-51232614D01*
X82258000Y-51244000D01*
X80862033Y-51244000D01*
X80848502Y-51247973D01*
X80847273Y-51256522D01*
X80894764Y-51433761D01*
X80898510Y-51444053D01*
X80990586Y-51641511D01*
X80996069Y-51651007D01*
X81121028Y-51829467D01*
X81128084Y-51837875D01*
X81282125Y-51991916D01*
X81290533Y-51998972D01*
X81468993Y-52123931D01*
X81478489Y-52129414D01*
X81513049Y-52145529D01*
X81566334Y-52192446D01*
X81585795Y-52260723D01*
X81565253Y-52328683D01*
X81513049Y-52373919D01*
X81478238Y-52390151D01*
X81478233Y-52390154D01*
X81473251Y-52392477D01*
X81368389Y-52465902D01*
X81290211Y-52520643D01*
X81290208Y-52520645D01*
X81285700Y-52523802D01*
X81123802Y-52685700D01*
X81120645Y-52690208D01*
X81120643Y-52690211D01*
X81109314Y-52706391D01*
X80992477Y-52873251D01*
X80990154Y-52878233D01*
X80990151Y-52878238D01*
X80954709Y-52954245D01*
X80895716Y-53080757D01*
X80836457Y-53301913D01*
X80816502Y-53530000D01*
X80836457Y-53758087D01*
X80895716Y-53979243D01*
X80898039Y-53984224D01*
X80898039Y-53984225D01*
X80990151Y-54181762D01*
X80990154Y-54181767D01*
X80992477Y-54186749D01*
X81123802Y-54374300D01*
X81285700Y-54536198D01*
X81290208Y-54539355D01*
X81290211Y-54539357D01*
X81368389Y-54594098D01*
X81473251Y-54667523D01*
X81478233Y-54669846D01*
X81478238Y-54669849D01*
X81512457Y-54685805D01*
X81565742Y-54732722D01*
X81585203Y-54800999D01*
X81564661Y-54868959D01*
X81512457Y-54914195D01*
X81478238Y-54930151D01*
X81478233Y-54930154D01*
X81473251Y-54932477D01*
X81368389Y-55005902D01*
X81290211Y-55060643D01*
X81290208Y-55060645D01*
X81285700Y-55063802D01*
X81123802Y-55225700D01*
X81120643Y-55230212D01*
X81120641Y-55230214D01*
X81093573Y-55268870D01*
X81038116Y-55313198D01*
X80967496Y-55320506D01*
X80901266Y-55285693D01*
X66971892Y-41356318D01*
X70928721Y-41356318D01*
X70937548Y-41367936D01*
X71160281Y-41529761D01*
X71166961Y-41534001D01*
X71436572Y-41682221D01*
X71443707Y-41685578D01*
X71729770Y-41798839D01*
X71737296Y-41801284D01*
X72035279Y-41877793D01*
X72043050Y-41879276D01*
X72348278Y-41917834D01*
X72356169Y-41918331D01*
X72663831Y-41918331D01*
X72671722Y-41917834D01*
X72976950Y-41879276D01*
X72984721Y-41877793D01*
X73282704Y-41801284D01*
X73290230Y-41798839D01*
X73576293Y-41685578D01*
X73583428Y-41682221D01*
X73853039Y-41534001D01*
X73859719Y-41529761D01*
X74082823Y-41367667D01*
X74091246Y-41356744D01*
X74084342Y-41343883D01*
X72522812Y-39782353D01*
X72508868Y-39774739D01*
X72507035Y-39774870D01*
X72500420Y-39779121D01*
X70935334Y-41344207D01*
X70928721Y-41356318D01*
X66971892Y-41356318D01*
X66895405Y-41279831D01*
X66861379Y-41217519D01*
X66858500Y-41190736D01*
X66858500Y-39982197D01*
X66851745Y-39920015D01*
X66800615Y-39783626D01*
X66713261Y-39667070D01*
X66596705Y-39579716D01*
X66460316Y-39528586D01*
X66398134Y-39521831D01*
X64924500Y-39521831D01*
X64856379Y-39501829D01*
X64809886Y-39448173D01*
X64798500Y-39395831D01*
X64798500Y-39209725D01*
X64818502Y-39141604D01*
X64852229Y-39106512D01*
X65004789Y-38999688D01*
X65004792Y-38999686D01*
X65009300Y-38996529D01*
X65171198Y-38834631D01*
X65302523Y-38647080D01*
X65304846Y-38642098D01*
X65304849Y-38642093D01*
X65396961Y-38444556D01*
X65396961Y-38444555D01*
X65399284Y-38439574D01*
X65458543Y-38218418D01*
X65478498Y-37990331D01*
X65458543Y-37762244D01*
X65430461Y-37657441D01*
X65432151Y-37586466D01*
X65471945Y-37527670D01*
X65537209Y-37499722D01*
X65552168Y-37498831D01*
X70568592Y-37498831D01*
X70636713Y-37518833D01*
G37*
%TD.AperFunction*%
%TD*%
M02*
