M48
; DRILL file {KiCad (6.0.9)} date Mon May  8 16:49:13 2023
; FORMAT={-:-/ absolute / metric / decimal}
; #@! TF.CreationDate,2023-05-08T16:49:13+02:00
; #@! TF.GenerationSoftware,Kicad,Pcbnew,(6.0.9)
; #@! TF.FileFunction,MixedPlating,1,2
FMAT,2
METRIC
; #@! TA.AperFunction,Plated,PTH,ViaDrill
T1C0.400
; #@! TA.AperFunction,Plated,PTH,ComponentDrill
T2C0.800
; #@! TA.AperFunction,Plated,PTH,ComponentDrill
T3C1.000
; #@! TA.AperFunction,Plated,PTH,ComponentDrill
T4C1.100
; #@! TA.AperFunction,Plated,PTH,ComponentDrill
T5C3.200
; #@! TA.AperFunction,NonPlated,NPTH,ComponentDrill
T6C3.200
; #@! TA.AperFunction,NonPlated,NPTH,ComponentDrill
T7C3.500
%
G90
G05
T1
X43.18Y-85.598
X43.18Y-87.122
X57.658Y-48.26
X61.468Y-68.58
X63.246Y-66.802
X63.5Y-69.85
X63.5Y-88.138
X63.754Y-75.184
X64.262Y-77.724
X64.77Y-79.756
X71.374Y-75.946
X71.628Y-64.77
X71.628Y-69.342
X76.2Y-72.16
X77.216Y-74.422
X77.347Y-77.093
X80.01Y-79.502
X80.227Y-70.104
X80.264Y-58.674
T2
X38.347Y-70.5
X40.847Y-70.5
X47.284Y-70.5
X49.784Y-70.5
T3
X37.592Y-76.962
X37.592Y-79.502
X40.64Y-83.82
X40.64Y-86.36
X40.64Y-88.9
X45.72Y-83.82
X45.72Y-86.36
X45.72Y-88.9
X45.974Y-95.25
X48.514Y-95.25
X51.054Y-95.25
X53.594Y-95.25
X54.47Y-40.83
X55.855Y-37.99
X57.24Y-40.83
X57.658Y-71.882
X57.658Y-74.422
X57.658Y-76.962
X57.658Y-79.502
X57.658Y-82.042
X57.658Y-84.582
X57.658Y-87.122
X57.658Y-89.662
X57.658Y-95.25
X58.625Y-37.99
X60.01Y-40.83
X60.198Y-71.882
X60.198Y-74.422
X60.198Y-76.962
X60.198Y-79.502
X60.198Y-82.042
X60.198Y-84.582
X60.198Y-87.122
X60.198Y-89.662
X60.198Y-95.25
X61.395Y-37.99
X62.738Y-95.25
X62.78Y-40.83
X64.165Y-37.99
X65.278Y-95.25
X65.55Y-40.83
X66.89Y-48.45
X66.89Y-50.99
X66.89Y-53.53
X66.89Y-56.07
X66.89Y-58.61
X66.89Y-61.15
X66.89Y-63.69
X66.89Y-66.23
X66.89Y-68.77
X66.89Y-71.31
X66.89Y-73.85
X66.89Y-76.39
X66.89Y-78.93
X66.89Y-81.47
X66.89Y-84.01
X69.357Y-95.225
X71.897Y-95.225
X74.437Y-95.225
X82.13Y-48.45
X82.13Y-50.99
X82.13Y-53.53
X82.13Y-56.07
X82.13Y-58.61
X82.13Y-61.15
X82.13Y-63.69
X82.13Y-66.23
X82.13Y-68.77
X82.13Y-71.31
X82.13Y-73.85
X82.13Y-76.39
X82.13Y-78.93
X82.13Y-81.47
X82.13Y-84.01
T4
X55.0Y-46.42
X55.0Y-48.96
X55.0Y-51.5
X55.0Y-57.5
X55.0Y-60.04
X55.0Y-62.58
T5
X47.51Y-39.41
X72.51Y-39.41
T6
X40.0Y-35.0
X40.0Y-95.0
X80.0Y-35.0
X80.0Y-95.0
T7
X38.34Y-48.96
X38.34Y-60.04
T0
M30
