%TF.GenerationSoftware,KiCad,Pcbnew,(6.0.9)*%
%TF.CreationDate,2023-05-08T16:49:11+02:00*%
%TF.ProjectId,onstepPiConnector,6f6e7374-6570-4506-9943-6f6e6e656374,rev?*%
%TF.SameCoordinates,Original*%
%TF.FileFunction,Legend,Top*%
%TF.FilePolarity,Positive*%
%FSLAX46Y46*%
G04 Gerber Fmt 4.6, Leading zero omitted, Abs format (unit mm)*
G04 Created by KiCad (PCBNEW (6.0.9)) date 2023-05-08 16:49:11*
%MOMM*%
%LPD*%
G01*
G04 APERTURE LIST*
%ADD10C,0.150000*%
%ADD11C,0.125000*%
%ADD12C,0.120000*%
G04 APERTURE END LIST*
D10*
X43109523Y-90852380D02*
X42633333Y-90852380D01*
X42585714Y-91328571D01*
X42633333Y-91280952D01*
X42728571Y-91233333D01*
X42966666Y-91233333D01*
X43061904Y-91280952D01*
X43109523Y-91328571D01*
X43157142Y-91423809D01*
X43157142Y-91661904D01*
X43109523Y-91757142D01*
X43061904Y-91804761D01*
X42966666Y-91852380D01*
X42728571Y-91852380D01*
X42633333Y-91804761D01*
X42585714Y-91757142D01*
X43442857Y-90852380D02*
X43776190Y-91852380D01*
X44109523Y-90852380D01*
X41723809Y-80552380D02*
X42342857Y-80552380D01*
X42009523Y-80933333D01*
X42152380Y-80933333D01*
X42247619Y-80980952D01*
X42295238Y-81028571D01*
X42342857Y-81123809D01*
X42342857Y-81361904D01*
X42295238Y-81457142D01*
X42247619Y-81504761D01*
X42152380Y-81552380D01*
X41866666Y-81552380D01*
X41771428Y-81504761D01*
X41723809Y-81457142D01*
X42819047Y-81504761D02*
X42819047Y-81552380D01*
X42771428Y-81647619D01*
X42723809Y-81695238D01*
X43152380Y-80552380D02*
X43771428Y-80552380D01*
X43438095Y-80933333D01*
X43580952Y-80933333D01*
X43676190Y-80980952D01*
X43723809Y-81028571D01*
X43771428Y-81123809D01*
X43771428Y-81361904D01*
X43723809Y-81457142D01*
X43676190Y-81504761D01*
X43580952Y-81552380D01*
X43295238Y-81552380D01*
X43200000Y-81504761D01*
X43152380Y-81457142D01*
X44057142Y-80552380D02*
X44390476Y-81552380D01*
X44723809Y-80552380D01*
D11*
X71916666Y-97526190D02*
X72083333Y-98026190D01*
X72250000Y-97526190D01*
X72702380Y-97978571D02*
X72678571Y-98002380D01*
X72607142Y-98026190D01*
X72559523Y-98026190D01*
X72488095Y-98002380D01*
X72440476Y-97954761D01*
X72416666Y-97907142D01*
X72392857Y-97811904D01*
X72392857Y-97740476D01*
X72416666Y-97645238D01*
X72440476Y-97597619D01*
X72488095Y-97550000D01*
X72559523Y-97526190D01*
X72607142Y-97526190D01*
X72678571Y-97550000D01*
X72702380Y-97573809D01*
X73202380Y-97978571D02*
X73178571Y-98002380D01*
X73107142Y-98026190D01*
X73059523Y-98026190D01*
X72988095Y-98002380D01*
X72940476Y-97954761D01*
X72916666Y-97907142D01*
X72892857Y-97811904D01*
X72892857Y-97740476D01*
X72916666Y-97645238D01*
X72940476Y-97597619D01*
X72988095Y-97550000D01*
X73059523Y-97526190D01*
X73107142Y-97526190D01*
X73178571Y-97550000D01*
X73202380Y-97573809D01*
X73440476Y-98002380D02*
X73440476Y-98026190D01*
X73416666Y-98073809D01*
X73392857Y-98097619D01*
X73630952Y-98002380D02*
X73702380Y-98026190D01*
X73821428Y-98026190D01*
X73869047Y-98002380D01*
X73892857Y-97978571D01*
X73916666Y-97930952D01*
X73916666Y-97883333D01*
X73892857Y-97835714D01*
X73869047Y-97811904D01*
X73821428Y-97788095D01*
X73726190Y-97764285D01*
X73678571Y-97740476D01*
X73654761Y-97716666D01*
X73630952Y-97669047D01*
X73630952Y-97621428D01*
X73654761Y-97573809D01*
X73678571Y-97550000D01*
X73726190Y-97526190D01*
X73845238Y-97526190D01*
X73916666Y-97550000D01*
X74130952Y-98026190D02*
X74130952Y-97526190D01*
X74630952Y-97550000D02*
X74583333Y-97526190D01*
X74511904Y-97526190D01*
X74440476Y-97550000D01*
X74392857Y-97597619D01*
X74369047Y-97645238D01*
X74345238Y-97740476D01*
X74345238Y-97811904D01*
X74369047Y-97907142D01*
X74392857Y-97954761D01*
X74440476Y-98002380D01*
X74511904Y-98026190D01*
X74559523Y-98026190D01*
X74630952Y-98002380D01*
X74654761Y-97978571D01*
X74654761Y-97811904D01*
X74559523Y-97811904D01*
X74892857Y-98002380D02*
X74892857Y-98026190D01*
X74869047Y-98073809D01*
X74845238Y-98097619D01*
X75369047Y-97550000D02*
X75321428Y-97526190D01*
X75250000Y-97526190D01*
X75178571Y-97550000D01*
X75130952Y-97597619D01*
X75107142Y-97645238D01*
X75083333Y-97740476D01*
X75083333Y-97811904D01*
X75107142Y-97907142D01*
X75130952Y-97954761D01*
X75178571Y-98002380D01*
X75250000Y-98026190D01*
X75297619Y-98026190D01*
X75369047Y-98002380D01*
X75392857Y-97978571D01*
X75392857Y-97811904D01*
X75297619Y-97811904D01*
X75607142Y-98026190D02*
X75607142Y-97526190D01*
X75892857Y-98026190D01*
X75892857Y-97526190D01*
X76130952Y-98026190D02*
X76130952Y-97526190D01*
X76250000Y-97526190D01*
X76321428Y-97550000D01*
X76369047Y-97597619D01*
X76392857Y-97645238D01*
X76416666Y-97740476D01*
X76416666Y-97811904D01*
X76392857Y-97907142D01*
X76369047Y-97954761D01*
X76321428Y-98002380D01*
X76250000Y-98026190D01*
X76130952Y-98026190D01*
X59711904Y-97626190D02*
X59878571Y-98126190D01*
X60045238Y-97626190D01*
X60497619Y-98078571D02*
X60473809Y-98102380D01*
X60402380Y-98126190D01*
X60354761Y-98126190D01*
X60283333Y-98102380D01*
X60235714Y-98054761D01*
X60211904Y-98007142D01*
X60188095Y-97911904D01*
X60188095Y-97840476D01*
X60211904Y-97745238D01*
X60235714Y-97697619D01*
X60283333Y-97650000D01*
X60354761Y-97626190D01*
X60402380Y-97626190D01*
X60473809Y-97650000D01*
X60497619Y-97673809D01*
X60997619Y-98078571D02*
X60973809Y-98102380D01*
X60902380Y-98126190D01*
X60854761Y-98126190D01*
X60783333Y-98102380D01*
X60735714Y-98054761D01*
X60711904Y-98007142D01*
X60688095Y-97911904D01*
X60688095Y-97840476D01*
X60711904Y-97745238D01*
X60735714Y-97697619D01*
X60783333Y-97650000D01*
X60854761Y-97626190D01*
X60902380Y-97626190D01*
X60973809Y-97650000D01*
X60997619Y-97673809D01*
X61235714Y-98102380D02*
X61235714Y-98126190D01*
X61211904Y-98173809D01*
X61188095Y-98197619D01*
X61426190Y-98102380D02*
X61497619Y-98126190D01*
X61616666Y-98126190D01*
X61664285Y-98102380D01*
X61688095Y-98078571D01*
X61711904Y-98030952D01*
X61711904Y-97983333D01*
X61688095Y-97935714D01*
X61664285Y-97911904D01*
X61616666Y-97888095D01*
X61521428Y-97864285D01*
X61473809Y-97840476D01*
X61450000Y-97816666D01*
X61426190Y-97769047D01*
X61426190Y-97721428D01*
X61450000Y-97673809D01*
X61473809Y-97650000D01*
X61521428Y-97626190D01*
X61640476Y-97626190D01*
X61711904Y-97650000D01*
X62211904Y-98078571D02*
X62188095Y-98102380D01*
X62116666Y-98126190D01*
X62069047Y-98126190D01*
X61997619Y-98102380D01*
X61950000Y-98054761D01*
X61926190Y-98007142D01*
X61902380Y-97911904D01*
X61902380Y-97840476D01*
X61926190Y-97745238D01*
X61950000Y-97697619D01*
X61997619Y-97650000D01*
X62069047Y-97626190D01*
X62116666Y-97626190D01*
X62188095Y-97650000D01*
X62211904Y-97673809D01*
X62664285Y-98126190D02*
X62426190Y-98126190D01*
X62426190Y-97626190D01*
X62854761Y-98102380D02*
X62854761Y-98126190D01*
X62830952Y-98173809D01*
X62807142Y-98197619D01*
X63045238Y-98102380D02*
X63116666Y-98126190D01*
X63235714Y-98126190D01*
X63283333Y-98102380D01*
X63307142Y-98078571D01*
X63330952Y-98030952D01*
X63330952Y-97983333D01*
X63307142Y-97935714D01*
X63283333Y-97911904D01*
X63235714Y-97888095D01*
X63140476Y-97864285D01*
X63092857Y-97840476D01*
X63069047Y-97816666D01*
X63045238Y-97769047D01*
X63045238Y-97721428D01*
X63069047Y-97673809D01*
X63092857Y-97650000D01*
X63140476Y-97626190D01*
X63259523Y-97626190D01*
X63330952Y-97650000D01*
X63545238Y-98126190D02*
X63545238Y-97626190D01*
X63664285Y-97626190D01*
X63735714Y-97650000D01*
X63783333Y-97697619D01*
X63807142Y-97745238D01*
X63830952Y-97840476D01*
X63830952Y-97911904D01*
X63807142Y-98007142D01*
X63783333Y-98054761D01*
X63735714Y-98102380D01*
X63664285Y-98126190D01*
X63545238Y-98126190D01*
X64021428Y-97983333D02*
X64259523Y-97983333D01*
X63973809Y-98126190D02*
X64140476Y-97626190D01*
X64307142Y-98126190D01*
X64497619Y-98102380D02*
X64497619Y-98126190D01*
X64473809Y-98173809D01*
X64450000Y-98197619D01*
X64973809Y-97650000D02*
X64926190Y-97626190D01*
X64854761Y-97626190D01*
X64783333Y-97650000D01*
X64735714Y-97697619D01*
X64711904Y-97745238D01*
X64688095Y-97840476D01*
X64688095Y-97911904D01*
X64711904Y-98007142D01*
X64735714Y-98054761D01*
X64783333Y-98102380D01*
X64854761Y-98126190D01*
X64902380Y-98126190D01*
X64973809Y-98102380D01*
X64997619Y-98078571D01*
X64997619Y-97911904D01*
X64902380Y-97911904D01*
X65211904Y-98126190D02*
X65211904Y-97626190D01*
X65497619Y-98126190D01*
X65497619Y-97626190D01*
X65735714Y-98126190D02*
X65735714Y-97626190D01*
X65854761Y-97626190D01*
X65926190Y-97650000D01*
X65973809Y-97697619D01*
X65997619Y-97745238D01*
X66021428Y-97840476D01*
X66021428Y-97911904D01*
X65997619Y-98007142D01*
X65973809Y-98054761D01*
X65926190Y-98102380D01*
X65854761Y-98126190D01*
X65735714Y-98126190D01*
D10*
%TO.C,J2*%
X58594666Y-68564380D02*
X58594666Y-69278666D01*
X58547047Y-69421523D01*
X58451809Y-69516761D01*
X58308952Y-69564380D01*
X58213714Y-69564380D01*
X59023238Y-68659619D02*
X59070857Y-68612000D01*
X59166095Y-68564380D01*
X59404190Y-68564380D01*
X59499428Y-68612000D01*
X59547047Y-68659619D01*
X59594666Y-68754857D01*
X59594666Y-68850095D01*
X59547047Y-68992952D01*
X58975619Y-69564380D01*
X59594666Y-69564380D01*
%TO.C,U1*%
X57872380Y-60197904D02*
X58681904Y-60197904D01*
X58777142Y-60150285D01*
X58824761Y-60102666D01*
X58872380Y-60007428D01*
X58872380Y-59816952D01*
X58824761Y-59721714D01*
X58777142Y-59674095D01*
X58681904Y-59626476D01*
X57872380Y-59626476D01*
X58872380Y-58626476D02*
X58872380Y-59197904D01*
X58872380Y-58912190D02*
X57872380Y-58912190D01*
X58015238Y-59007428D01*
X58110476Y-59102666D01*
X58158095Y-59197904D01*
%TO.C,Q1*%
X58459619Y-50133238D02*
X58412000Y-50228476D01*
X58316761Y-50323714D01*
X58173904Y-50466571D01*
X58126285Y-50561809D01*
X58126285Y-50657047D01*
X58364380Y-50609428D02*
X58316761Y-50704666D01*
X58221523Y-50799904D01*
X58031047Y-50847523D01*
X57697714Y-50847523D01*
X57507238Y-50799904D01*
X57412000Y-50704666D01*
X57364380Y-50609428D01*
X57364380Y-50418952D01*
X57412000Y-50323714D01*
X57507238Y-50228476D01*
X57697714Y-50180857D01*
X58031047Y-50180857D01*
X58221523Y-50228476D01*
X58316761Y-50323714D01*
X58364380Y-50418952D01*
X58364380Y-50609428D01*
X58364380Y-49228476D02*
X58364380Y-49799904D01*
X58364380Y-49514190D02*
X57364380Y-49514190D01*
X57507238Y-49609428D01*
X57602476Y-49704666D01*
X57650095Y-49799904D01*
%TO.C,VCC PEC*%
X47752380Y-89266666D02*
X48752380Y-88933333D01*
X47752380Y-88600000D01*
X48657142Y-87695238D02*
X48704761Y-87742857D01*
X48752380Y-87885714D01*
X48752380Y-87980952D01*
X48704761Y-88123809D01*
X48609523Y-88219047D01*
X48514285Y-88266666D01*
X48323809Y-88314285D01*
X48180952Y-88314285D01*
X47990476Y-88266666D01*
X47895238Y-88219047D01*
X47800000Y-88123809D01*
X47752380Y-87980952D01*
X47752380Y-87885714D01*
X47800000Y-87742857D01*
X47847619Y-87695238D01*
X48657142Y-86695238D02*
X48704761Y-86742857D01*
X48752380Y-86885714D01*
X48752380Y-86980952D01*
X48704761Y-87123809D01*
X48609523Y-87219047D01*
X48514285Y-87266666D01*
X48323809Y-87314285D01*
X48180952Y-87314285D01*
X47990476Y-87266666D01*
X47895238Y-87219047D01*
X47800000Y-87123809D01*
X47752380Y-86980952D01*
X47752380Y-86885714D01*
X47800000Y-86742857D01*
X47847619Y-86695238D01*
X48752380Y-85504761D02*
X47752380Y-85504761D01*
X47752380Y-85123809D01*
X47800000Y-85028571D01*
X47847619Y-84980952D01*
X47942857Y-84933333D01*
X48085714Y-84933333D01*
X48180952Y-84980952D01*
X48228571Y-85028571D01*
X48276190Y-85123809D01*
X48276190Y-85504761D01*
X48228571Y-84504761D02*
X48228571Y-84171428D01*
X48752380Y-84028571D02*
X48752380Y-84504761D01*
X47752380Y-84504761D01*
X47752380Y-84028571D01*
X48657142Y-83028571D02*
X48704761Y-83076190D01*
X48752380Y-83219047D01*
X48752380Y-83314285D01*
X48704761Y-83457142D01*
X48609523Y-83552380D01*
X48514285Y-83600000D01*
X48323809Y-83647619D01*
X48180952Y-83647619D01*
X47990476Y-83600000D01*
X47895238Y-83552380D01*
X47800000Y-83457142D01*
X47752380Y-83314285D01*
X47752380Y-83219047D01*
X47800000Y-83076190D01*
X47847619Y-83028571D01*
%TO.C,VCC I2C*%
X37652380Y-89228571D02*
X38652380Y-88895238D01*
X37652380Y-88561904D01*
X38557142Y-87657142D02*
X38604761Y-87704761D01*
X38652380Y-87847619D01*
X38652380Y-87942857D01*
X38604761Y-88085714D01*
X38509523Y-88180952D01*
X38414285Y-88228571D01*
X38223809Y-88276190D01*
X38080952Y-88276190D01*
X37890476Y-88228571D01*
X37795238Y-88180952D01*
X37700000Y-88085714D01*
X37652380Y-87942857D01*
X37652380Y-87847619D01*
X37700000Y-87704761D01*
X37747619Y-87657142D01*
X38557142Y-86657142D02*
X38604761Y-86704761D01*
X38652380Y-86847619D01*
X38652380Y-86942857D01*
X38604761Y-87085714D01*
X38509523Y-87180952D01*
X38414285Y-87228571D01*
X38223809Y-87276190D01*
X38080952Y-87276190D01*
X37890476Y-87228571D01*
X37795238Y-87180952D01*
X37700000Y-87085714D01*
X37652380Y-86942857D01*
X37652380Y-86847619D01*
X37700000Y-86704761D01*
X37747619Y-86657142D01*
X38652380Y-85466666D02*
X37652380Y-85466666D01*
X37747619Y-85038095D02*
X37700000Y-84990476D01*
X37652380Y-84895238D01*
X37652380Y-84657142D01*
X37700000Y-84561904D01*
X37747619Y-84514285D01*
X37842857Y-84466666D01*
X37938095Y-84466666D01*
X38080952Y-84514285D01*
X38652380Y-85085714D01*
X38652380Y-84466666D01*
X38557142Y-83466666D02*
X38604761Y-83514285D01*
X38652380Y-83657142D01*
X38652380Y-83752380D01*
X38604761Y-83895238D01*
X38509523Y-83990476D01*
X38414285Y-84038095D01*
X38223809Y-84085714D01*
X38080952Y-84085714D01*
X37890476Y-84038095D01*
X37795238Y-83990476D01*
X37700000Y-83895238D01*
X37652380Y-83752380D01*
X37652380Y-83657142D01*
X37700000Y-83514285D01*
X37747619Y-83466666D01*
%TO.C,PEC*%
X68785714Y-98452380D02*
X68785714Y-97452380D01*
X69166666Y-97452380D01*
X69261904Y-97500000D01*
X69309523Y-97547619D01*
X69357142Y-97642857D01*
X69357142Y-97785714D01*
X69309523Y-97880952D01*
X69261904Y-97928571D01*
X69166666Y-97976190D01*
X68785714Y-97976190D01*
X69785714Y-97928571D02*
X70119047Y-97928571D01*
X70261904Y-98452380D02*
X69785714Y-98452380D01*
X69785714Y-97452380D01*
X70261904Y-97452380D01*
X71261904Y-98357142D02*
X71214285Y-98404761D01*
X71071428Y-98452380D01*
X70976190Y-98452380D01*
X70833333Y-98404761D01*
X70738095Y-98309523D01*
X70690476Y-98214285D01*
X70642857Y-98023809D01*
X70642857Y-97880952D01*
X70690476Y-97690476D01*
X70738095Y-97595238D01*
X70833333Y-97500000D01*
X70976190Y-97452380D01*
X71071428Y-97452380D01*
X71214285Y-97500000D01*
X71261904Y-97547619D01*
%TO.C,Motor*%
X47497738Y-98552380D02*
X47497738Y-97552380D01*
X47831071Y-98266666D01*
X48164404Y-97552380D01*
X48164404Y-98552380D01*
X48783452Y-98552380D02*
X48688214Y-98504761D01*
X48640595Y-98457142D01*
X48592976Y-98361904D01*
X48592976Y-98076190D01*
X48640595Y-97980952D01*
X48688214Y-97933333D01*
X48783452Y-97885714D01*
X48926309Y-97885714D01*
X49021547Y-97933333D01*
X49069166Y-97980952D01*
X49116785Y-98076190D01*
X49116785Y-98361904D01*
X49069166Y-98457142D01*
X49021547Y-98504761D01*
X48926309Y-98552380D01*
X48783452Y-98552380D01*
X49402500Y-97885714D02*
X49783452Y-97885714D01*
X49545357Y-97552380D02*
X49545357Y-98409523D01*
X49592976Y-98504761D01*
X49688214Y-98552380D01*
X49783452Y-98552380D01*
X50259642Y-98552380D02*
X50164404Y-98504761D01*
X50116785Y-98457142D01*
X50069166Y-98361904D01*
X50069166Y-98076190D01*
X50116785Y-97980952D01*
X50164404Y-97933333D01*
X50259642Y-97885714D01*
X50402500Y-97885714D01*
X50497738Y-97933333D01*
X50545357Y-97980952D01*
X50592976Y-98076190D01*
X50592976Y-98361904D01*
X50545357Y-98457142D01*
X50497738Y-98504761D01*
X50402500Y-98552380D01*
X50259642Y-98552380D01*
X51021547Y-98552380D02*
X51021547Y-97885714D01*
X51021547Y-98076190D02*
X51069166Y-97980952D01*
X51116785Y-97933333D01*
X51212023Y-97885714D01*
X51307261Y-97885714D01*
%TO.C,I2C*%
X57023809Y-98452380D02*
X57023809Y-97452380D01*
X57452380Y-97547619D02*
X57500000Y-97500000D01*
X57595238Y-97452380D01*
X57833333Y-97452380D01*
X57928571Y-97500000D01*
X57976190Y-97547619D01*
X58023809Y-97642857D01*
X58023809Y-97738095D01*
X57976190Y-97880952D01*
X57404761Y-98452380D01*
X58023809Y-98452380D01*
X59023809Y-98357142D02*
X58976190Y-98404761D01*
X58833333Y-98452380D01*
X58738095Y-98452380D01*
X58595238Y-98404761D01*
X58500000Y-98309523D01*
X58452380Y-98214285D01*
X58404761Y-98023809D01*
X58404761Y-97880952D01*
X58452380Y-97690476D01*
X58500000Y-97595238D01*
X58595238Y-97500000D01*
X58738095Y-97452380D01*
X58833333Y-97452380D01*
X58976190Y-97500000D01*
X59023809Y-97547619D01*
%TO.C,Power*%
X36852380Y-85576190D02*
X35852380Y-85576190D01*
X35852380Y-85195238D01*
X35900000Y-85100000D01*
X35947619Y-85052380D01*
X36042857Y-85004761D01*
X36185714Y-85004761D01*
X36280952Y-85052380D01*
X36328571Y-85100000D01*
X36376190Y-85195238D01*
X36376190Y-85576190D01*
X36852380Y-84433333D02*
X36804761Y-84528571D01*
X36757142Y-84576190D01*
X36661904Y-84623809D01*
X36376190Y-84623809D01*
X36280952Y-84576190D01*
X36233333Y-84528571D01*
X36185714Y-84433333D01*
X36185714Y-84290476D01*
X36233333Y-84195238D01*
X36280952Y-84147619D01*
X36376190Y-84100000D01*
X36661904Y-84100000D01*
X36757142Y-84147619D01*
X36804761Y-84195238D01*
X36852380Y-84290476D01*
X36852380Y-84433333D01*
X36185714Y-83766666D02*
X36852380Y-83576190D01*
X36376190Y-83385714D01*
X36852380Y-83195238D01*
X36185714Y-83004761D01*
X36804761Y-82242857D02*
X36852380Y-82338095D01*
X36852380Y-82528571D01*
X36804761Y-82623809D01*
X36709523Y-82671428D01*
X36328571Y-82671428D01*
X36233333Y-82623809D01*
X36185714Y-82528571D01*
X36185714Y-82338095D01*
X36233333Y-82242857D01*
X36328571Y-82195238D01*
X36423809Y-82195238D01*
X36519047Y-82671428D01*
X36852380Y-81766666D02*
X36185714Y-81766666D01*
X36376190Y-81766666D02*
X36280952Y-81719047D01*
X36233333Y-81671428D01*
X36185714Y-81576190D01*
X36185714Y-81480952D01*
%TO.C,J1*%
X59676666Y-43082711D02*
X59676666Y-43796997D01*
X59629047Y-43939854D01*
X59533809Y-44035092D01*
X59390952Y-44082711D01*
X59295714Y-44082711D01*
X60676666Y-44082711D02*
X60105238Y-44082711D01*
X60390952Y-44082711D02*
X60390952Y-43082711D01*
X60295714Y-43225569D01*
X60200476Y-43320807D01*
X60105238Y-43368426D01*
%TO.C,C3*%
X43433333Y-78457142D02*
X43385714Y-78504761D01*
X43242857Y-78552380D01*
X43147619Y-78552380D01*
X43004761Y-78504761D01*
X42909523Y-78409523D01*
X42861904Y-78314285D01*
X42814285Y-78123809D01*
X42814285Y-77980952D01*
X42861904Y-77790476D01*
X42909523Y-77695238D01*
X43004761Y-77600000D01*
X43147619Y-77552380D01*
X43242857Y-77552380D01*
X43385714Y-77600000D01*
X43433333Y-77647619D01*
X43766666Y-77552380D02*
X44385714Y-77552380D01*
X44052380Y-77933333D01*
X44195238Y-77933333D01*
X44290476Y-77980952D01*
X44338095Y-78028571D01*
X44385714Y-78123809D01*
X44385714Y-78361904D01*
X44338095Y-78457142D01*
X44290476Y-78504761D01*
X44195238Y-78552380D01*
X43909523Y-78552380D01*
X43814285Y-78504761D01*
X43766666Y-78457142D01*
%TO.C,C2*%
X36233333Y-66657142D02*
X36185714Y-66704761D01*
X36042857Y-66752380D01*
X35947619Y-66752380D01*
X35804761Y-66704761D01*
X35709523Y-66609523D01*
X35661904Y-66514285D01*
X35614285Y-66323809D01*
X35614285Y-66180952D01*
X35661904Y-65990476D01*
X35709523Y-65895238D01*
X35804761Y-65800000D01*
X35947619Y-65752380D01*
X36042857Y-65752380D01*
X36185714Y-65800000D01*
X36233333Y-65847619D01*
X36614285Y-65847619D02*
X36661904Y-65800000D01*
X36757142Y-65752380D01*
X36995238Y-65752380D01*
X37090476Y-65800000D01*
X37138095Y-65847619D01*
X37185714Y-65942857D01*
X37185714Y-66038095D01*
X37138095Y-66180952D01*
X36566666Y-66752380D01*
X37185714Y-66752380D01*
%TO.C,C1*%
X44533333Y-66757142D02*
X44485714Y-66804761D01*
X44342857Y-66852380D01*
X44247619Y-66852380D01*
X44104761Y-66804761D01*
X44009523Y-66709523D01*
X43961904Y-66614285D01*
X43914285Y-66423809D01*
X43914285Y-66280952D01*
X43961904Y-66090476D01*
X44009523Y-65995238D01*
X44104761Y-65900000D01*
X44247619Y-65852380D01*
X44342857Y-65852380D01*
X44485714Y-65900000D01*
X44533333Y-65947619D01*
X45485714Y-66852380D02*
X44914285Y-66852380D01*
X45200000Y-66852380D02*
X45200000Y-65852380D01*
X45104761Y-65995238D01*
X45009523Y-66090476D01*
X44914285Y-66138095D01*
%TO.C,A1*%
X82285714Y-91860666D02*
X82761904Y-91860666D01*
X82190476Y-92146380D02*
X82523809Y-91146380D01*
X82857142Y-92146380D01*
X83714285Y-92146380D02*
X83142857Y-92146380D01*
X83428571Y-92146380D02*
X83428571Y-91146380D01*
X83333333Y-91289238D01*
X83238095Y-91384476D01*
X83142857Y-91432095D01*
X73248095Y-83462380D02*
X73248095Y-84271904D01*
X73295714Y-84367142D01*
X73343333Y-84414761D01*
X73438571Y-84462380D01*
X73629047Y-84462380D01*
X73724285Y-84414761D01*
X73771904Y-84367142D01*
X73819523Y-84271904D01*
X73819523Y-83462380D01*
X74248095Y-84414761D02*
X74390952Y-84462380D01*
X74629047Y-84462380D01*
X74724285Y-84414761D01*
X74771904Y-84367142D01*
X74819523Y-84271904D01*
X74819523Y-84176666D01*
X74771904Y-84081428D01*
X74724285Y-84033809D01*
X74629047Y-83986190D01*
X74438571Y-83938571D01*
X74343333Y-83890952D01*
X74295714Y-83843333D01*
X74248095Y-83748095D01*
X74248095Y-83652857D01*
X74295714Y-83557619D01*
X74343333Y-83510000D01*
X74438571Y-83462380D01*
X74676666Y-83462380D01*
X74819523Y-83510000D01*
X75581428Y-83938571D02*
X75724285Y-83986190D01*
X75771904Y-84033809D01*
X75819523Y-84129047D01*
X75819523Y-84271904D01*
X75771904Y-84367142D01*
X75724285Y-84414761D01*
X75629047Y-84462380D01*
X75248095Y-84462380D01*
X75248095Y-83462380D01*
X75581428Y-83462380D01*
X75676666Y-83510000D01*
X75724285Y-83557619D01*
X75771904Y-83652857D01*
X75771904Y-83748095D01*
X75724285Y-83843333D01*
X75676666Y-83890952D01*
X75581428Y-83938571D01*
X75248095Y-83938571D01*
%TO.C,REF\u002A\u002A*%
X28666666Y-90452380D02*
X28333333Y-89976190D01*
X28095238Y-90452380D02*
X28095238Y-89452380D01*
X28476190Y-89452380D01*
X28571428Y-89500000D01*
X28619047Y-89547619D01*
X28666666Y-89642857D01*
X28666666Y-89785714D01*
X28619047Y-89880952D01*
X28571428Y-89928571D01*
X28476190Y-89976190D01*
X28095238Y-89976190D01*
X29095238Y-89928571D02*
X29428571Y-89928571D01*
X29571428Y-90452380D02*
X29095238Y-90452380D01*
X29095238Y-89452380D01*
X29571428Y-89452380D01*
X30333333Y-89928571D02*
X30000000Y-89928571D01*
X30000000Y-90452380D02*
X30000000Y-89452380D01*
X30476190Y-89452380D01*
X31000000Y-89452380D02*
X31000000Y-89690476D01*
X30761904Y-89595238D02*
X31000000Y-89690476D01*
X31238095Y-89595238D01*
X30857142Y-89880952D02*
X31000000Y-89690476D01*
X31142857Y-89880952D01*
X31761904Y-89452380D02*
X31761904Y-89690476D01*
X31523809Y-89595238D02*
X31761904Y-89690476D01*
X32000000Y-89595238D01*
X31619047Y-89880952D02*
X31761904Y-89690476D01*
X31904761Y-89880952D01*
X73666666Y-25452380D02*
X73333333Y-24976190D01*
X73095238Y-25452380D02*
X73095238Y-24452380D01*
X73476190Y-24452380D01*
X73571428Y-24500000D01*
X73619047Y-24547619D01*
X73666666Y-24642857D01*
X73666666Y-24785714D01*
X73619047Y-24880952D01*
X73571428Y-24928571D01*
X73476190Y-24976190D01*
X73095238Y-24976190D01*
X74095238Y-24928571D02*
X74428571Y-24928571D01*
X74571428Y-25452380D02*
X74095238Y-25452380D01*
X74095238Y-24452380D01*
X74571428Y-24452380D01*
X75333333Y-24928571D02*
X75000000Y-24928571D01*
X75000000Y-25452380D02*
X75000000Y-24452380D01*
X75476190Y-24452380D01*
X76000000Y-24452380D02*
X76000000Y-24690476D01*
X75761904Y-24595238D02*
X76000000Y-24690476D01*
X76238095Y-24595238D01*
X75857142Y-24880952D02*
X76000000Y-24690476D01*
X76142857Y-24880952D01*
X76761904Y-24452380D02*
X76761904Y-24690476D01*
X76523809Y-24595238D02*
X76761904Y-24690476D01*
X77000000Y-24595238D01*
X76619047Y-24880952D02*
X76761904Y-24690476D01*
X76904761Y-24880952D01*
X43666666Y-25452380D02*
X43333333Y-24976190D01*
X43095238Y-25452380D02*
X43095238Y-24452380D01*
X43476190Y-24452380D01*
X43571428Y-24500000D01*
X43619047Y-24547619D01*
X43666666Y-24642857D01*
X43666666Y-24785714D01*
X43619047Y-24880952D01*
X43571428Y-24928571D01*
X43476190Y-24976190D01*
X43095238Y-24976190D01*
X44095238Y-24928571D02*
X44428571Y-24928571D01*
X44571428Y-25452380D02*
X44095238Y-25452380D01*
X44095238Y-24452380D01*
X44571428Y-24452380D01*
X45333333Y-24928571D02*
X45000000Y-24928571D01*
X45000000Y-25452380D02*
X45000000Y-24452380D01*
X45476190Y-24452380D01*
X46000000Y-24452380D02*
X46000000Y-24690476D01*
X45761904Y-24595238D02*
X46000000Y-24690476D01*
X46238095Y-24595238D01*
X45857142Y-24880952D02*
X46000000Y-24690476D01*
X46142857Y-24880952D01*
X46761904Y-24452380D02*
X46761904Y-24690476D01*
X46523809Y-24595238D02*
X46761904Y-24690476D01*
X47000000Y-24595238D01*
X46619047Y-24880952D02*
X46761904Y-24690476D01*
X46904761Y-24880952D01*
X93666666Y-90452380D02*
X93333333Y-89976190D01*
X93095238Y-90452380D02*
X93095238Y-89452380D01*
X93476190Y-89452380D01*
X93571428Y-89500000D01*
X93619047Y-89547619D01*
X93666666Y-89642857D01*
X93666666Y-89785714D01*
X93619047Y-89880952D01*
X93571428Y-89928571D01*
X93476190Y-89976190D01*
X93095238Y-89976190D01*
X94095238Y-89928571D02*
X94428571Y-89928571D01*
X94571428Y-90452380D02*
X94095238Y-90452380D01*
X94095238Y-89452380D01*
X94571428Y-89452380D01*
X95333333Y-89928571D02*
X95000000Y-89928571D01*
X95000000Y-90452380D02*
X95000000Y-89452380D01*
X95476190Y-89452380D01*
X96000000Y-89452380D02*
X96000000Y-89690476D01*
X95761904Y-89595238D02*
X96000000Y-89690476D01*
X96238095Y-89595238D01*
X95857142Y-89880952D02*
X96000000Y-89690476D01*
X96142857Y-89880952D01*
X96761904Y-89452380D02*
X96761904Y-89690476D01*
X96523809Y-89595238D02*
X96761904Y-89690476D01*
X97000000Y-89595238D01*
X96619047Y-89880952D02*
X96761904Y-89690476D01*
X96904761Y-89880952D01*
D12*
%TO.C,J2*%
X60198000Y-70552000D02*
X61528000Y-70552000D01*
X61528000Y-70552000D02*
X61528000Y-71882000D01*
X56328000Y-70552000D02*
X58928000Y-70552000D01*
X56328000Y-70552000D02*
X56328000Y-90992000D01*
X58928000Y-70552000D02*
X58928000Y-73152000D01*
X61528000Y-73152000D02*
X61528000Y-90992000D01*
X58928000Y-73152000D02*
X61528000Y-73152000D01*
X56328000Y-90992000D02*
X61528000Y-90992000D01*
%TO.C,U1*%
X35420000Y-65160000D02*
X51310000Y-65160000D01*
X35420000Y-65160000D02*
X35420000Y-54920000D01*
X35420000Y-54920000D02*
X51310000Y-54920000D01*
X51310000Y-65160000D02*
X51310000Y-54920000D01*
X51310000Y-60040000D02*
X53850000Y-60040000D01*
X51310000Y-57500000D02*
X53850000Y-57500000D01*
X51310000Y-62580000D02*
X53850000Y-62580000D01*
%TO.C,Q1*%
X35420000Y-54080000D02*
X51310000Y-54080000D01*
X35420000Y-54080000D02*
X35420000Y-43840000D01*
X35420000Y-43840000D02*
X51310000Y-43840000D01*
X51310000Y-54080000D02*
X51310000Y-43840000D01*
X51310000Y-48960000D02*
X53850000Y-48960000D01*
X51310000Y-46420000D02*
X53850000Y-46420000D01*
X51310000Y-51500000D02*
X53850000Y-51500000D01*
%TO.C,VCC PEC*%
X45720000Y-82490000D02*
X47050000Y-82490000D01*
X47050000Y-85090000D02*
X47050000Y-90230000D01*
X44390000Y-85090000D02*
X44390000Y-90230000D01*
X44390000Y-85090000D02*
X47050000Y-85090000D01*
X47050000Y-82490000D02*
X47050000Y-83820000D01*
X44390000Y-90230000D02*
X47050000Y-90230000D01*
%TO.C,VCC I2C*%
X40640000Y-82490000D02*
X41970000Y-82490000D01*
X41970000Y-85090000D02*
X41970000Y-90230000D01*
X39310000Y-85090000D02*
X39310000Y-90230000D01*
X39310000Y-85090000D02*
X41970000Y-85090000D01*
X41970000Y-82490000D02*
X41970000Y-83820000D01*
X39310000Y-90230000D02*
X41970000Y-90230000D01*
%TO.C,PEC*%
X68027000Y-95225000D02*
X68027000Y-93895000D01*
X70627000Y-93895000D02*
X75767000Y-93895000D01*
X70627000Y-96555000D02*
X75767000Y-96555000D01*
X70627000Y-96555000D02*
X70627000Y-93895000D01*
X68027000Y-93895000D02*
X69357000Y-93895000D01*
X75767000Y-96555000D02*
X75767000Y-93895000D01*
%TO.C,Motor*%
X54924000Y-96580000D02*
X54924000Y-93920000D01*
X47244000Y-93920000D02*
X54924000Y-93920000D01*
X47244000Y-96580000D02*
X47244000Y-93920000D01*
X47244000Y-96580000D02*
X54924000Y-96580000D01*
X44644000Y-93920000D02*
X45974000Y-93920000D01*
X44644000Y-95250000D02*
X44644000Y-93920000D01*
%TO.C,I2C*%
X66608000Y-96580000D02*
X66608000Y-93920000D01*
X58928000Y-93920000D02*
X66608000Y-93920000D01*
X58928000Y-96580000D02*
X58928000Y-93920000D01*
X58928000Y-96580000D02*
X66608000Y-96580000D01*
X56328000Y-93920000D02*
X57658000Y-93920000D01*
X56328000Y-95250000D02*
X56328000Y-93920000D01*
%TO.C,Power*%
X38922000Y-78232000D02*
X38922000Y-75632000D01*
X36262000Y-78232000D02*
X36262000Y-75632000D01*
X38922000Y-78232000D02*
X36262000Y-78232000D01*
X37592000Y-80832000D02*
X36262000Y-80832000D01*
X36262000Y-80832000D02*
X36262000Y-79502000D01*
X38922000Y-75632000D02*
X36262000Y-75632000D01*
%TO.C,J1*%
X65550000Y-43151656D02*
X65800000Y-43584669D01*
X65300000Y-43584669D02*
X65550000Y-43151656D01*
X75495000Y-30350331D02*
X75495000Y-42690331D01*
X65800000Y-43584669D02*
X65300000Y-43584669D01*
X75495000Y-42690331D02*
X44525000Y-42690331D01*
X44525000Y-42690331D02*
X44525000Y-30350331D01*
%TO.C,C3*%
X43659248Y-74957000D02*
X44181752Y-74957000D01*
X43659248Y-76427000D02*
X44181752Y-76427000D01*
%TO.C,C2*%
X43638349Y-69732000D02*
X43638349Y-71268000D01*
X35587651Y-67785000D02*
X35587651Y-68585000D01*
X43518349Y-69271000D02*
X43518349Y-71729000D01*
X40598349Y-66543000D02*
X40598349Y-69460000D01*
X41638349Y-66960000D02*
X41638349Y-69460000D01*
X40998349Y-66665000D02*
X40998349Y-69460000D01*
X42398349Y-67517000D02*
X42398349Y-73483000D01*
X40358349Y-71540000D02*
X40358349Y-74510000D01*
X40958349Y-66650000D02*
X40958349Y-69460000D01*
X41078349Y-66695000D02*
X41078349Y-69460000D01*
X42878349Y-68046000D02*
X42878349Y-72954000D01*
X42998349Y-68213000D02*
X42998349Y-72787000D01*
X43078349Y-68334000D02*
X43078349Y-72666000D01*
X41798349Y-67056000D02*
X41798349Y-69460000D01*
X39957349Y-71540000D02*
X39957349Y-74565000D01*
X40678349Y-66564000D02*
X40678349Y-69460000D01*
X43358349Y-68855000D02*
X43358349Y-72145000D01*
X40398349Y-66498000D02*
X40398349Y-69460000D01*
X39837349Y-66426000D02*
X39837349Y-69460000D01*
X41518349Y-66894000D02*
X41518349Y-69460000D01*
X41518349Y-71540000D02*
X41518349Y-74106000D01*
X42838349Y-67995000D02*
X42838349Y-73005000D01*
X40438349Y-66506000D02*
X40438349Y-69460000D01*
X41478349Y-71540000D02*
X41478349Y-74127000D01*
X41278349Y-71540000D02*
X41278349Y-74222000D01*
X42358349Y-67481000D02*
X42358349Y-73519000D01*
X41558349Y-66916000D02*
X41558349Y-69460000D01*
X41598349Y-66938000D02*
X41598349Y-69460000D01*
X39757349Y-66423000D02*
X39757349Y-74577000D01*
X40518349Y-71540000D02*
X40518349Y-74476000D01*
X40998349Y-71540000D02*
X40998349Y-74335000D01*
X40878349Y-66623000D02*
X40878349Y-69460000D01*
X40237349Y-66470000D02*
X40237349Y-69460000D01*
X42198349Y-67344000D02*
X42198349Y-73656000D01*
X40598349Y-71540000D02*
X40598349Y-74457000D01*
X40197349Y-71540000D02*
X40197349Y-74537000D01*
X40037349Y-71540000D02*
X40037349Y-74557000D01*
X43398349Y-68948000D02*
X43398349Y-72052000D01*
X40398349Y-71540000D02*
X40398349Y-74502000D01*
X42118349Y-67280000D02*
X42118349Y-73720000D01*
X39877349Y-71540000D02*
X39877349Y-74571000D01*
X43238349Y-68610000D02*
X43238349Y-72390000D01*
X40077349Y-66448000D02*
X40077349Y-69460000D01*
X42638349Y-67759000D02*
X42638349Y-73241000D01*
X42558349Y-67674000D02*
X42558349Y-73326000D01*
X41758349Y-67031000D02*
X41758349Y-69460000D01*
X43438349Y-69047000D02*
X43438349Y-71953000D01*
X42038349Y-67220000D02*
X42038349Y-73780000D01*
X42318349Y-67445000D02*
X42318349Y-73555000D01*
X43478349Y-69154000D02*
X43478349Y-71846000D01*
X42278349Y-67410000D02*
X42278349Y-73590000D01*
X41278349Y-66778000D02*
X41278349Y-69460000D01*
X40478349Y-66515000D02*
X40478349Y-69460000D01*
X41198349Y-66743000D02*
X41198349Y-69460000D01*
X39877349Y-66429000D02*
X39877349Y-69460000D01*
X43598349Y-69552000D02*
X43598349Y-71448000D01*
X40358349Y-66490000D02*
X40358349Y-69460000D01*
X40758349Y-66586000D02*
X40758349Y-69460000D01*
X40318349Y-71540000D02*
X40318349Y-74517000D01*
X40157349Y-66458000D02*
X40157349Y-69460000D01*
X39637349Y-66420000D02*
X39637349Y-74580000D01*
X41598349Y-71540000D02*
X41598349Y-74062000D01*
X39837349Y-71540000D02*
X39837349Y-74574000D01*
X42238349Y-67376000D02*
X42238349Y-73624000D01*
X41118349Y-66710000D02*
X41118349Y-69460000D01*
X41758349Y-71540000D02*
X41758349Y-73969000D01*
X42718349Y-67849000D02*
X42718349Y-73151000D01*
X39597349Y-66420000D02*
X39597349Y-74580000D01*
X41038349Y-66679000D02*
X41038349Y-69460000D01*
X41678349Y-71540000D02*
X41678349Y-74017000D01*
X40077349Y-71540000D02*
X40077349Y-74552000D01*
X41918349Y-67135000D02*
X41918349Y-73865000D01*
X40558349Y-71540000D02*
X40558349Y-74467000D01*
X41318349Y-66796000D02*
X41318349Y-69460000D01*
X40157349Y-71540000D02*
X40157349Y-74542000D01*
X41958349Y-67162000D02*
X41958349Y-73838000D01*
X39797349Y-66424000D02*
X39797349Y-74576000D01*
X41438349Y-66853000D02*
X41438349Y-69460000D01*
X41998349Y-67191000D02*
X41998349Y-73809000D01*
X40718349Y-71540000D02*
X40718349Y-74425000D01*
X40918349Y-66637000D02*
X40918349Y-69460000D01*
X42758349Y-67896000D02*
X42758349Y-73104000D01*
X40318349Y-66483000D02*
X40318349Y-69460000D01*
X41798349Y-71540000D02*
X41798349Y-73944000D01*
X40798349Y-71540000D02*
X40798349Y-74402000D01*
X42158349Y-67311000D02*
X42158349Y-73689000D01*
X41078349Y-71540000D02*
X41078349Y-74305000D01*
X39917349Y-66432000D02*
X39917349Y-69460000D01*
X43118349Y-68398000D02*
X43118349Y-72602000D01*
X41718349Y-71540000D02*
X41718349Y-73993000D01*
X41358349Y-66814000D02*
X41358349Y-69460000D01*
X40037349Y-66443000D02*
X40037349Y-69460000D01*
X40878349Y-71540000D02*
X40878349Y-74377000D01*
X40277349Y-66476000D02*
X40277349Y-69460000D01*
X43158349Y-68466000D02*
X43158349Y-72534000D01*
X41678349Y-66983000D02*
X41678349Y-69460000D01*
X39997349Y-66439000D02*
X39997349Y-69460000D01*
X41198349Y-71540000D02*
X41198349Y-74257000D01*
X41438349Y-71540000D02*
X41438349Y-74147000D01*
X43678349Y-69967000D02*
X43678349Y-71033000D01*
X41038349Y-71540000D02*
X41038349Y-74321000D01*
X41478349Y-66873000D02*
X41478349Y-69460000D01*
X42078349Y-67250000D02*
X42078349Y-73750000D01*
X40197349Y-66463000D02*
X40197349Y-69460000D01*
X40838349Y-71540000D02*
X40838349Y-74389000D01*
X41318349Y-71540000D02*
X41318349Y-74204000D01*
X42958349Y-68155000D02*
X42958349Y-72845000D01*
X41158349Y-66726000D02*
X41158349Y-69460000D01*
X42478349Y-67593000D02*
X42478349Y-73407000D01*
X42678349Y-67803000D02*
X42678349Y-73197000D01*
X40638349Y-71540000D02*
X40638349Y-74447000D01*
X41558349Y-71540000D02*
X41558349Y-74084000D01*
X40478349Y-71540000D02*
X40478349Y-74485000D01*
X39957349Y-66435000D02*
X39957349Y-69460000D01*
X43198349Y-68536000D02*
X43198349Y-72464000D01*
X40718349Y-66575000D02*
X40718349Y-69460000D01*
X40838349Y-66611000D02*
X40838349Y-69460000D01*
X42438349Y-67555000D02*
X42438349Y-73445000D01*
X41878349Y-71540000D02*
X41878349Y-73892000D01*
X42798349Y-67944000D02*
X42798349Y-73056000D01*
X41398349Y-66834000D02*
X41398349Y-69460000D01*
X41238349Y-66760000D02*
X41238349Y-69460000D01*
X40798349Y-66598000D02*
X40798349Y-69460000D01*
X39917349Y-71540000D02*
X39917349Y-74568000D01*
X40438349Y-71540000D02*
X40438349Y-74494000D01*
X40518349Y-66524000D02*
X40518349Y-69460000D01*
X40117349Y-71540000D02*
X40117349Y-74548000D01*
X40958349Y-71540000D02*
X40958349Y-74350000D01*
X43038349Y-68272000D02*
X43038349Y-72728000D01*
X40117349Y-66452000D02*
X40117349Y-69460000D01*
X41238349Y-71540000D02*
X41238349Y-74240000D01*
X40918349Y-71540000D02*
X40918349Y-74363000D01*
X40558349Y-66533000D02*
X40558349Y-69460000D01*
X40758349Y-71540000D02*
X40758349Y-74414000D01*
X41358349Y-71540000D02*
X41358349Y-74186000D01*
X43558349Y-69402000D02*
X43558349Y-71598000D01*
X41878349Y-67108000D02*
X41878349Y-69460000D01*
X43278349Y-68687000D02*
X43278349Y-72313000D01*
X35187651Y-68185000D02*
X35987651Y-68185000D01*
X41718349Y-67007000D02*
X41718349Y-69460000D01*
X39717349Y-66421000D02*
X39717349Y-74579000D01*
X41638349Y-71540000D02*
X41638349Y-74040000D01*
X41838349Y-71540000D02*
X41838349Y-73918000D01*
X39997349Y-71540000D02*
X39997349Y-74561000D01*
X41398349Y-71540000D02*
X41398349Y-74166000D01*
X40237349Y-71540000D02*
X40237349Y-74530000D01*
X39677349Y-66420000D02*
X39677349Y-74580000D01*
X40678349Y-71540000D02*
X40678349Y-74436000D01*
X42518349Y-67633000D02*
X42518349Y-73367000D01*
X42598349Y-67716000D02*
X42598349Y-73284000D01*
X40638349Y-66553000D02*
X40638349Y-69460000D01*
X42918349Y-68100000D02*
X42918349Y-72900000D01*
X41158349Y-71540000D02*
X41158349Y-74274000D01*
X40277349Y-71540000D02*
X40277349Y-74524000D01*
X41838349Y-67082000D02*
X41838349Y-69460000D01*
X43318349Y-68769000D02*
X43318349Y-72231000D01*
X41118349Y-71540000D02*
X41118349Y-74290000D01*
X43717349Y-70500000D02*
G75*
G03*
X43717349Y-70500000I-4120000J0D01*
G01*
%TO.C,C1*%
X44493000Y-71268000D02*
X44493000Y-69732000D01*
X52543698Y-73215000D02*
X52543698Y-72415000D01*
X44613000Y-71729000D02*
X44613000Y-69271000D01*
X47533000Y-74457000D02*
X47533000Y-71540000D01*
X46493000Y-74040000D02*
X46493000Y-71540000D01*
X47133000Y-74335000D02*
X47133000Y-71540000D01*
X45733000Y-73483000D02*
X45733000Y-67517000D01*
X47773000Y-69460000D02*
X47773000Y-66490000D01*
X47173000Y-74350000D02*
X47173000Y-71540000D01*
X47053000Y-74305000D02*
X47053000Y-71540000D01*
X45253000Y-72954000D02*
X45253000Y-68046000D01*
X45133000Y-72787000D02*
X45133000Y-68213000D01*
X45053000Y-72666000D02*
X45053000Y-68334000D01*
X46333000Y-73944000D02*
X46333000Y-71540000D01*
X48174000Y-69460000D02*
X48174000Y-66435000D01*
X47453000Y-74436000D02*
X47453000Y-71540000D01*
X44773000Y-72145000D02*
X44773000Y-68855000D01*
X47733000Y-74502000D02*
X47733000Y-71540000D01*
X48294000Y-74574000D02*
X48294000Y-71540000D01*
X46613000Y-74106000D02*
X46613000Y-71540000D01*
X46613000Y-69460000D02*
X46613000Y-66894000D01*
X45293000Y-73005000D02*
X45293000Y-67995000D01*
X47693000Y-74494000D02*
X47693000Y-71540000D01*
X46653000Y-69460000D02*
X46653000Y-66873000D01*
X46853000Y-69460000D02*
X46853000Y-66778000D01*
X45773000Y-73519000D02*
X45773000Y-67481000D01*
X46573000Y-74084000D02*
X46573000Y-71540000D01*
X46533000Y-74062000D02*
X46533000Y-71540000D01*
X48374000Y-74577000D02*
X48374000Y-66423000D01*
X47613000Y-69460000D02*
X47613000Y-66524000D01*
X47133000Y-69460000D02*
X47133000Y-66665000D01*
X47253000Y-74377000D02*
X47253000Y-71540000D01*
X47894000Y-74530000D02*
X47894000Y-71540000D01*
X45933000Y-73656000D02*
X45933000Y-67344000D01*
X47533000Y-69460000D02*
X47533000Y-66543000D01*
X47934000Y-69460000D02*
X47934000Y-66463000D01*
X48094000Y-69460000D02*
X48094000Y-66443000D01*
X44733000Y-72052000D02*
X44733000Y-68948000D01*
X47733000Y-69460000D02*
X47733000Y-66498000D01*
X46013000Y-73720000D02*
X46013000Y-67280000D01*
X48254000Y-69460000D02*
X48254000Y-66429000D01*
X44893000Y-72390000D02*
X44893000Y-68610000D01*
X48054000Y-74552000D02*
X48054000Y-71540000D01*
X45493000Y-73241000D02*
X45493000Y-67759000D01*
X45573000Y-73326000D02*
X45573000Y-67674000D01*
X46373000Y-73969000D02*
X46373000Y-71540000D01*
X44693000Y-71953000D02*
X44693000Y-69047000D01*
X46093000Y-73780000D02*
X46093000Y-67220000D01*
X45813000Y-73555000D02*
X45813000Y-67445000D01*
X44653000Y-71846000D02*
X44653000Y-69154000D01*
X45853000Y-73590000D02*
X45853000Y-67410000D01*
X46853000Y-74222000D02*
X46853000Y-71540000D01*
X47653000Y-74485000D02*
X47653000Y-71540000D01*
X46933000Y-74257000D02*
X46933000Y-71540000D01*
X48254000Y-74571000D02*
X48254000Y-71540000D01*
X44533000Y-71448000D02*
X44533000Y-69552000D01*
X47773000Y-74510000D02*
X47773000Y-71540000D01*
X47373000Y-74414000D02*
X47373000Y-71540000D01*
X47813000Y-69460000D02*
X47813000Y-66483000D01*
X47974000Y-74542000D02*
X47974000Y-71540000D01*
X48494000Y-74580000D02*
X48494000Y-66420000D01*
X46533000Y-69460000D02*
X46533000Y-66938000D01*
X48294000Y-69460000D02*
X48294000Y-66426000D01*
X45893000Y-73624000D02*
X45893000Y-67376000D01*
X47013000Y-74290000D02*
X47013000Y-71540000D01*
X46373000Y-69460000D02*
X46373000Y-67031000D01*
X45413000Y-73151000D02*
X45413000Y-67849000D01*
X48534000Y-74580000D02*
X48534000Y-66420000D01*
X47093000Y-74321000D02*
X47093000Y-71540000D01*
X46453000Y-69460000D02*
X46453000Y-66983000D01*
X48054000Y-69460000D02*
X48054000Y-66448000D01*
X46213000Y-73865000D02*
X46213000Y-67135000D01*
X47573000Y-69460000D02*
X47573000Y-66533000D01*
X46813000Y-74204000D02*
X46813000Y-71540000D01*
X47974000Y-69460000D02*
X47974000Y-66458000D01*
X46173000Y-73838000D02*
X46173000Y-67162000D01*
X48334000Y-74576000D02*
X48334000Y-66424000D01*
X46693000Y-74147000D02*
X46693000Y-71540000D01*
X46133000Y-73809000D02*
X46133000Y-67191000D01*
X47413000Y-69460000D02*
X47413000Y-66575000D01*
X47213000Y-74363000D02*
X47213000Y-71540000D01*
X45373000Y-73104000D02*
X45373000Y-67896000D01*
X47813000Y-74517000D02*
X47813000Y-71540000D01*
X46333000Y-69460000D02*
X46333000Y-67056000D01*
X47333000Y-69460000D02*
X47333000Y-66598000D01*
X45973000Y-73689000D02*
X45973000Y-67311000D01*
X47053000Y-69460000D02*
X47053000Y-66695000D01*
X48214000Y-74568000D02*
X48214000Y-71540000D01*
X45013000Y-72602000D02*
X45013000Y-68398000D01*
X46413000Y-69460000D02*
X46413000Y-67007000D01*
X46773000Y-74186000D02*
X46773000Y-71540000D01*
X48094000Y-74557000D02*
X48094000Y-71540000D01*
X47253000Y-69460000D02*
X47253000Y-66623000D01*
X47854000Y-74524000D02*
X47854000Y-71540000D01*
X44973000Y-72534000D02*
X44973000Y-68466000D01*
X46453000Y-74017000D02*
X46453000Y-71540000D01*
X48134000Y-74561000D02*
X48134000Y-71540000D01*
X46933000Y-69460000D02*
X46933000Y-66743000D01*
X46693000Y-69460000D02*
X46693000Y-66853000D01*
X44453000Y-71033000D02*
X44453000Y-69967000D01*
X47093000Y-69460000D02*
X47093000Y-66679000D01*
X46653000Y-74127000D02*
X46653000Y-71540000D01*
X46053000Y-73750000D02*
X46053000Y-67250000D01*
X47934000Y-74537000D02*
X47934000Y-71540000D01*
X47293000Y-69460000D02*
X47293000Y-66611000D01*
X46813000Y-69460000D02*
X46813000Y-66796000D01*
X45173000Y-72845000D02*
X45173000Y-68155000D01*
X46973000Y-74274000D02*
X46973000Y-71540000D01*
X45653000Y-73407000D02*
X45653000Y-67593000D01*
X45453000Y-73197000D02*
X45453000Y-67803000D01*
X47493000Y-69460000D02*
X47493000Y-66553000D01*
X46573000Y-69460000D02*
X46573000Y-66916000D01*
X47653000Y-69460000D02*
X47653000Y-66515000D01*
X48174000Y-74565000D02*
X48174000Y-71540000D01*
X44933000Y-72464000D02*
X44933000Y-68536000D01*
X47413000Y-74425000D02*
X47413000Y-71540000D01*
X47293000Y-74389000D02*
X47293000Y-71540000D01*
X45693000Y-73445000D02*
X45693000Y-67555000D01*
X46253000Y-69460000D02*
X46253000Y-67108000D01*
X45333000Y-73056000D02*
X45333000Y-67944000D01*
X46733000Y-74166000D02*
X46733000Y-71540000D01*
X46893000Y-74240000D02*
X46893000Y-71540000D01*
X47333000Y-74402000D02*
X47333000Y-71540000D01*
X48214000Y-69460000D02*
X48214000Y-66432000D01*
X47693000Y-69460000D02*
X47693000Y-66506000D01*
X47613000Y-74476000D02*
X47613000Y-71540000D01*
X48014000Y-69460000D02*
X48014000Y-66452000D01*
X47173000Y-69460000D02*
X47173000Y-66650000D01*
X45093000Y-72728000D02*
X45093000Y-68272000D01*
X48014000Y-74548000D02*
X48014000Y-71540000D01*
X46893000Y-69460000D02*
X46893000Y-66760000D01*
X47213000Y-69460000D02*
X47213000Y-66637000D01*
X47573000Y-74467000D02*
X47573000Y-71540000D01*
X47373000Y-69460000D02*
X47373000Y-66586000D01*
X46773000Y-69460000D02*
X46773000Y-66814000D01*
X44573000Y-71598000D02*
X44573000Y-69402000D01*
X46253000Y-73892000D02*
X46253000Y-71540000D01*
X44853000Y-72313000D02*
X44853000Y-68687000D01*
X52943698Y-72815000D02*
X52143698Y-72815000D01*
X46413000Y-73993000D02*
X46413000Y-71540000D01*
X48414000Y-74579000D02*
X48414000Y-66421000D01*
X46493000Y-69460000D02*
X46493000Y-66960000D01*
X46293000Y-69460000D02*
X46293000Y-67082000D01*
X48134000Y-69460000D02*
X48134000Y-66439000D01*
X46733000Y-69460000D02*
X46733000Y-66834000D01*
X47894000Y-69460000D02*
X47894000Y-66470000D01*
X48454000Y-74580000D02*
X48454000Y-66420000D01*
X47453000Y-69460000D02*
X47453000Y-66564000D01*
X45613000Y-73367000D02*
X45613000Y-67633000D01*
X45533000Y-73284000D02*
X45533000Y-67716000D01*
X47493000Y-74447000D02*
X47493000Y-71540000D01*
X45213000Y-72900000D02*
X45213000Y-68100000D01*
X46973000Y-69460000D02*
X46973000Y-66726000D01*
X47854000Y-69460000D02*
X47854000Y-66476000D01*
X46293000Y-73918000D02*
X46293000Y-71540000D01*
X44813000Y-72231000D02*
X44813000Y-68769000D01*
X47013000Y-69460000D02*
X47013000Y-66710000D01*
X52654000Y-70500000D02*
G75*
G03*
X52654000Y-70500000I-4120000J0D01*
G01*
%TO.C,A1*%
X68160000Y-47180000D02*
X65490000Y-47180000D01*
X78450000Y-90490000D02*
X70570000Y-90490000D01*
X83530000Y-87950000D02*
X83530000Y-44510000D01*
X70570000Y-90490000D02*
X70570000Y-80070000D01*
X78450000Y-80070000D02*
X78450000Y-90490000D01*
X83530000Y-87950000D02*
X78450000Y-87950000D01*
X65490000Y-49720000D02*
X65490000Y-87950000D01*
X68160000Y-85280000D02*
X65490000Y-85280000D01*
X80860000Y-47180000D02*
X80860000Y-85280000D01*
X68160000Y-49720000D02*
X68160000Y-47180000D01*
X80860000Y-85280000D02*
X83530000Y-85280000D01*
X80860000Y-47180000D02*
X83530000Y-47180000D01*
X68160000Y-49720000D02*
X65490000Y-49720000D01*
X83530000Y-44510000D02*
X65490000Y-44510000D01*
X65490000Y-87950000D02*
X70570000Y-87950000D01*
X65490000Y-44510000D02*
X65490000Y-47180000D01*
X70570000Y-80070000D02*
X78450000Y-80070000D01*
X68160000Y-49720000D02*
X68160000Y-85280000D01*
%TD*%
M02*
