%TF.GenerationSoftware,KiCad,Pcbnew,(5.1.10)-1*%
%TF.CreationDate,2022-10-10T21:05:00+02:00*%
%TF.ProjectId,onstepPi,6f6e7374-6570-4506-992e-6b696361645f,rev?*%
%TF.SameCoordinates,Original*%
%TF.FileFunction,Soldermask,Top*%
%TF.FilePolarity,Negative*%
%FSLAX46Y46*%
G04 Gerber Fmt 4.6, Leading zero omitted, Abs format (unit mm)*
G04 Created by KiCad (PCBNEW (5.1.10)-1) date 2022-10-10 21:05:00*
%MOMM*%
%LPD*%
G01*
G04 APERTURE LIST*
%ADD10C,2.000000*%
%ADD11C,3.200000*%
%ADD12R,1.300000X1.500000*%
%ADD13O,1.700000X1.700000*%
%ADD14R,1.700000X1.700000*%
%ADD15R,4.400000X1.800000*%
%ADD16O,4.000000X1.800000*%
%ADD17O,1.800000X4.000000*%
%ADD18C,1.600000*%
%ADD19R,1.600000X1.600000*%
%ADD20R,2.540000X2.540000*%
%ADD21C,2.540000*%
%ADD22R,9.400000X10.800000*%
%ADD23R,4.600000X1.100000*%
%ADD24R,3.800000X2.000000*%
%ADD25R,1.500000X2.000000*%
%ADD26C,1.524000*%
%ADD27R,1.500000X1.300000*%
%ADD28C,2.350000*%
%ADD29R,3.500000X1.800000*%
%ADD30C,4.000000*%
%ADD31C,1.750000*%
%ADD32R,1.750000X1.750000*%
%ADD33C,2.750000*%
G04 APERTURE END LIST*
D10*
%TO.C,J9*%
X206700000Y-33200000D03*
X204160000Y-33200000D03*
X201620000Y-33200000D03*
X199080000Y-33200000D03*
X196540000Y-33200000D03*
X194000000Y-33200000D03*
%TD*%
%TO.C,J8*%
X225320000Y-33000000D03*
X222780000Y-33000000D03*
X220240000Y-33000000D03*
X217700000Y-33000000D03*
X215160000Y-33000000D03*
X212620000Y-33000000D03*
%TD*%
%TO.C,J7*%
X171180000Y-33000000D03*
X168640000Y-33000000D03*
X166100000Y-33000000D03*
X163560000Y-33000000D03*
X161020000Y-33000000D03*
X158480000Y-33000000D03*
%TD*%
%TO.C,J6*%
X189480000Y-33300000D03*
X186940000Y-33300000D03*
X184400000Y-33300000D03*
X181860000Y-33300000D03*
X179320000Y-33300000D03*
X176780000Y-33300000D03*
%TD*%
D11*
%TO.C,REF\u002A\u002A*%
X233000000Y-33600000D03*
%TD*%
%TO.C,REF\u002A\u002A*%
X68000000Y-33600000D03*
%TD*%
D12*
%TO.C,R16*%
X145200000Y-39350000D03*
X145200000Y-36650000D03*
%TD*%
%TO.C,R15*%
X140200000Y-39500000D03*
X140200000Y-36800000D03*
%TD*%
D13*
%TO.C,J10*%
X150280000Y-32900000D03*
X147740000Y-32900000D03*
X145200000Y-32900000D03*
X142660000Y-32900000D03*
X140120000Y-32900000D03*
X137580000Y-32900000D03*
X135040000Y-32900000D03*
D14*
X132500000Y-32900000D03*
%TD*%
D11*
%TO.C,REF\u002A\u002A*%
X150500000Y-65600000D03*
%TD*%
%TO.C,REF\u002A\u002A*%
X150500000Y-129400000D03*
%TD*%
%TO.C,REF\u002A\u002A*%
X68000000Y-161400000D03*
%TD*%
%TO.C,REF\u002A\u002A*%
X68000000Y-97500000D03*
%TD*%
%TO.C,REF\u002A\u002A*%
X233000000Y-97500000D03*
%TD*%
%TO.C,REF\u002A\u002A*%
X233000000Y-161400000D03*
%TD*%
D13*
%TO.C,JP5*%
X195500000Y-136480000D03*
X195500000Y-133940000D03*
D14*
X195500000Y-131400000D03*
%TD*%
D15*
%TO.C,J5*%
X84000000Y-44000000D03*
D16*
X84000000Y-38200000D03*
D17*
X79200000Y-41000000D03*
%TD*%
D18*
%TO.C,U1*%
X122560000Y-110390000D03*
X122560000Y-112410000D03*
X136530000Y-108860000D03*
X139070000Y-108860000D03*
X141610000Y-108860000D03*
X144150000Y-108860000D03*
X144150000Y-111400000D03*
X141610000Y-111400000D03*
X136530000Y-111400000D03*
X139070000Y-111400000D03*
X159390000Y-111400000D03*
X159390000Y-108860000D03*
X161930000Y-111400000D03*
X161930000Y-108860000D03*
X164470000Y-111400000D03*
X164470000Y-108860000D03*
X179710000Y-111400000D03*
X179710000Y-108860000D03*
X169550000Y-111400000D03*
X172090000Y-111400000D03*
X174630000Y-111400000D03*
X177170000Y-111400000D03*
X177170000Y-108860000D03*
X174630000Y-108860000D03*
X172090000Y-108860000D03*
X169550000Y-108860000D03*
X137800000Y-116020000D03*
X135260000Y-116020000D03*
X132720000Y-116020000D03*
X130180000Y-116020000D03*
X127640000Y-116020000D03*
X133990000Y-106320000D03*
X131450000Y-106320000D03*
X128910000Y-106320000D03*
X123830000Y-106320000D03*
X121290000Y-103780000D03*
X123830000Y-103780000D03*
X126370000Y-103780000D03*
X128910000Y-103780000D03*
X131450000Y-103780000D03*
X133990000Y-103780000D03*
X136530000Y-103780000D03*
X139070000Y-103780000D03*
X141610000Y-103780000D03*
X144150000Y-103780000D03*
X146690000Y-103780000D03*
X149230000Y-103780000D03*
X151770000Y-103780000D03*
X154310000Y-103780000D03*
X156850000Y-103780000D03*
X159390000Y-103780000D03*
D19*
X121290000Y-119020000D03*
D18*
X123830000Y-119020000D03*
X126370000Y-119020000D03*
X128910000Y-119020000D03*
X131450000Y-119020000D03*
X133990000Y-119020000D03*
X136530000Y-119020000D03*
X139070000Y-119020000D03*
X141610000Y-119020000D03*
X144150000Y-119020000D03*
X146690000Y-119020000D03*
X149230000Y-119020000D03*
X151770000Y-119020000D03*
X161930000Y-103780000D03*
X164470000Y-103780000D03*
X167010000Y-103780000D03*
X169550000Y-103780000D03*
X172090000Y-103780000D03*
X174630000Y-103780000D03*
X177170000Y-103780000D03*
X179710000Y-103780000D03*
X167010000Y-106320000D03*
X167010000Y-108860000D03*
X167010000Y-111400000D03*
X167010000Y-113940000D03*
X167010000Y-116480000D03*
X179710000Y-119020000D03*
X177170000Y-119020000D03*
X174630000Y-119020000D03*
X172090000Y-119020000D03*
X154310000Y-119020000D03*
X156850000Y-119020000D03*
X159390000Y-119020000D03*
X169550000Y-119020000D03*
X167010000Y-119020000D03*
X164470000Y-119020000D03*
X161930000Y-119020000D03*
%TD*%
D20*
%TO.C,U4*%
X83000000Y-68000000D03*
D21*
X83000000Y-85780000D03*
X123640000Y-68000000D03*
X123640000Y-85780000D03*
%TD*%
D22*
%TO.C,U12*%
X121375000Y-46000000D03*
D23*
X112225000Y-48540000D03*
X112225000Y-46000000D03*
X112225000Y-43460000D03*
%TD*%
D12*
%TO.C,R23*%
X198600000Y-86000000D03*
X198600000Y-83300000D03*
%TD*%
%TO.C,R22*%
X201200000Y-86000000D03*
X201200000Y-83300000D03*
%TD*%
%TO.C,R21*%
X189300000Y-36950000D03*
X189300000Y-39650000D03*
%TD*%
%TO.C,R20*%
X206600000Y-36400000D03*
X206600000Y-39100000D03*
%TD*%
%TO.C,R19*%
X225400000Y-36200000D03*
X225400000Y-38900000D03*
%TD*%
%TO.C,R18*%
X171300000Y-36000000D03*
X171300000Y-38700000D03*
%TD*%
D10*
%TO.C,J14*%
X233000000Y-69380000D03*
X233000000Y-71920000D03*
X233000000Y-74460000D03*
X233000000Y-77000000D03*
%TD*%
%TO.C,J13*%
X233000000Y-46460000D03*
X233000000Y-49000000D03*
X233000000Y-51540000D03*
X233000000Y-54080000D03*
%TD*%
%TO.C,J12*%
X233000000Y-57920000D03*
X233000000Y-60460000D03*
X233000000Y-63000000D03*
X233000000Y-65540000D03*
%TD*%
D18*
%TO.C,C5*%
X104000000Y-59000000D03*
D19*
X104000000Y-56500000D03*
%TD*%
%TO.C,C4*%
G36*
G01*
X196050000Y-91525000D02*
X196050000Y-92475000D01*
G75*
G02*
X195800000Y-92725000I-250000J0D01*
G01*
X195125000Y-92725000D01*
G75*
G02*
X194875000Y-92475000I0J250000D01*
G01*
X194875000Y-91525000D01*
G75*
G02*
X195125000Y-91275000I250000J0D01*
G01*
X195800000Y-91275000D01*
G75*
G02*
X196050000Y-91525000I0J-250000D01*
G01*
G37*
G36*
G01*
X198125000Y-91525000D02*
X198125000Y-92475000D01*
G75*
G02*
X197875000Y-92725000I-250000J0D01*
G01*
X197200000Y-92725000D01*
G75*
G02*
X196950000Y-92475000I0J250000D01*
G01*
X196950000Y-91525000D01*
G75*
G02*
X197200000Y-91275000I250000J0D01*
G01*
X197875000Y-91275000D01*
G75*
G02*
X198125000Y-91525000I0J-250000D01*
G01*
G37*
%TD*%
D18*
%TO.C,C3*%
X118000000Y-59500000D03*
D19*
X118000000Y-57000000D03*
%TD*%
D24*
%TO.C,U11*%
X183300000Y-51450000D03*
D25*
X183300000Y-45150000D03*
X181000000Y-45150000D03*
X185600000Y-45150000D03*
%TD*%
D24*
%TO.C,U10*%
X221500000Y-51150000D03*
D25*
X221500000Y-44850000D03*
X219200000Y-44850000D03*
X223800000Y-44850000D03*
%TD*%
D24*
%TO.C,U9*%
X200500000Y-51150000D03*
D25*
X200500000Y-44850000D03*
X198200000Y-44850000D03*
X202800000Y-44850000D03*
%TD*%
D24*
%TO.C,U8*%
X166000000Y-51150000D03*
D25*
X166000000Y-44850000D03*
X163700000Y-44850000D03*
X168300000Y-44850000D03*
%TD*%
D26*
%TO.C,RTC1*%
X173100000Y-89240000D03*
X173100000Y-86700000D03*
X173100000Y-84160000D03*
X173100000Y-81620000D03*
%TD*%
D12*
%TO.C,R17*%
X150300000Y-39300000D03*
X150300000Y-36600000D03*
%TD*%
%TO.C,R14*%
X177000000Y-87000000D03*
X177000000Y-84300000D03*
%TD*%
%TO.C,R13*%
X180000000Y-87000000D03*
X180000000Y-84300000D03*
%TD*%
%TO.C,R12*%
X196100000Y-103500000D03*
X196100000Y-106200000D03*
%TD*%
%TO.C,R11*%
X193100000Y-103500000D03*
X193100000Y-106200000D03*
%TD*%
%TO.C,R10*%
X202100000Y-103500000D03*
X202100000Y-106200000D03*
%TD*%
%TO.C,R9*%
X199100000Y-103500000D03*
X199100000Y-106200000D03*
%TD*%
%TO.C,R8*%
X208100000Y-103500000D03*
X208100000Y-106200000D03*
%TD*%
%TO.C,R7*%
X205100000Y-103500000D03*
X205100000Y-106200000D03*
%TD*%
%TO.C,R6*%
X214100000Y-103500000D03*
X214100000Y-106200000D03*
%TD*%
%TO.C,R5*%
X211100000Y-103500000D03*
X211100000Y-106200000D03*
%TD*%
D27*
%TO.C,R4*%
X200850000Y-42000000D03*
X198150000Y-42000000D03*
%TD*%
%TO.C,R3*%
X221500000Y-42000000D03*
X218800000Y-42000000D03*
%TD*%
%TO.C,R2*%
X166350000Y-42000000D03*
X163650000Y-42000000D03*
%TD*%
%TO.C,R1*%
X183300000Y-42300000D03*
X180600000Y-42300000D03*
%TD*%
D28*
%TO.C,F1*%
X118000000Y-34000000D03*
X113000000Y-34000000D03*
X98000000Y-34000000D03*
X103000000Y-34000000D03*
%TD*%
D29*
%TO.C,D1*%
X97000000Y-45000000D03*
X102000000Y-45000000D03*
%TD*%
%TO.C,C2*%
G36*
G01*
X96525000Y-58487500D02*
X97475000Y-58487500D01*
G75*
G02*
X97725000Y-58737500I0J-250000D01*
G01*
X97725000Y-59412500D01*
G75*
G02*
X97475000Y-59662500I-250000J0D01*
G01*
X96525000Y-59662500D01*
G75*
G02*
X96275000Y-59412500I0J250000D01*
G01*
X96275000Y-58737500D01*
G75*
G02*
X96525000Y-58487500I250000J0D01*
G01*
G37*
G36*
G01*
X96525000Y-56412500D02*
X97475000Y-56412500D01*
G75*
G02*
X97725000Y-56662500I0J-250000D01*
G01*
X97725000Y-57337500D01*
G75*
G02*
X97475000Y-57587500I-250000J0D01*
G01*
X96525000Y-57587500D01*
G75*
G02*
X96275000Y-57337500I0J250000D01*
G01*
X96275000Y-56662500D01*
G75*
G02*
X96525000Y-56412500I250000J0D01*
G01*
G37*
%TD*%
%TO.C,C1*%
G36*
G01*
X111525000Y-58487500D02*
X112475000Y-58487500D01*
G75*
G02*
X112725000Y-58737500I0J-250000D01*
G01*
X112725000Y-59412500D01*
G75*
G02*
X112475000Y-59662500I-250000J0D01*
G01*
X111525000Y-59662500D01*
G75*
G02*
X111275000Y-59412500I0J250000D01*
G01*
X111275000Y-58737500D01*
G75*
G02*
X111525000Y-58487500I250000J0D01*
G01*
G37*
G36*
G01*
X111525000Y-56412500D02*
X112475000Y-56412500D01*
G75*
G02*
X112725000Y-56662500I0J-250000D01*
G01*
X112725000Y-57337500D01*
G75*
G02*
X112475000Y-57587500I-250000J0D01*
G01*
X111525000Y-57587500D01*
G75*
G02*
X111275000Y-57337500I0J250000D01*
G01*
X111275000Y-56662500D01*
G75*
G02*
X111525000Y-56412500I250000J0D01*
G01*
G37*
%TD*%
D13*
%TO.C,JP3*%
X161952000Y-135860000D03*
X161952000Y-133320000D03*
D14*
X161952000Y-130780000D03*
%TD*%
D13*
%TO.C,JP2*%
X119000000Y-135840000D03*
X119000000Y-133300000D03*
D14*
X119000000Y-130760000D03*
%TD*%
D13*
%TO.C,JP1*%
X88912000Y-135860000D03*
X88912000Y-133320000D03*
D14*
X88912000Y-130780000D03*
%TD*%
D26*
%TO.C,U7*%
X216230000Y-131210000D03*
X217500000Y-132480000D03*
X217500000Y-129940000D03*
X199720000Y-140100000D03*
X202260000Y-140100000D03*
X204800000Y-140100000D03*
X207340000Y-140100000D03*
X209880000Y-140100000D03*
X212420000Y-140100000D03*
X214960000Y-140100000D03*
X217500000Y-140100000D03*
X199720000Y-127400000D03*
X202260000Y-127400000D03*
X204800000Y-127400000D03*
X207340000Y-127400000D03*
X209880000Y-127400000D03*
X212420000Y-127400000D03*
X214960000Y-127400000D03*
X217500000Y-127400000D03*
%TD*%
%TO.C,U6*%
X182272000Y-130780000D03*
X183542000Y-132050000D03*
X183542000Y-129510000D03*
X165762000Y-139670000D03*
X168302000Y-139670000D03*
X170842000Y-139670000D03*
X173382000Y-139670000D03*
X175922000Y-139670000D03*
X178462000Y-139670000D03*
X181002000Y-139670000D03*
X183542000Y-139670000D03*
X165762000Y-126970000D03*
X168302000Y-126970000D03*
X170842000Y-126970000D03*
X173382000Y-126970000D03*
X175922000Y-126970000D03*
X178462000Y-126970000D03*
X181002000Y-126970000D03*
X183542000Y-126970000D03*
%TD*%
%TO.C,U5*%
X139030000Y-130710000D03*
X140300000Y-131980000D03*
X140300000Y-129440000D03*
X122520000Y-139600000D03*
X125060000Y-139600000D03*
X127600000Y-139600000D03*
X130140000Y-139600000D03*
X132680000Y-139600000D03*
X135220000Y-139600000D03*
X137760000Y-139600000D03*
X140300000Y-139600000D03*
X122520000Y-126900000D03*
X125060000Y-126900000D03*
X127600000Y-126900000D03*
X130140000Y-126900000D03*
X132680000Y-126900000D03*
X135220000Y-126900000D03*
X137760000Y-126900000D03*
X140300000Y-126900000D03*
%TD*%
D30*
%TO.C,J4*%
X212540000Y-162820000D03*
X187540000Y-162820000D03*
D18*
X195885000Y-164240000D03*
X198655000Y-164240000D03*
X201425000Y-164240000D03*
X204195000Y-164240000D03*
X194500000Y-161400000D03*
X197270000Y-161400000D03*
X200040000Y-161400000D03*
X202810000Y-161400000D03*
D19*
X205580000Y-161400000D03*
%TD*%
D30*
%TO.C,J3*%
X179500000Y-162820000D03*
X154500000Y-162820000D03*
D18*
X162845000Y-164240000D03*
X165615000Y-164240000D03*
X168385000Y-164240000D03*
X171155000Y-164240000D03*
X161460000Y-161400000D03*
X164230000Y-161400000D03*
X167000000Y-161400000D03*
X169770000Y-161400000D03*
D19*
X172540000Y-161400000D03*
%TD*%
D30*
%TO.C,J2*%
X146460000Y-162820000D03*
X121460000Y-162820000D03*
D18*
X129805000Y-164240000D03*
X132575000Y-164240000D03*
X135345000Y-164240000D03*
X138115000Y-164240000D03*
X128420000Y-161400000D03*
X131190000Y-161400000D03*
X133960000Y-161400000D03*
X136730000Y-161400000D03*
D19*
X139500000Y-161400000D03*
%TD*%
D26*
%TO.C,U3*%
X109232000Y-130780000D03*
X110502000Y-132050000D03*
X110502000Y-129510000D03*
X92722000Y-139670000D03*
X95262000Y-139670000D03*
X97802000Y-139670000D03*
X100342000Y-139670000D03*
X102882000Y-139670000D03*
X105422000Y-139670000D03*
X107962000Y-139670000D03*
X110502000Y-139670000D03*
X92722000Y-126970000D03*
X95262000Y-126970000D03*
X97802000Y-126970000D03*
X100342000Y-126970000D03*
X102882000Y-126970000D03*
X105422000Y-126970000D03*
X107962000Y-126970000D03*
X110502000Y-126970000D03*
%TD*%
%TO.C,U2*%
G36*
G01*
X200425000Y-93375000D02*
X200225000Y-93375000D01*
G75*
G02*
X200125000Y-93275000I0J100000D01*
G01*
X200125000Y-92000000D01*
G75*
G02*
X200225000Y-91900000I100000J0D01*
G01*
X200425000Y-91900000D01*
G75*
G02*
X200525000Y-92000000I0J-100000D01*
G01*
X200525000Y-93275000D01*
G75*
G02*
X200425000Y-93375000I-100000J0D01*
G01*
G37*
G36*
G01*
X201075000Y-93375000D02*
X200875000Y-93375000D01*
G75*
G02*
X200775000Y-93275000I0J100000D01*
G01*
X200775000Y-92000000D01*
G75*
G02*
X200875000Y-91900000I100000J0D01*
G01*
X201075000Y-91900000D01*
G75*
G02*
X201175000Y-92000000I0J-100000D01*
G01*
X201175000Y-93275000D01*
G75*
G02*
X201075000Y-93375000I-100000J0D01*
G01*
G37*
G36*
G01*
X201725000Y-93375000D02*
X201525000Y-93375000D01*
G75*
G02*
X201425000Y-93275000I0J100000D01*
G01*
X201425000Y-92000000D01*
G75*
G02*
X201525000Y-91900000I100000J0D01*
G01*
X201725000Y-91900000D01*
G75*
G02*
X201825000Y-92000000I0J-100000D01*
G01*
X201825000Y-93275000D01*
G75*
G02*
X201725000Y-93375000I-100000J0D01*
G01*
G37*
G36*
G01*
X202375000Y-93375000D02*
X202175000Y-93375000D01*
G75*
G02*
X202075000Y-93275000I0J100000D01*
G01*
X202075000Y-92000000D01*
G75*
G02*
X202175000Y-91900000I100000J0D01*
G01*
X202375000Y-91900000D01*
G75*
G02*
X202475000Y-92000000I0J-100000D01*
G01*
X202475000Y-93275000D01*
G75*
G02*
X202375000Y-93375000I-100000J0D01*
G01*
G37*
G36*
G01*
X203025000Y-93375000D02*
X202825000Y-93375000D01*
G75*
G02*
X202725000Y-93275000I0J100000D01*
G01*
X202725000Y-92000000D01*
G75*
G02*
X202825000Y-91900000I100000J0D01*
G01*
X203025000Y-91900000D01*
G75*
G02*
X203125000Y-92000000I0J-100000D01*
G01*
X203125000Y-93275000D01*
G75*
G02*
X203025000Y-93375000I-100000J0D01*
G01*
G37*
G36*
G01*
X203675000Y-93375000D02*
X203475000Y-93375000D01*
G75*
G02*
X203375000Y-93275000I0J100000D01*
G01*
X203375000Y-92000000D01*
G75*
G02*
X203475000Y-91900000I100000J0D01*
G01*
X203675000Y-91900000D01*
G75*
G02*
X203775000Y-92000000I0J-100000D01*
G01*
X203775000Y-93275000D01*
G75*
G02*
X203675000Y-93375000I-100000J0D01*
G01*
G37*
G36*
G01*
X204325000Y-93375000D02*
X204125000Y-93375000D01*
G75*
G02*
X204025000Y-93275000I0J100000D01*
G01*
X204025000Y-92000000D01*
G75*
G02*
X204125000Y-91900000I100000J0D01*
G01*
X204325000Y-91900000D01*
G75*
G02*
X204425000Y-92000000I0J-100000D01*
G01*
X204425000Y-93275000D01*
G75*
G02*
X204325000Y-93375000I-100000J0D01*
G01*
G37*
G36*
G01*
X204975000Y-93375000D02*
X204775000Y-93375000D01*
G75*
G02*
X204675000Y-93275000I0J100000D01*
G01*
X204675000Y-92000000D01*
G75*
G02*
X204775000Y-91900000I100000J0D01*
G01*
X204975000Y-91900000D01*
G75*
G02*
X205075000Y-92000000I0J-100000D01*
G01*
X205075000Y-93275000D01*
G75*
G02*
X204975000Y-93375000I-100000J0D01*
G01*
G37*
G36*
G01*
X205625000Y-93375000D02*
X205425000Y-93375000D01*
G75*
G02*
X205325000Y-93275000I0J100000D01*
G01*
X205325000Y-92000000D01*
G75*
G02*
X205425000Y-91900000I100000J0D01*
G01*
X205625000Y-91900000D01*
G75*
G02*
X205725000Y-92000000I0J-100000D01*
G01*
X205725000Y-93275000D01*
G75*
G02*
X205625000Y-93375000I-100000J0D01*
G01*
G37*
G36*
G01*
X206275000Y-93375000D02*
X206075000Y-93375000D01*
G75*
G02*
X205975000Y-93275000I0J100000D01*
G01*
X205975000Y-92000000D01*
G75*
G02*
X206075000Y-91900000I100000J0D01*
G01*
X206275000Y-91900000D01*
G75*
G02*
X206375000Y-92000000I0J-100000D01*
G01*
X206375000Y-93275000D01*
G75*
G02*
X206275000Y-93375000I-100000J0D01*
G01*
G37*
G36*
G01*
X206925000Y-93375000D02*
X206725000Y-93375000D01*
G75*
G02*
X206625000Y-93275000I0J100000D01*
G01*
X206625000Y-92000000D01*
G75*
G02*
X206725000Y-91900000I100000J0D01*
G01*
X206925000Y-91900000D01*
G75*
G02*
X207025000Y-92000000I0J-100000D01*
G01*
X207025000Y-93275000D01*
G75*
G02*
X206925000Y-93375000I-100000J0D01*
G01*
G37*
G36*
G01*
X207575000Y-93375000D02*
X207375000Y-93375000D01*
G75*
G02*
X207275000Y-93275000I0J100000D01*
G01*
X207275000Y-92000000D01*
G75*
G02*
X207375000Y-91900000I100000J0D01*
G01*
X207575000Y-91900000D01*
G75*
G02*
X207675000Y-92000000I0J-100000D01*
G01*
X207675000Y-93275000D01*
G75*
G02*
X207575000Y-93375000I-100000J0D01*
G01*
G37*
G36*
G01*
X207575000Y-99100000D02*
X207375000Y-99100000D01*
G75*
G02*
X207275000Y-99000000I0J100000D01*
G01*
X207275000Y-97725000D01*
G75*
G02*
X207375000Y-97625000I100000J0D01*
G01*
X207575000Y-97625000D01*
G75*
G02*
X207675000Y-97725000I0J-100000D01*
G01*
X207675000Y-99000000D01*
G75*
G02*
X207575000Y-99100000I-100000J0D01*
G01*
G37*
G36*
G01*
X206925000Y-99100000D02*
X206725000Y-99100000D01*
G75*
G02*
X206625000Y-99000000I0J100000D01*
G01*
X206625000Y-97725000D01*
G75*
G02*
X206725000Y-97625000I100000J0D01*
G01*
X206925000Y-97625000D01*
G75*
G02*
X207025000Y-97725000I0J-100000D01*
G01*
X207025000Y-99000000D01*
G75*
G02*
X206925000Y-99100000I-100000J0D01*
G01*
G37*
G36*
G01*
X206275000Y-99100000D02*
X206075000Y-99100000D01*
G75*
G02*
X205975000Y-99000000I0J100000D01*
G01*
X205975000Y-97725000D01*
G75*
G02*
X206075000Y-97625000I100000J0D01*
G01*
X206275000Y-97625000D01*
G75*
G02*
X206375000Y-97725000I0J-100000D01*
G01*
X206375000Y-99000000D01*
G75*
G02*
X206275000Y-99100000I-100000J0D01*
G01*
G37*
G36*
G01*
X205625000Y-99100000D02*
X205425000Y-99100000D01*
G75*
G02*
X205325000Y-99000000I0J100000D01*
G01*
X205325000Y-97725000D01*
G75*
G02*
X205425000Y-97625000I100000J0D01*
G01*
X205625000Y-97625000D01*
G75*
G02*
X205725000Y-97725000I0J-100000D01*
G01*
X205725000Y-99000000D01*
G75*
G02*
X205625000Y-99100000I-100000J0D01*
G01*
G37*
G36*
G01*
X204975000Y-99100000D02*
X204775000Y-99100000D01*
G75*
G02*
X204675000Y-99000000I0J100000D01*
G01*
X204675000Y-97725000D01*
G75*
G02*
X204775000Y-97625000I100000J0D01*
G01*
X204975000Y-97625000D01*
G75*
G02*
X205075000Y-97725000I0J-100000D01*
G01*
X205075000Y-99000000D01*
G75*
G02*
X204975000Y-99100000I-100000J0D01*
G01*
G37*
G36*
G01*
X204325000Y-99100000D02*
X204125000Y-99100000D01*
G75*
G02*
X204025000Y-99000000I0J100000D01*
G01*
X204025000Y-97725000D01*
G75*
G02*
X204125000Y-97625000I100000J0D01*
G01*
X204325000Y-97625000D01*
G75*
G02*
X204425000Y-97725000I0J-100000D01*
G01*
X204425000Y-99000000D01*
G75*
G02*
X204325000Y-99100000I-100000J0D01*
G01*
G37*
G36*
G01*
X203675000Y-99100000D02*
X203475000Y-99100000D01*
G75*
G02*
X203375000Y-99000000I0J100000D01*
G01*
X203375000Y-97725000D01*
G75*
G02*
X203475000Y-97625000I100000J0D01*
G01*
X203675000Y-97625000D01*
G75*
G02*
X203775000Y-97725000I0J-100000D01*
G01*
X203775000Y-99000000D01*
G75*
G02*
X203675000Y-99100000I-100000J0D01*
G01*
G37*
G36*
G01*
X203025000Y-99100000D02*
X202825000Y-99100000D01*
G75*
G02*
X202725000Y-99000000I0J100000D01*
G01*
X202725000Y-97725000D01*
G75*
G02*
X202825000Y-97625000I100000J0D01*
G01*
X203025000Y-97625000D01*
G75*
G02*
X203125000Y-97725000I0J-100000D01*
G01*
X203125000Y-99000000D01*
G75*
G02*
X203025000Y-99100000I-100000J0D01*
G01*
G37*
G36*
G01*
X202375000Y-99100000D02*
X202175000Y-99100000D01*
G75*
G02*
X202075000Y-99000000I0J100000D01*
G01*
X202075000Y-97725000D01*
G75*
G02*
X202175000Y-97625000I100000J0D01*
G01*
X202375000Y-97625000D01*
G75*
G02*
X202475000Y-97725000I0J-100000D01*
G01*
X202475000Y-99000000D01*
G75*
G02*
X202375000Y-99100000I-100000J0D01*
G01*
G37*
G36*
G01*
X201725000Y-99100000D02*
X201525000Y-99100000D01*
G75*
G02*
X201425000Y-99000000I0J100000D01*
G01*
X201425000Y-97725000D01*
G75*
G02*
X201525000Y-97625000I100000J0D01*
G01*
X201725000Y-97625000D01*
G75*
G02*
X201825000Y-97725000I0J-100000D01*
G01*
X201825000Y-99000000D01*
G75*
G02*
X201725000Y-99100000I-100000J0D01*
G01*
G37*
G36*
G01*
X201075000Y-99100000D02*
X200875000Y-99100000D01*
G75*
G02*
X200775000Y-99000000I0J100000D01*
G01*
X200775000Y-97725000D01*
G75*
G02*
X200875000Y-97625000I100000J0D01*
G01*
X201075000Y-97625000D01*
G75*
G02*
X201175000Y-97725000I0J-100000D01*
G01*
X201175000Y-99000000D01*
G75*
G02*
X201075000Y-99100000I-100000J0D01*
G01*
G37*
G36*
G01*
X200425000Y-99100000D02*
X200225000Y-99100000D01*
G75*
G02*
X200125000Y-99000000I0J100000D01*
G01*
X200125000Y-97725000D01*
G75*
G02*
X200225000Y-97625000I100000J0D01*
G01*
X200425000Y-97625000D01*
G75*
G02*
X200525000Y-97725000I0J-100000D01*
G01*
X200525000Y-99000000D01*
G75*
G02*
X200425000Y-99100000I-100000J0D01*
G01*
G37*
%TD*%
D31*
%TO.C,RP1*%
X79800000Y-133200000D03*
X77260000Y-133200000D03*
X79800000Y-135740000D03*
X77260000Y-135740000D03*
X77260000Y-128120000D03*
X79800000Y-128120000D03*
D32*
X79800000Y-100180000D03*
D31*
X77260000Y-100180000D03*
X79800000Y-102720000D03*
X77260000Y-102720000D03*
X79800000Y-105260000D03*
X77260000Y-105260000D03*
X79800000Y-107800000D03*
X77260000Y-107800000D03*
X79800000Y-110340000D03*
X77260000Y-110340000D03*
X79800000Y-112880000D03*
X77260000Y-112880000D03*
X79800000Y-115420000D03*
X77260000Y-115420000D03*
X79800000Y-117960000D03*
X77260000Y-117960000D03*
X79800000Y-120500000D03*
X77260000Y-120500000D03*
X79800000Y-123040000D03*
X77260000Y-123040000D03*
X79800000Y-125580000D03*
X77260000Y-125580000D03*
X79800000Y-130660000D03*
X77260000Y-130660000D03*
X77260000Y-138280000D03*
X79800000Y-138280000D03*
X77260000Y-140820000D03*
X79800000Y-140820000D03*
X77260000Y-143360000D03*
X79800000Y-143360000D03*
X77260000Y-145900000D03*
X79800000Y-145900000D03*
X77260000Y-148440000D03*
X79800000Y-148440000D03*
D33*
X78530000Y-95310000D03*
X78530000Y-153310000D03*
X127530000Y-95310000D03*
X127530000Y-153310000D03*
%TD*%
D30*
%TO.C,J1*%
X113460000Y-162820000D03*
X88460000Y-162820000D03*
D18*
X96805000Y-164240000D03*
X99575000Y-164240000D03*
X102345000Y-164240000D03*
X105115000Y-164240000D03*
X95420000Y-161400000D03*
X98190000Y-161400000D03*
X100960000Y-161400000D03*
X103730000Y-161400000D03*
D19*
X106500000Y-161400000D03*
%TD*%
M02*
