M48
; DRILL file {KiCad (5.1.10)-1} date 10/10/22 21:05:03
; FORMAT={-:-/ absolute / metric / decimal}
; #@! TF.CreationDate,2022-10-10T21:05:03+02:00
; #@! TF.GenerationSoftware,Kicad,Pcbnew,(5.1.10)-1
FMAT,2
METRIC
T1C0.400
T2C0.762
T3C0.800
T4C1.000
T5C1.016
T6C1.100
T7C1.350
T8C3.200
T9C2.750
T10C3.200
%
G90
G05
T1
X107.9Y-128.7
X114.9Y-126.7
X123.7Y-124.5
X126.7Y-121.5
X129.7Y-121.5
X129.9Y-99.3
X132.0Y-123.1
X137.3Y-123.275
X137.8Y-129.1
X138.0Y-48.7
X146.7Y-121.0
X151.9Y-122.825
X153.0Y-100.9
X155.1Y-101.8
X159.3Y-124.1
X161.9Y-123.3
X163.4Y-123.4
X164.2Y-46.8
X166.0Y-46.8
X167.0Y-123.5
X168.0Y-46.9
X170.7Y-123.5
X173.0Y-122.3
X176.9Y-106.4
X178.5Y-123.1
X180.9Y-129.5
X181.3Y-47.3
X181.7Y-105.5
X183.2Y-47.3
X184.0Y-110.5
X185.2Y-47.2
X187.2Y-111.1
X187.9Y-114.2
X190.4Y-116.8
X192.8Y-111.0
X199.0Y-47.0
X200.6Y-46.9
X202.4Y-47.0
X208.9Y-99.1
X214.2Y-130.0
X218.9Y-39.6
X219.2Y-47.0
X221.3Y-47.0
X223.4Y-47.0
X225.3Y-40.6
T2
X92.722Y-126.97
X92.722Y-139.67
X95.262Y-126.97
X95.262Y-139.67
X97.802Y-126.97
X97.802Y-139.67
X100.342Y-126.97
X100.342Y-139.67
X102.882Y-126.97
X102.882Y-139.67
X105.422Y-126.97
X105.422Y-139.67
X107.962Y-126.97
X107.962Y-139.67
X109.232Y-130.78
X110.502Y-126.97
X110.502Y-129.51
X110.502Y-132.05
X110.502Y-139.67
X122.52Y-126.9
X122.52Y-139.6
X125.06Y-126.9
X125.06Y-139.6
X127.6Y-126.9
X127.6Y-139.6
X130.14Y-126.9
X130.14Y-139.6
X132.68Y-126.9
X132.68Y-139.6
X135.22Y-126.9
X135.22Y-139.6
X137.76Y-126.9
X137.76Y-139.6
X139.03Y-130.71
X140.3Y-126.9
X140.3Y-129.44
X140.3Y-131.98
X140.3Y-139.6
X165.762Y-126.97
X165.762Y-139.67
X168.302Y-126.97
X168.302Y-139.67
X170.842Y-126.97
X170.842Y-139.67
X173.1Y-81.62
X173.1Y-84.16
X173.1Y-86.7
X173.1Y-89.24
X173.382Y-126.97
X173.382Y-139.67
X175.922Y-126.97
X175.922Y-139.67
X178.462Y-126.97
X178.462Y-139.67
X181.002Y-126.97
X181.002Y-139.67
X182.272Y-130.78
X183.542Y-126.97
X183.542Y-129.51
X183.542Y-132.05
X183.542Y-139.67
X199.72Y-127.4
X199.72Y-140.1
X202.26Y-127.4
X202.26Y-140.1
X204.8Y-127.4
X204.8Y-140.1
X207.34Y-127.4
X207.34Y-140.1
X209.88Y-127.4
X209.88Y-140.1
X212.42Y-127.4
X212.42Y-140.1
X214.96Y-127.4
X214.96Y-140.1
X216.23Y-131.21
X217.5Y-127.4
X217.5Y-129.94
X217.5Y-132.48
X217.5Y-140.1
T3
X98.4Y-132.8
X99.0Y-95.7
X104.0Y-56.5
X104.0Y-59.0
X107.7Y-107.3
X112.225Y-51.475
X117.0Y-134.6
X118.0Y-57.0
X118.0Y-59.5
X122.2Y-35.5
X144.4Y-85.2
X150.0Y-120.5
X153.1Y-106.5
X155.4Y-126.7
X155.8Y-134.1
X155.9Y-135.8
X156.1Y-120.8
X159.4Y-126.7
X160.2Y-105.9
X161.2Y-53.1
X168.2Y-40.7
X169.0Y-66.6
X169.9Y-41.4
X170.3Y-51.2
X171.8Y-124.9
X173.5Y-132.4
X174.3Y-124.7
X176.8Y-121.0
X178.9Y-53.7
X180.3Y-51.2
X186.6Y-42.2
X186.9Y-53.9
X191.0Y-106.2
X192.4Y-91.5
X195.5Y-119.6
X197.4Y-52.8
X198.0Y-51.1
X198.9Y-92.6
X199.6Y-48.4
X200.8Y-125.1
X203.4Y-41.5
X204.1Y-124.7
X204.2Y-36.9
X204.2Y-45.0
X210.0Y-54.1
X210.1Y-35.2
X217.2Y-50.6
T4
X83.0Y-68.0
X83.0Y-85.78
X86.8Y-142.7
X88.912Y-130.78
X88.912Y-133.32
X88.912Y-135.86
X89.7Y-157.8
X91.8Y-155.6
X92.9Y-142.3
X94.0Y-153.4
X95.42Y-161.4
X95.6Y-142.6
X96.805Y-164.24
X98.19Y-161.4
X99.575Y-164.24
X100.96Y-161.4
X102.345Y-164.24
X103.73Y-161.4
X105.115Y-164.24
X106.5Y-161.4
X109.2Y-148.9
X111.9Y-149.0
X114.6Y-148.9
X115.7Y-142.0
X118.4Y-142.1
X119.0Y-130.76
X119.0Y-133.3
X119.0Y-135.84
X122.8Y-142.2
X123.64Y-68.0
X123.64Y-85.78
X128.42Y-161.4
X129.805Y-164.24
X131.19Y-161.4
X132.5Y-32.9
X132.575Y-164.24
X133.96Y-161.4
X135.04Y-32.9
X135.345Y-164.24
X136.73Y-161.4
X137.58Y-32.9
X138.115Y-164.24
X139.5Y-161.4
X140.12Y-32.9
X142.66Y-32.9
X145.2Y-32.9
X147.74Y-32.9
X148.1Y-142.7
X148.6Y-148.6
X150.28Y-32.9
X150.8Y-142.6
X151.8Y-148.7
X154.0Y-142.6
X154.7Y-148.7
X154.8Y-145.7
X160.7Y-145.7
X161.46Y-161.4
X161.7Y-148.9
X161.952Y-130.78
X161.952Y-133.32
X161.952Y-135.86
X162.0Y-142.1
X162.845Y-164.24
X164.23Y-161.4
X165.615Y-164.24
X165.8Y-142.0
X167.0Y-161.4
X168.385Y-164.24
X169.77Y-161.4
X171.155Y-164.24
X172.54Y-161.4
X178.1Y-148.6
X178.4Y-142.8
X182.4Y-148.6
X187.0Y-148.8
X189.2Y-143.0
X192.3Y-142.9
X194.5Y-161.4
X195.5Y-131.4
X195.5Y-133.94
X195.5Y-136.48
X195.885Y-164.24
X195.9Y-142.8
X197.27Y-161.4
X198.655Y-164.24
X200.0Y-142.6
X200.04Y-161.4
X201.425Y-164.24
X202.81Y-161.4
X204.195Y-164.24
X205.58Y-161.4
T5
X77.26Y-100.18
X77.26Y-102.72
X77.26Y-105.26
X77.26Y-107.8
X77.26Y-110.34
X77.26Y-112.88
X77.26Y-115.42
X77.26Y-117.96
X77.26Y-120.5
X77.26Y-123.04
X77.26Y-125.58
X77.26Y-128.12
X77.26Y-130.66
X77.26Y-133.2
X77.26Y-135.74
X77.26Y-138.28
X77.26Y-140.82
X77.26Y-143.36
X77.26Y-145.9
X77.26Y-148.44
X79.8Y-100.18
X79.8Y-102.72
X79.8Y-105.26
X79.8Y-107.8
X79.8Y-110.34
X79.8Y-112.88
X79.8Y-115.42
X79.8Y-117.96
X79.8Y-120.5
X79.8Y-123.04
X79.8Y-125.58
X79.8Y-128.12
X79.8Y-130.66
X79.8Y-133.2
X79.8Y-135.74
X79.8Y-138.28
X79.8Y-140.82
X79.8Y-143.36
X79.8Y-145.9
X79.8Y-148.44
T6
X121.29Y-103.78
X121.29Y-119.02
X122.56Y-110.39
X122.56Y-112.41
X123.83Y-103.78
X123.83Y-106.32
X123.83Y-119.02
X126.37Y-103.78
X126.37Y-119.02
X127.64Y-116.02
X128.91Y-103.78
X128.91Y-106.32
X128.91Y-119.02
X130.18Y-116.02
X131.45Y-103.78
X131.45Y-106.32
X131.45Y-119.02
X132.72Y-116.02
X133.99Y-103.78
X133.99Y-106.32
X133.99Y-119.02
X135.26Y-116.02
X136.53Y-103.78
X136.53Y-108.86
X136.53Y-111.4
X136.53Y-119.02
X137.8Y-116.02
X139.07Y-103.78
X139.07Y-108.86
X139.07Y-111.4
X139.07Y-119.02
X141.61Y-103.78
X141.61Y-108.86
X141.61Y-111.4
X141.61Y-119.02
X144.15Y-103.78
X144.15Y-108.86
X144.15Y-111.4
X144.15Y-119.02
X146.69Y-103.78
X146.69Y-119.02
X149.23Y-103.78
X149.23Y-119.02
X151.77Y-103.78
X151.77Y-119.02
X154.31Y-103.78
X154.31Y-119.02
X156.85Y-103.78
X156.85Y-119.02
X158.48Y-33.0
X159.39Y-103.78
X159.39Y-108.86
X159.39Y-111.4
X159.39Y-119.02
X161.02Y-33.0
X161.93Y-103.78
X161.93Y-108.86
X161.93Y-111.4
X161.93Y-119.02
X163.56Y-33.0
X164.47Y-103.78
X164.47Y-108.86
X164.47Y-111.4
X164.47Y-119.02
X166.1Y-33.0
X167.01Y-103.78
X167.01Y-106.32
X167.01Y-108.86
X167.01Y-111.4
X167.01Y-113.94
X167.01Y-116.48
X167.01Y-119.02
X168.64Y-33.0
X169.55Y-103.78
X169.55Y-108.86
X169.55Y-111.4
X169.55Y-119.02
X171.18Y-33.0
X172.09Y-103.78
X172.09Y-108.86
X172.09Y-111.4
X172.09Y-119.02
X174.63Y-103.78
X174.63Y-108.86
X174.63Y-111.4
X174.63Y-119.02
X176.78Y-33.3
X177.17Y-103.78
X177.17Y-108.86
X177.17Y-111.4
X177.17Y-119.02
X179.32Y-33.3
X179.71Y-103.78
X179.71Y-108.86
X179.71Y-111.4
X179.71Y-119.02
X181.86Y-33.3
X184.4Y-33.3
X186.94Y-33.3
X189.48Y-33.3
X194.0Y-33.2
X196.54Y-33.2
X199.08Y-33.2
X201.62Y-33.2
X204.16Y-33.2
X206.7Y-33.2
X212.62Y-33.0
X215.16Y-33.0
X217.7Y-33.0
X220.24Y-33.0
X222.78Y-33.0
X225.32Y-33.0
X233.0Y-46.46
X233.0Y-49.0
X233.0Y-51.54
X233.0Y-54.08
X233.0Y-57.92
X233.0Y-60.46
X233.0Y-63.0
X233.0Y-65.54
X233.0Y-69.38
X233.0Y-71.92
X233.0Y-74.46
X233.0Y-77.0
T7
X98.0Y-34.0
X103.0Y-34.0
X113.0Y-34.0
X118.0Y-34.0
T8
X88.46Y-162.82
X113.46Y-162.82
X121.46Y-162.82
X146.46Y-162.82
X154.5Y-162.82
X179.5Y-162.82
X187.54Y-162.82
X212.54Y-162.82
T9
X78.53Y-95.31
X78.53Y-153.31
X127.53Y-95.31
X127.53Y-153.31
T10
X68.0Y-33.6
X68.0Y-97.5
X68.0Y-161.4
X150.5Y-65.6
X150.5Y-129.4
X233.0Y-33.6
X233.0Y-97.5
X233.0Y-161.4
T3
G00X79.2Y-39.9
M15
G01X79.2Y-42.1
M16
G05
G00X85.1Y-38.2
M15
G01X82.9Y-38.2
M16
G05
G00X85.3Y-44.0
M15
G01X82.7Y-44.0
M16
G05
T0
M30
