%TF.GenerationSoftware,KiCad,Pcbnew,(5.1.10)-1*%
%TF.CreationDate,2022-10-10T21:05:00+02:00*%
%TF.ProjectId,onstepPi,6f6e7374-6570-4506-992e-6b696361645f,rev?*%
%TF.SameCoordinates,Original*%
%TF.FileFunction,Soldermask,Bot*%
%TF.FilePolarity,Negative*%
%FSLAX46Y46*%
G04 Gerber Fmt 4.6, Leading zero omitted, Abs format (unit mm)*
G04 Created by KiCad (PCBNEW (5.1.10)-1) date 2022-10-10 21:05:00*
%MOMM*%
%LPD*%
G01*
G04 APERTURE LIST*
%ADD10C,2.000000*%
%ADD11C,3.200000*%
%ADD12O,1.700000X1.700000*%
%ADD13R,1.700000X1.700000*%
%ADD14R,4.400000X1.800000*%
%ADD15O,4.000000X1.800000*%
%ADD16O,1.800000X4.000000*%
%ADD17C,1.600000*%
%ADD18R,1.600000X1.600000*%
%ADD19R,2.540000X2.540000*%
%ADD20C,2.540000*%
%ADD21C,1.524000*%
%ADD22C,2.350000*%
%ADD23C,4.000000*%
%ADD24C,1.750000*%
%ADD25R,1.750000X1.750000*%
%ADD26C,2.750000*%
G04 APERTURE END LIST*
D10*
%TO.C,J9*%
X206700000Y-33200000D03*
X204160000Y-33200000D03*
X201620000Y-33200000D03*
X199080000Y-33200000D03*
X196540000Y-33200000D03*
X194000000Y-33200000D03*
%TD*%
%TO.C,J8*%
X225320000Y-33000000D03*
X222780000Y-33000000D03*
X220240000Y-33000000D03*
X217700000Y-33000000D03*
X215160000Y-33000000D03*
X212620000Y-33000000D03*
%TD*%
%TO.C,J7*%
X171180000Y-33000000D03*
X168640000Y-33000000D03*
X166100000Y-33000000D03*
X163560000Y-33000000D03*
X161020000Y-33000000D03*
X158480000Y-33000000D03*
%TD*%
%TO.C,J6*%
X189480000Y-33300000D03*
X186940000Y-33300000D03*
X184400000Y-33300000D03*
X181860000Y-33300000D03*
X179320000Y-33300000D03*
X176780000Y-33300000D03*
%TD*%
D11*
%TO.C,REF\u002A\u002A*%
X233000000Y-33600000D03*
%TD*%
%TO.C,REF\u002A\u002A*%
X68000000Y-33600000D03*
%TD*%
D12*
%TO.C,J10*%
X150280000Y-32900000D03*
X147740000Y-32900000D03*
X145200000Y-32900000D03*
X142660000Y-32900000D03*
X140120000Y-32900000D03*
X137580000Y-32900000D03*
X135040000Y-32900000D03*
D13*
X132500000Y-32900000D03*
%TD*%
D11*
%TO.C,REF\u002A\u002A*%
X150500000Y-65600000D03*
%TD*%
%TO.C,REF\u002A\u002A*%
X150500000Y-129400000D03*
%TD*%
%TO.C,REF\u002A\u002A*%
X68000000Y-161400000D03*
%TD*%
%TO.C,REF\u002A\u002A*%
X68000000Y-97500000D03*
%TD*%
%TO.C,REF\u002A\u002A*%
X233000000Y-97500000D03*
%TD*%
%TO.C,REF\u002A\u002A*%
X233000000Y-161400000D03*
%TD*%
D12*
%TO.C,JP5*%
X195500000Y-136480000D03*
X195500000Y-133940000D03*
D13*
X195500000Y-131400000D03*
%TD*%
D14*
%TO.C,J5*%
X84000000Y-44000000D03*
D15*
X84000000Y-38200000D03*
D16*
X79200000Y-41000000D03*
%TD*%
D17*
%TO.C,U1*%
X122560000Y-110390000D03*
X122560000Y-112410000D03*
X136530000Y-108860000D03*
X139070000Y-108860000D03*
X141610000Y-108860000D03*
X144150000Y-108860000D03*
X144150000Y-111400000D03*
X141610000Y-111400000D03*
X136530000Y-111400000D03*
X139070000Y-111400000D03*
X159390000Y-111400000D03*
X159390000Y-108860000D03*
X161930000Y-111400000D03*
X161930000Y-108860000D03*
X164470000Y-111400000D03*
X164470000Y-108860000D03*
X179710000Y-111400000D03*
X179710000Y-108860000D03*
X169550000Y-111400000D03*
X172090000Y-111400000D03*
X174630000Y-111400000D03*
X177170000Y-111400000D03*
X177170000Y-108860000D03*
X174630000Y-108860000D03*
X172090000Y-108860000D03*
X169550000Y-108860000D03*
X137800000Y-116020000D03*
X135260000Y-116020000D03*
X132720000Y-116020000D03*
X130180000Y-116020000D03*
X127640000Y-116020000D03*
X133990000Y-106320000D03*
X131450000Y-106320000D03*
X128910000Y-106320000D03*
X123830000Y-106320000D03*
X121290000Y-103780000D03*
X123830000Y-103780000D03*
X126370000Y-103780000D03*
X128910000Y-103780000D03*
X131450000Y-103780000D03*
X133990000Y-103780000D03*
X136530000Y-103780000D03*
X139070000Y-103780000D03*
X141610000Y-103780000D03*
X144150000Y-103780000D03*
X146690000Y-103780000D03*
X149230000Y-103780000D03*
X151770000Y-103780000D03*
X154310000Y-103780000D03*
X156850000Y-103780000D03*
X159390000Y-103780000D03*
D18*
X121290000Y-119020000D03*
D17*
X123830000Y-119020000D03*
X126370000Y-119020000D03*
X128910000Y-119020000D03*
X131450000Y-119020000D03*
X133990000Y-119020000D03*
X136530000Y-119020000D03*
X139070000Y-119020000D03*
X141610000Y-119020000D03*
X144150000Y-119020000D03*
X146690000Y-119020000D03*
X149230000Y-119020000D03*
X151770000Y-119020000D03*
X161930000Y-103780000D03*
X164470000Y-103780000D03*
X167010000Y-103780000D03*
X169550000Y-103780000D03*
X172090000Y-103780000D03*
X174630000Y-103780000D03*
X177170000Y-103780000D03*
X179710000Y-103780000D03*
X167010000Y-106320000D03*
X167010000Y-108860000D03*
X167010000Y-111400000D03*
X167010000Y-113940000D03*
X167010000Y-116480000D03*
X179710000Y-119020000D03*
X177170000Y-119020000D03*
X174630000Y-119020000D03*
X172090000Y-119020000D03*
X154310000Y-119020000D03*
X156850000Y-119020000D03*
X159390000Y-119020000D03*
X169550000Y-119020000D03*
X167010000Y-119020000D03*
X164470000Y-119020000D03*
X161930000Y-119020000D03*
%TD*%
D19*
%TO.C,U4*%
X83000000Y-68000000D03*
D20*
X83000000Y-85780000D03*
X123640000Y-68000000D03*
X123640000Y-85780000D03*
%TD*%
D10*
%TO.C,J14*%
X233000000Y-69380000D03*
X233000000Y-71920000D03*
X233000000Y-74460000D03*
X233000000Y-77000000D03*
%TD*%
%TO.C,J13*%
X233000000Y-46460000D03*
X233000000Y-49000000D03*
X233000000Y-51540000D03*
X233000000Y-54080000D03*
%TD*%
%TO.C,J12*%
X233000000Y-57920000D03*
X233000000Y-60460000D03*
X233000000Y-63000000D03*
X233000000Y-65540000D03*
%TD*%
D17*
%TO.C,C5*%
X104000000Y-59000000D03*
D18*
X104000000Y-56500000D03*
%TD*%
D17*
%TO.C,C3*%
X118000000Y-59500000D03*
D18*
X118000000Y-57000000D03*
%TD*%
D21*
%TO.C,RTC1*%
X173100000Y-89240000D03*
X173100000Y-86700000D03*
X173100000Y-84160000D03*
X173100000Y-81620000D03*
%TD*%
D22*
%TO.C,F1*%
X118000000Y-34000000D03*
X113000000Y-34000000D03*
X98000000Y-34000000D03*
X103000000Y-34000000D03*
%TD*%
D12*
%TO.C,JP3*%
X161952000Y-135860000D03*
X161952000Y-133320000D03*
D13*
X161952000Y-130780000D03*
%TD*%
D12*
%TO.C,JP2*%
X119000000Y-135840000D03*
X119000000Y-133300000D03*
D13*
X119000000Y-130760000D03*
%TD*%
D12*
%TO.C,JP1*%
X88912000Y-135860000D03*
X88912000Y-133320000D03*
D13*
X88912000Y-130780000D03*
%TD*%
D21*
%TO.C,U7*%
X216230000Y-131210000D03*
X217500000Y-132480000D03*
X217500000Y-129940000D03*
X199720000Y-140100000D03*
X202260000Y-140100000D03*
X204800000Y-140100000D03*
X207340000Y-140100000D03*
X209880000Y-140100000D03*
X212420000Y-140100000D03*
X214960000Y-140100000D03*
X217500000Y-140100000D03*
X199720000Y-127400000D03*
X202260000Y-127400000D03*
X204800000Y-127400000D03*
X207340000Y-127400000D03*
X209880000Y-127400000D03*
X212420000Y-127400000D03*
X214960000Y-127400000D03*
X217500000Y-127400000D03*
%TD*%
%TO.C,U6*%
X182272000Y-130780000D03*
X183542000Y-132050000D03*
X183542000Y-129510000D03*
X165762000Y-139670000D03*
X168302000Y-139670000D03*
X170842000Y-139670000D03*
X173382000Y-139670000D03*
X175922000Y-139670000D03*
X178462000Y-139670000D03*
X181002000Y-139670000D03*
X183542000Y-139670000D03*
X165762000Y-126970000D03*
X168302000Y-126970000D03*
X170842000Y-126970000D03*
X173382000Y-126970000D03*
X175922000Y-126970000D03*
X178462000Y-126970000D03*
X181002000Y-126970000D03*
X183542000Y-126970000D03*
%TD*%
%TO.C,U5*%
X139030000Y-130710000D03*
X140300000Y-131980000D03*
X140300000Y-129440000D03*
X122520000Y-139600000D03*
X125060000Y-139600000D03*
X127600000Y-139600000D03*
X130140000Y-139600000D03*
X132680000Y-139600000D03*
X135220000Y-139600000D03*
X137760000Y-139600000D03*
X140300000Y-139600000D03*
X122520000Y-126900000D03*
X125060000Y-126900000D03*
X127600000Y-126900000D03*
X130140000Y-126900000D03*
X132680000Y-126900000D03*
X135220000Y-126900000D03*
X137760000Y-126900000D03*
X140300000Y-126900000D03*
%TD*%
D23*
%TO.C,J4*%
X212540000Y-162820000D03*
X187540000Y-162820000D03*
D17*
X195885000Y-164240000D03*
X198655000Y-164240000D03*
X201425000Y-164240000D03*
X204195000Y-164240000D03*
X194500000Y-161400000D03*
X197270000Y-161400000D03*
X200040000Y-161400000D03*
X202810000Y-161400000D03*
D18*
X205580000Y-161400000D03*
%TD*%
D23*
%TO.C,J3*%
X179500000Y-162820000D03*
X154500000Y-162820000D03*
D17*
X162845000Y-164240000D03*
X165615000Y-164240000D03*
X168385000Y-164240000D03*
X171155000Y-164240000D03*
X161460000Y-161400000D03*
X164230000Y-161400000D03*
X167000000Y-161400000D03*
X169770000Y-161400000D03*
D18*
X172540000Y-161400000D03*
%TD*%
D23*
%TO.C,J2*%
X146460000Y-162820000D03*
X121460000Y-162820000D03*
D17*
X129805000Y-164240000D03*
X132575000Y-164240000D03*
X135345000Y-164240000D03*
X138115000Y-164240000D03*
X128420000Y-161400000D03*
X131190000Y-161400000D03*
X133960000Y-161400000D03*
X136730000Y-161400000D03*
D18*
X139500000Y-161400000D03*
%TD*%
D21*
%TO.C,U3*%
X109232000Y-130780000D03*
X110502000Y-132050000D03*
X110502000Y-129510000D03*
X92722000Y-139670000D03*
X95262000Y-139670000D03*
X97802000Y-139670000D03*
X100342000Y-139670000D03*
X102882000Y-139670000D03*
X105422000Y-139670000D03*
X107962000Y-139670000D03*
X110502000Y-139670000D03*
X92722000Y-126970000D03*
X95262000Y-126970000D03*
X97802000Y-126970000D03*
X100342000Y-126970000D03*
X102882000Y-126970000D03*
X105422000Y-126970000D03*
X107962000Y-126970000D03*
X110502000Y-126970000D03*
%TD*%
D24*
%TO.C,RP1*%
X79800000Y-133200000D03*
X77260000Y-133200000D03*
X79800000Y-135740000D03*
X77260000Y-135740000D03*
X77260000Y-128120000D03*
X79800000Y-128120000D03*
D25*
X79800000Y-100180000D03*
D24*
X77260000Y-100180000D03*
X79800000Y-102720000D03*
X77260000Y-102720000D03*
X79800000Y-105260000D03*
X77260000Y-105260000D03*
X79800000Y-107800000D03*
X77260000Y-107800000D03*
X79800000Y-110340000D03*
X77260000Y-110340000D03*
X79800000Y-112880000D03*
X77260000Y-112880000D03*
X79800000Y-115420000D03*
X77260000Y-115420000D03*
X79800000Y-117960000D03*
X77260000Y-117960000D03*
X79800000Y-120500000D03*
X77260000Y-120500000D03*
X79800000Y-123040000D03*
X77260000Y-123040000D03*
X79800000Y-125580000D03*
X77260000Y-125580000D03*
X79800000Y-130660000D03*
X77260000Y-130660000D03*
X77260000Y-138280000D03*
X79800000Y-138280000D03*
X77260000Y-140820000D03*
X79800000Y-140820000D03*
X77260000Y-143360000D03*
X79800000Y-143360000D03*
X77260000Y-145900000D03*
X79800000Y-145900000D03*
X77260000Y-148440000D03*
X79800000Y-148440000D03*
D26*
X78530000Y-95310000D03*
X78530000Y-153310000D03*
X127530000Y-95310000D03*
X127530000Y-153310000D03*
%TD*%
D23*
%TO.C,J1*%
X113460000Y-162820000D03*
X88460000Y-162820000D03*
D17*
X96805000Y-164240000D03*
X99575000Y-164240000D03*
X102345000Y-164240000D03*
X105115000Y-164240000D03*
X95420000Y-161400000D03*
X98190000Y-161400000D03*
X100960000Y-161400000D03*
X103730000Y-161400000D03*
D18*
X106500000Y-161400000D03*
%TD*%
M02*
